<?xml version="1.0" encoding="UTF-8"?> <svg xmlns="http://www.w3.org/2000/svg" xmlns:xlink="http://www.w3.org/1999/xlink" version="1.1" id="Layer_1" x="0px" y="0px" viewBox="0 0 539 271" style="enable-background:new 0 0 539 271;" xml:space="preserve"> <style type="text/css"> .st0{fill:none;stroke:#939598;stroke-width:0.5;stroke-miterlimit:10;} .st1{fill:#6E6F72;} </style> <g> <line class="st0" x1="0" y1="0" x2="132.4" y2="0"></line> <line class="st0" x1="0.7" y1="38" x2="0.7" y2="0.7"></line> <line class="st0" x1="132.4" y1="0" x2="267.6" y2="0"></line> <line class="st0" x1="267.6" y1="0" x2="402.8" y2="0"></line> <line class="st0" x1="402.8" y1="0" x2="538.7" y2="0"></line> <line class="st0" x1="538" y1="38" x2="538" y2="0.7"></line> <line class="st0" x1="0" y1="38.6" x2="132.4" y2="38.6"></line> <line class="st0" x1="0.7" y1="101.3" x2="0.7" y2="39.3"></line> <line class="st0" x1="132.4" y1="38.6" x2="267.6" y2="38.6"></line> <line class="st0" x1="132.4" y1="101.3" x2="132.4" y2="39.3"></line> <line class="st0" x1="267.6" y1="38.6" x2="402.8" y2="38.6"></line> <line class="st0" x1="267.6" y1="101.3" x2="267.6" y2="39.3"></line> <line class="st0" x1="402.8" y1="38.6" x2="538.7" y2="38.6"></line> <line class="st0" x1="0" y1="102" x2="132.4" y2="102"></line> <line class="st0" x1="132.4" y1="102" x2="267.6" y2="102"></line> <line class="st0" x1="267.6" y1="102" x2="402.8" y2="102"></line> <line class="st0" x1="402.8" y1="102" x2="538.7" y2="102"></line> <line class="st0" x1="402.8" y1="101.3" x2="402.8" y2="39.3"></line> <line class="st0" x1="538" y1="101.3" x2="538" y2="39.3"></line> <path class="st1" d="M120,27.6l3.2-14.7h2.6l3.2,14.7h-2.4l-0.8-4.1h-2.9l-0.8,4.1H120z M125.5,21.8c-0.2-1.1-0.4-2-0.6-2.9 c-0.1-0.4-0.1-0.7-0.2-1.1c-0.1-0.4-0.1-0.7-0.2-1c-0.1-0.3-0.1-0.6-0.1-0.8c0-0.2-0.1-0.4-0.1-0.4c0,0.1,0,0.2,0,0.5 c0,0.2-0.1,0.5-0.1,0.8c-0.1,0.3-0.1,0.6-0.2,1c-0.1,0.4-0.1,0.7-0.2,1.1c-0.2,0.9-0.4,1.8-0.6,2.9H125.5z M131.7,27.6l-2.9-10.9 h2.2l1.5,6c0,0.1,0,0.2,0.1,0.4c0,0.2,0.1,0.3,0.1,0.5c0,0.2,0.1,0.4,0.1,0.5c0,0.2,0,0.3,0,0.4c0-0.1,0-0.2,0.1-0.4 c0-0.2,0.1-0.4,0.1-0.5c0-0.2,0.1-0.4,0.1-0.5c0-0.2,0.1-0.3,0.1-0.4l1.5-6h1.9l-2.9,10.9H131.7z M139.5,27.7 c-0.7,0-1.3-0.2-1.8-0.7c-0.5-0.5-0.7-1.2-0.7-2.1c0-1.1,0.3-1.9,0.9-2.6c0.6-0.6,1.5-1.1,2.5-1.4c0.3-0.1,0.5-0.1,0.8-0.2 c0.3-0.1,0.6-0.1,0.8-0.2c0,0,0-0.1,0-0.2s0-0.2,0-0.4c0-0.1,0-0.3,0-0.4c0-0.1,0-0.2,0-0.2c0-0.5-0.1-0.8-0.3-1 c-0.2-0.2-0.5-0.4-1-0.4c-0.5,0-0.9,0.1-1.1,0.4c-0.2,0.3-0.4,0.7-0.5,1.2l-2-0.3c0.2-0.9,0.6-1.6,1.2-2.2c0.6-0.5,1.5-0.8,2.5-0.8 c1.2,0,2,0.3,2.5,0.8c0.5,0.6,0.7,1.3,0.7,2.3v5.9c0,0.4,0,0.8,0,1.2c0,0.4,0.1,0.7,0.2,0.8h-2.1c0-0.1-0.1-0.3-0.1-0.5 c0-0.2,0-0.4,0-0.6c-0.3,0.4-0.6,0.7-1.1,0.9C140.7,27.6,140.1,27.7,139.5,27.7z M140.3,26.2c0.4,0,0.8-0.1,1.1-0.4 c0.3-0.2,0.5-0.5,0.7-0.9v-3.1c-0.4,0-0.8,0.1-1.1,0.3c-0.6,0.2-1,0.5-1.3,0.9c-0.3,0.4-0.5,0.9-0.5,1.6c0,0.5,0.1,0.9,0.3,1.2 C139.6,26.1,139.9,26.2,140.3,26.2z M146.1,15.1v-2.3h2.2v2.3H146.1z M146.1,27.6V16.7h2.2v10.9H146.1z M150.3,27.6V12.9h2.1v14.7 H150.3z M156.4,27.7c-0.7,0-1.3-0.2-1.8-0.7c-0.5-0.5-0.7-1.2-0.7-2.1c0-1.1,0.3-1.9,0.9-2.6c0.6-0.6,1.5-1.1,2.5-1.4 c0.3-0.1,0.5-0.1,0.8-0.2c0.3-0.1,0.6-0.1,0.8-0.2c0,0,0-0.1,0-0.2s0-0.2,0-0.4c0-0.1,0-0.3,0-0.4c0-0.1,0-0.2,0-0.2 c0-0.5-0.1-0.8-0.3-1c-0.2-0.2-0.5-0.4-1-0.4c-0.5,0-0.9,0.1-1.1,0.4c-0.2,0.3-0.4,0.7-0.5,1.2l-2-0.3c0.2-0.9,0.6-1.6,1.2-2.2 c0.6-0.5,1.5-0.8,2.5-0.8c1.2,0,2,0.3,2.5,0.8c0.5,0.6,0.7,1.3,0.7,2.3v5.9c0,0.4,0,0.8,0,1.2c0,0.4,0.1,0.7,0.2,0.8h-2.1 c0-0.1-0.1-0.3-0.1-0.5c0-0.2,0-0.4,0-0.6c-0.3,0.4-0.6,0.7-1.1,0.9C157.6,27.6,157.1,27.7,156.4,27.7z M157.3,26.2 c0.4,0,0.8-0.1,1.1-0.4c0.3-0.2,0.5-0.5,0.7-0.9v-3.1c-0.4,0-0.8,0.1-1.1,0.3c-0.6,0.2-1,0.5-1.3,0.9c-0.3,0.4-0.5,0.9-0.5,1.6 c0,0.5,0.1,0.9,0.3,1.2C156.6,26.1,156.9,26.2,157.3,26.2z M167.1,27.7c-0.6,0-1-0.1-1.4-0.3c-0.4-0.2-0.7-0.5-0.9-1l-0.4,1.2H163 V12.9h2.1V18c0.2-0.4,0.5-0.7,0.9-1c0.4-0.3,0.8-0.4,1.4-0.4c0.4,0,0.8,0.1,1.2,0.3c0.4,0.2,0.6,0.5,0.9,1c0.2,0.4,0.4,1,0.6,1.7 c0.1,0.7,0.2,1.6,0.2,2.6c0,1.9-0.3,3.4-0.9,4.3C168.8,27.3,168,27.7,167.1,27.7z M166.6,26.3c0.6,0,0.9-0.3,1.1-1 c0.2-0.7,0.3-1.7,0.3-3.1c0-1.4-0.1-2.5-0.3-3.1c-0.2-0.6-0.6-0.9-1.1-0.9c-0.4,0-0.7,0.1-0.9,0.4c-0.2,0.2-0.4,0.5-0.5,0.8v4.8 c0,0.6,0.1,1.1,0.3,1.5C165.7,26.1,166.1,26.3,166.6,26.3z M171.9,27.6V12.9h2.1v14.7H171.9z M179.4,27.8c-1.2,0-2.2-0.5-2.9-1.4 c-0.7-0.9-1-2.3-1-4.1c0-1.8,0.3-3.2,1-4.2c0.7-1,1.6-1.5,2.8-1.5c1.2,0,2.1,0.5,2.7,1.5c0.6,1,0.9,2.4,0.9,4.2v0.5h-5.2 c0,1.3,0.2,2.2,0.5,2.7c0.3,0.5,0.7,0.8,1.3,0.8c0.4,0,0.7-0.1,1-0.4c0.3-0.3,0.4-0.8,0.6-1.4l1.8,0.2c-0.1,0.5-0.2,0.9-0.4,1.3 c-0.2,0.4-0.4,0.7-0.7,1c-0.3,0.3-0.6,0.5-1,0.7C180.3,27.7,179.9,27.8,179.4,27.8z M181,21.4c0-1.1-0.2-2-0.4-2.5 c-0.2-0.5-0.6-0.8-1.1-0.8c-0.5,0-0.9,0.3-1.1,0.8c-0.3,0.5-0.4,1.4-0.5,2.5H181z M188.8,27.6V12.9h3.2c0.4,1.9,0.8,3.6,1.1,5.1 c0.1,0.6,0.3,1.3,0.4,1.9c0.1,0.6,0.3,1.2,0.4,1.7c0.1,0.5,0.2,0.9,0.3,1.2c0.1,0.3,0.1,0.5,0.1,0.6c0-0.1,0-0.3,0.1-0.6 c0.1-0.3,0.2-0.7,0.3-1.2c0.1-0.5,0.2-1.1,0.4-1.7c0.1-0.6,0.3-1.3,0.4-1.9c0.4-1.5,0.7-3.2,1.2-5.1h3.1v14.7h-2.2v-5.3 c0-0.7,0-1.3,0-2c0-0.7,0-1.3,0-1.8c0-0.5,0-1,0-1.3c0-0.4,0-0.6,0-0.7c0,0.1-0.1,0.3-0.1,0.7c-0.1,0.4-0.2,0.8-0.3,1.4 c-0.1,0.5-0.3,1.1-0.4,1.8c-0.2,0.7-0.3,1.3-0.5,2c-0.4,1.6-0.8,3.4-1.3,5.3h-1.7c-0.5-1.9-0.9-3.7-1.3-5.3c-0.2-0.7-0.3-1.3-0.5-2 c-0.2-0.7-0.3-1.3-0.4-1.8c-0.1-0.5-0.2-1-0.3-1.4c-0.1-0.4-0.1-0.6-0.1-0.7c0,0.2,0,0.5,0,0.9c0,0.4,0,0.9,0,1.5 c0,0.6,0,1.2,0,1.8c0,0.7,0,1.3,0,2v5H188.8z M205.3,27.8c-1.2,0-2.1-0.5-2.8-1.4c-0.7-1-1-2.4-1-4.2c0-1.8,0.3-3.2,1-4.1 c0.7-1,1.6-1.5,2.8-1.5c1.2,0,2.1,0.5,2.8,1.4c0.7,1,1,2.4,1,4.2c0,1.8-0.3,3.2-1,4.2C207.4,27.3,206.4,27.8,205.3,27.8z M205.3,26.2c0.3,0,0.5-0.1,0.7-0.2c0.2-0.1,0.3-0.4,0.5-0.7c0.1-0.3,0.2-0.7,0.3-1.3c0.1-0.5,0.1-1.2,0.1-1.9 c0-1.5-0.1-2.5-0.4-3.1c-0.3-0.6-0.6-0.9-1.2-0.9c-0.5,0-0.9,0.3-1.1,0.9c-0.3,0.6-0.4,1.7-0.4,3.1c0,1.5,0.1,2.5,0.4,3.1 C204.4,25.9,204.8,26.2,205.3,26.2z M213.2,27.7c-0.9,0-1.6-0.4-2.2-1.3c-0.5-0.9-0.8-2.3-0.8-4.3c0-1.9,0.3-3.3,0.8-4.2 c0.6-0.9,1.3-1.4,2.3-1.4c0.4,0,0.8,0.1,1.1,0.3c0.3,0.2,0.6,0.4,0.8,0.7v-4.7h2.1v14.7h-2v-1.1c-0.3,0.4-0.6,0.7-0.9,0.9 C214.2,27.6,213.8,27.7,213.2,27.7z M213.9,26.2c0.4,0,0.7-0.1,0.9-0.4c0.2-0.2,0.4-0.5,0.5-0.8v-5.8c-0.1-0.3-0.3-0.6-0.5-0.8 c-0.2-0.2-0.5-0.3-0.9-0.3c-0.5,0-0.9,0.3-1.1,0.9c-0.2,0.6-0.3,1.7-0.3,3.1c0,0.8,0,1.5,0.1,2c0.1,0.5,0.1,0.9,0.3,1.2 c0.1,0.3,0.3,0.5,0.4,0.6C213.5,26.2,213.7,26.2,213.9,26.2z M224.3,26.4c-0.6,0.9-1.4,1.3-2.6,1.3c-0.7,0-1.2-0.2-1.6-0.6 c-0.4-0.4-0.7-1-0.7-1.9v-8.5h2.2V25c0,0.4,0.1,0.7,0.2,0.9c0.2,0.2,0.4,0.3,0.8,0.3c0.4,0,0.6-0.1,0.9-0.3 c0.2-0.2,0.4-0.5,0.6-0.8v-8.4h2.2v10.9h-2.1L224.3,26.4L224.3,26.4z M228.3,27.6V12.9h2.1v14.7H228.3z M235.9,27.8 c-1.2,0-2.2-0.5-2.9-1.4c-0.7-0.9-1-2.3-1-4.1c0-1.8,0.3-3.2,1-4.2c0.7-1,1.6-1.5,2.8-1.5c1.2,0,2.1,0.5,2.7,1.5 c0.6,1,0.9,2.4,0.9,4.2v0.5h-5.2c0,1.3,0.2,2.2,0.5,2.7c0.3,0.5,0.7,0.8,1.3,0.8c0.4,0,0.7-0.1,1-0.4c0.3-0.3,0.4-0.8,0.6-1.4 l1.8,0.2c-0.1,0.5-0.2,0.9-0.4,1.3c-0.2,0.4-0.4,0.7-0.7,1c-0.3,0.3-0.6,0.5-1,0.7C236.8,27.7,236.4,27.8,235.9,27.8z M237.4,21.4 c0-1.1-0.2-2-0.4-2.5c-0.2-0.5-0.6-0.8-1.1-0.8c-0.5,0-0.9,0.3-1.1,0.8c-0.3,0.5-0.4,1.4-0.5,2.5H237.4z M243.8,27.8 c-1.1,0-1.9-0.3-2.5-0.8c-0.6-0.5-1-1.2-1.2-2.1l1.8-0.3c0.1,0.5,0.3,1,0.6,1.3c0.3,0.3,0.8,0.5,1.3,0.5c0.5,0,0.8-0.1,1.1-0.3 c0.3-0.2,0.4-0.6,0.4-1c0-0.5-0.2-1-0.6-1.3c-0.4-0.3-0.9-0.6-1.5-0.9c-0.4-0.2-0.8-0.4-1.2-0.6c-0.4-0.2-0.6-0.4-0.9-0.7 c-0.2-0.3-0.4-0.6-0.6-0.9s-0.2-0.7-0.2-1.2c0-0.5,0.1-0.9,0.3-1.2c0.2-0.4,0.4-0.7,0.7-0.9c0.3-0.2,0.6-0.4,1-0.6 c0.4-0.1,0.8-0.2,1.3-0.2c0.9,0,1.6,0.2,2.2,0.7c0.6,0.5,1,1.1,1.1,1.9l-1.8,0.4c-0.2-1-0.7-1.5-1.6-1.5c-0.4,0-0.7,0.1-1,0.3 c-0.3,0.2-0.4,0.5-0.4,0.9c0,0.3,0.1,0.5,0.2,0.7c0.1,0.2,0.3,0.3,0.4,0.5c0.2,0.1,0.4,0.3,0.7,0.4c0.3,0.1,0.6,0.3,0.9,0.4 c0.4,0.2,0.8,0.4,1.1,0.6c0.4,0.2,0.7,0.4,0.9,0.7c0.3,0.3,0.5,0.6,0.6,0.9c0.1,0.4,0.2,0.8,0.2,1.2c0,1-0.3,1.7-1,2.3 C245.7,27.5,244.8,27.8,243.8,27.8z M250.7,31.3l6.5-18.4h1.6l-6.5,18.4H250.7z M264.5,27.6V12.9h2.3v6.7l3.6-6.7h2.2l-2.9,5.4 l3.4,9.3h-2.5l-2.5-6.9l-1.4,2.3v4.6H264.5z M278.9,26.4c-0.6,0.9-1.4,1.3-2.6,1.3c-0.7,0-1.2-0.2-1.6-0.6c-0.4-0.4-0.7-1-0.7-1.9 v-8.5h2.2V25c0,0.4,0.1,0.7,0.2,0.9c0.2,0.2,0.4,0.3,0.8,0.3c0.4,0,0.6-0.1,0.9-0.3c0.2-0.2,0.4-0.5,0.6-0.8v-8.4h2.2v10.9h-2.1 L278.9,26.4L278.9,26.4z M283,27.6V12.9h2.1v14.7H283z M287.1,27.6V12.9h2.1v14.7H287.1z M293.3,27.7c-0.7,0-1.3-0.2-1.8-0.7 c-0.5-0.5-0.7-1.2-0.7-2.1c0-1.1,0.3-1.9,0.9-2.6c0.6-0.6,1.5-1.1,2.5-1.4c0.3-0.1,0.5-0.1,0.8-0.2c0.3-0.1,0.6-0.1,0.8-0.2 c0,0,0-0.1,0-0.2s0-0.2,0-0.4c0-0.1,0-0.3,0-0.4c0-0.1,0-0.2,0-0.2c0-0.5-0.1-0.8-0.3-1c-0.2-0.2-0.5-0.4-1-0.4 c-0.5,0-0.9,0.1-1.1,0.4c-0.2,0.3-0.4,0.7-0.5,1.2l-2-0.3c0.2-0.9,0.6-1.6,1.2-2.2c0.6-0.5,1.5-0.8,2.5-0.8c1.2,0,2,0.3,2.5,0.8 c0.5,0.6,0.7,1.3,0.7,2.3v5.9c0,0.4,0,0.8,0,1.2c0,0.4,0.1,0.7,0.2,0.8H296c0-0.1-0.1-0.3-0.1-0.5c0-0.2,0-0.4,0-0.6 c-0.3,0.4-0.6,0.7-1.1,0.9C294.4,27.6,293.9,27.7,293.3,27.7z M294.1,26.2c0.4,0,0.8-0.1,1.1-0.4c0.3-0.2,0.5-0.5,0.7-0.9v-3.1 c-0.4,0-0.8,0.1-1.1,0.3c-0.6,0.2-1,0.5-1.3,0.9c-0.3,0.4-0.5,0.9-0.5,1.6c0,0.5,0.1,0.9,0.3,1.2C293.4,26.1,293.7,26.2,294.1,26.2 z M299.9,27.6V16.7h2.1v1.4c0.3-0.4,0.6-0.8,1-1.1c0.4-0.3,1-0.5,1.6-0.5c0.8,0,1.3,0.2,1.7,0.7c0.4,0.4,0.5,1,0.5,1.8v8.6h-2.1 v-8.3c0-0.3-0.1-0.6-0.2-0.7c-0.2-0.2-0.4-0.3-0.8-0.3c-0.3,0-0.6,0.1-0.9,0.3c-0.3,0.2-0.5,0.5-0.7,0.8v8.2H299.9z M308.7,27.6 V16.7h2.2v10.9H308.7z M312.9,27.6V12.9h2.1v14.7H312.9z M319,27.7c-0.7,0-1.3-0.2-1.8-0.7c-0.5-0.5-0.7-1.2-0.7-2.1 c0-1.1,0.3-1.9,0.9-2.6c0.6-0.6,1.5-1.1,2.5-1.4c0.3-0.1,0.5-0.1,0.8-0.2c0.3-0.1,0.6-0.1,0.8-0.2c0,0,0-0.1,0-0.2s0-0.2,0-0.4 c0-0.1,0-0.3,0-0.4c0-0.1,0-0.2,0-0.2c0-0.5-0.1-0.8-0.3-1c-0.2-0.2-0.5-0.4-1-0.4c-0.5,0-0.9,0.1-1.1,0.4 c-0.2,0.3-0.4,0.7-0.5,1.2l-2-0.3c0.2-0.9,0.6-1.6,1.2-2.2c0.6-0.5,1.5-0.8,2.5-0.8c1.2,0,2,0.3,2.5,0.8c0.5,0.6,0.7,1.3,0.7,2.3 v5.9c0,0.4,0,0.8,0,1.2c0,0.4,0.1,0.7,0.2,0.8h-2.1c0-0.1-0.1-0.3-0.1-0.5c0-0.2,0-0.4,0-0.6c-0.3,0.4-0.6,0.7-1.1,0.9 C320.2,27.6,319.7,27.7,319,27.7z M319.9,26.2c0.4,0,0.8-0.1,1.1-0.4c0.3-0.2,0.5-0.5,0.7-0.9v-3.1c-0.4,0-0.8,0.1-1.1,0.3 c-0.6,0.2-1,0.5-1.3,0.9c-0.3,0.4-0.5,0.9-0.5,1.6c0,0.5,0.1,0.9,0.3,1.2C319.2,26.1,319.5,26.2,319.9,26.2z M329.7,27.7 c-0.6,0-1-0.1-1.4-0.3c-0.4-0.2-0.7-0.5-0.9-1l-0.4,1.2h-1.4V12.9h2.1V18c0.2-0.4,0.5-0.7,0.9-1c0.4-0.3,0.8-0.4,1.4-0.4 c0.4,0,0.8,0.1,1.2,0.3c0.4,0.2,0.6,0.5,0.9,1c0.2,0.4,0.4,1,0.6,1.7c0.1,0.7,0.2,1.6,0.2,2.6c0,1.9-0.3,3.4-0.9,4.3 C331.4,27.3,330.6,27.7,329.7,27.7z M329.2,26.3c0.6,0,0.9-0.3,1.1-1c0.2-0.7,0.3-1.7,0.3-3.1c0-1.4-0.1-2.5-0.3-3.1 c-0.2-0.6-0.6-0.9-1.1-0.9c-0.4,0-0.7,0.1-0.9,0.4c-0.2,0.2-0.4,0.5-0.5,0.8v4.8c0,0.6,0.1,1.1,0.3,1.5 C328.3,26.1,328.7,26.3,329.2,26.3z M334.4,15.1v-2.3h2.2v2.3H334.4z M334.5,27.6V16.7h2.2v10.9H334.5z M338.6,27.6V12.9h2.1v14.7 H338.6z M342.7,15.1v-2.3h2.2v2.3H342.7z M342.7,27.6V16.7h2.2v10.9H342.7z M346.9,27.6V16.7h2.1v1.7c0.2-0.5,0.6-0.9,1-1.3 c0.5-0.4,1-0.5,1.6-0.5c0,0,0.1,0,0.1,0c0.1,0,0.1,0,0.1,0v1.9c-0.1,0-0.2,0-0.3-0.1c-0.1,0-0.3,0-0.4,0c-0.4,0-0.8,0.1-1.2,0.4 c-0.4,0.2-0.6,0.6-0.9,1v7.8H346.9z M357.3,27.6V12.9h3.2c0.4,1.9,0.8,3.6,1.1,5.1c0.1,0.6,0.3,1.3,0.4,1.9 c0.1,0.6,0.3,1.2,0.4,1.7c0.1,0.5,0.2,0.9,0.3,1.2c0.1,0.3,0.1,0.5,0.1,0.6c0-0.1,0-0.3,0.1-0.6c0.1-0.3,0.2-0.7,0.3-1.2 c0.1-0.5,0.2-1.1,0.4-1.7c0.1-0.6,0.3-1.3,0.4-1.9c0.4-1.5,0.7-3.2,1.2-5.1h3.1v14.7H366v-5.3c0-0.7,0-1.3,0-2c0-0.7,0-1.3,0-1.8 c0-0.5,0-1,0-1.3c0-0.4,0-0.6,0-0.7c0,0.1-0.1,0.3-0.1,0.7c-0.1,0.4-0.2,0.8-0.3,1.4c-0.1,0.5-0.3,1.1-0.4,1.8 c-0.2,0.7-0.3,1.3-0.5,2c-0.4,1.6-0.8,3.4-1.3,5.3h-1.7c-0.5-1.9-0.9-3.7-1.3-5.3c-0.2-0.7-0.3-1.3-0.5-2c-0.2-0.7-0.3-1.3-0.4-1.8 c-0.1-0.5-0.2-1-0.3-1.4c-0.1-0.4-0.1-0.6-0.1-0.7c0,0.2,0,0.5,0,0.9c0,0.4,0,0.9,0,1.5c0,0.6,0,1.2,0,1.8c0,0.7,0,1.3,0,2v5H357.3 z M373.8,27.8c-1.2,0-2.1-0.5-2.8-1.4c-0.7-1-1-2.4-1-4.2c0-1.8,0.3-3.2,1-4.1c0.7-1,1.6-1.5,2.8-1.5c1.2,0,2.1,0.5,2.8,1.4 c0.7,1,1,2.4,1,4.2c0,1.8-0.3,3.2-1,4.2C375.9,27.3,374.9,27.8,373.8,27.8z M373.8,26.2c0.3,0,0.5-0.1,0.7-0.2 c0.2-0.1,0.3-0.4,0.5-0.7c0.1-0.3,0.2-0.7,0.3-1.3c0.1-0.5,0.1-1.2,0.1-1.9c0-1.5-0.1-2.5-0.4-3.1c-0.3-0.6-0.6-0.9-1.2-0.9 c-0.5,0-0.9,0.3-1.1,0.9c-0.3,0.6-0.4,1.7-0.4,3.1c0,1.5,0.1,2.5,0.4,3.1C372.9,25.9,373.3,26.2,373.8,26.2z M381.7,27.7 c-0.9,0-1.6-0.4-2.2-1.3c-0.5-0.9-0.8-2.3-0.8-4.3c0-1.9,0.3-3.3,0.8-4.2c0.6-0.9,1.3-1.4,2.3-1.4c0.4,0,0.8,0.1,1.1,0.3 c0.3,0.2,0.6,0.4,0.8,0.7v-4.7h2.1v14.7h-2v-1.1c-0.3,0.4-0.6,0.7-0.9,0.9C382.7,27.6,382.3,27.7,381.7,27.7z M382.4,26.2 c0.4,0,0.7-0.1,0.9-0.4c0.2-0.2,0.4-0.5,0.5-0.8v-5.8c-0.1-0.3-0.3-0.6-0.5-0.8c-0.2-0.2-0.5-0.3-0.9-0.3c-0.5,0-0.9,0.3-1.1,0.9 c-0.2,0.6-0.3,1.7-0.3,3.1c0,0.8,0,1.5,0.1,2c0.1,0.5,0.1,0.9,0.3,1.2c0.1,0.3,0.3,0.5,0.4,0.6C382,26.2,382.2,26.2,382.4,26.2z M392.8,26.4c-0.6,0.9-1.4,1.3-2.6,1.3c-0.7,0-1.2-0.2-1.6-0.6c-0.4-0.4-0.7-1-0.7-1.9v-8.5h2.2V25c0,0.4,0.1,0.7,0.2,0.9 c0.2,0.2,0.4,0.3,0.8,0.3c0.4,0,0.6-0.1,0.9-0.3c0.2-0.2,0.4-0.5,0.6-0.8v-8.4h2.2v10.9h-2.1L392.8,26.4L392.8,26.4z M389.8,15.8 c-0.3,0-0.6-0.1-0.8-0.3c-0.2-0.2-0.4-0.5-0.4-0.8c0-0.3,0.1-0.6,0.3-0.8c0.2-0.2,0.5-0.3,0.8-0.3s0.6,0.1,0.8,0.3 c0.2,0.2,0.3,0.5,0.3,0.8c0,0.3-0.1,0.6-0.3,0.8C390.4,15.7,390.1,15.8,389.8,15.8z M393,15.8c-0.3,0-0.6-0.1-0.8-0.3 c-0.2-0.2-0.4-0.5-0.4-0.8c0-0.3,0.1-0.5,0.3-0.8c0.2-0.2,0.5-0.3,0.8-0.3s0.6,0.1,0.8,0.3c0.2,0.2,0.3,0.5,0.3,0.8 c0,0.3-0.1,0.6-0.3,0.8C393.6,15.7,393.3,15.8,393,15.8z M396.8,27.6V12.9h2.1v14.7H396.8z M401,27.6V12.9h2.1v14.7H401z M408.5,27.8c-1.2,0-2.2-0.5-2.9-1.4c-0.7-0.9-1-2.3-1-4.1c0-1.8,0.3-3.2,1-4.2c0.7-1,1.6-1.5,2.8-1.5c1.2,0,2.1,0.5,2.7,1.5 c0.6,1,0.9,2.4,0.9,4.2v0.5h-5.2c0,1.3,0.2,2.2,0.5,2.7c0.3,0.5,0.7,0.8,1.3,0.8c0.4,0,0.7-0.1,1-0.4c0.3-0.3,0.4-0.8,0.6-1.4 l1.8,0.2c-0.1,0.5-0.2,0.9-0.4,1.3c-0.2,0.4-0.4,0.7-0.7,1c-0.3,0.3-0.6,0.5-1,0.7C409.4,27.7,409,27.8,408.5,27.8z M410.1,21.4 c0-1.1-0.2-2-0.4-2.5c-0.2-0.5-0.6-0.8-1.1-0.8c-0.5,0-0.9,0.3-1.1,0.8c-0.3,0.5-0.4,1.4-0.5,2.5H410.1z M413.6,27.6V16.7h2.1v1.7 c0.2-0.5,0.6-0.9,1-1.3c0.5-0.4,1-0.5,1.6-0.5c0,0,0.1,0,0.1,0c0.1,0,0.1,0,0.1,0v1.9c-0.1,0-0.2,0-0.3-0.1c-0.1,0-0.3,0-0.4,0 c-0.4,0-0.8,0.1-1.2,0.4c-0.4,0.2-0.6,0.6-0.9,1v7.8H413.6z"></path> <g> <path class="st1" d="M23.1,64.4V49.7h2.3v12.9h4.3v1.8H23.1z"></path> <path class="st1" d="M30.2,59c0-3.6,1.5-5.7,3.8-5.7c2.5,0,3.5,2,3.6,5.7c0,0.2,0,0.3,0,0.5h-5.2c0,2.6,0.6,3.5,1.7,3.5 c0.8,0,1.3-0.6,1.6-1.9l1.8,0.2c-0.4,1.8-1.5,3.2-3.4,3.2C31.6,64.6,30.2,62.7,30.2,59z M35.5,58.2c-0.1-2.3-0.5-3.3-1.5-3.3 c-1,0-1.6,1-1.6,3.3H35.5z"></path> <path class="st1" d="M39.1,64.4V53.5h2.1V55c0.5-0.9,1.3-1.6,2.6-1.6c1.5,0,2.2,0.9,2.2,2.5v8.6h-2.1v-8.3c0-0.6-0.3-1-1-1 c-0.7,0-1.3,0.5-1.6,1.1v8.2H39.1z"></path> <path class="st1" d="M47.1,65.7c0-1.1,1-1.8,2.1-2.1c-1.3-0.4-1.8-1-1.8-1.8c0-0.8,0.5-1.5,1.6-1.8c-1-0.6-1.4-1.6-1.4-2.9 c0-2.3,1.5-3.6,3.3-3.6c0.5,0,1.1,0.1,1.6,0.4c0.2-1,0.9-1.6,2.1-1.6c0.1,0,0.3,0,0.4,0l0,1.7c-0.1,0-0.3-0.1-0.5-0.1 c-0.6,0-1,0.2-1.1,0.7c0.6,0.5,0.9,1.4,0.9,2.6c0,2.2-1.3,3.6-3.4,3.6c-0.4,0-0.9-0.1-1.1-0.2c-0.4,0-0.8,0.4-0.8,0.8 c0,0.6,0.8,0.8,2.7,1.1c2.6,0.3,3.7,1,3.7,2.7c0,1.8-1.5,3-4.5,3C48.7,68,47.1,67.2,47.1,65.7z M53.7,65.3c0-0.8-0.7-1.1-3.3-1.3 c-1,0.3-1.5,0.8-1.5,1.5c0,0.8,0.7,1.2,2.3,1.2C52.9,66.7,53.7,66.2,53.7,65.3z M52.4,57.1c0-1.5-0.4-2.3-1.3-2.3 c-0.9,0-1.3,0.8-1.3,2.2c0,1.6,0.5,2.3,1.3,2.3C52,59.3,52.4,58.6,52.4,57.1z"></path> <path class="st1" d="M56.8,61.7v-6.6h-1.3v-1.5h1.3l0.1-3h2v3h1.6v1.5h-1.6v6.6c0,0.8,0.3,1.2,1.1,1.2c0.3,0,0.6,0,0.8,0v1.6 c-0.4,0-0.9,0.1-1.4,0.1C57.6,64.5,56.8,63.6,56.8,61.7z"></path> <path class="st1" d="M62,64.4V49.7h2.1v5.2c0.5-0.8,1.3-1.5,2.6-1.5c1.5,0,2.2,1,2.2,2.4v8.7h-2.2v-8.3c0-0.7-0.3-1-0.9-1 c-0.7,0-1.3,0.5-1.7,1.1v8.2H62z"></path> <path class="st1" d="M74.9,58.3c0-3.2,0.8-6.3,2.5-9.1H79c-1.3,3.2-1.9,6.4-1.9,9.1c0,3,0.7,6.4,1.9,9.2h-1.6 C76,65.2,74.9,61.9,74.9,58.3z"></path> <path class="st1" d="M80.5,64.4V53.5h2.1V55c0.4-0.9,1.3-1.6,2.5-1.6c1,0,1.8,0.6,1.9,1.6c0.5-0.9,1.3-1.6,2.5-1.6 c0.9,0,1.5,0.3,1.8,0.9c0.3,0.4,0.3,0.9,0.3,1.5v8.6h-2.1v-8.3c0-0.7-0.3-1.1-0.8-1.1c-0.7,0-1.2,0.6-1.5,1.1v8.3H85v-8.3 c0-0.7-0.2-1.1-0.8-1.1c-0.7,0-1.1,0.5-1.5,1.1v8.2H80.5z"></path> <path class="st1" d="M93.5,64.4V53.5h2.1V55c0.4-0.9,1.3-1.6,2.5-1.6c1.1,0,1.8,0.6,1.9,1.6c0.5-0.9,1.3-1.6,2.5-1.6 c0.9,0,1.5,0.3,1.8,0.9c0.3,0.4,0.3,0.9,0.3,1.5v8.6h-2.1v-8.3c0-0.7-0.3-1.1-0.8-1.1c-0.7,0-1.2,0.6-1.5,1.1v8.3H98v-8.3 c0-0.7-0.2-1.1-0.8-1.1c-0.7,0-1.1,0.5-1.5,1.1v8.2H93.5z"></path> <path class="st1" d="M108.1,58.3c0-3-0.8-6.4-1.9-9.2h1.6c1.6,2.7,2.5,5.8,2.5,9.2c0,3.4-1,6.7-2.5,9.2h-1.6 C107.5,64.3,108.1,61,108.1,58.3z"></path> </g> <g> <path class="st1" d="M19.1,87V76.2h2.4v10.9c0,1.4,0.5,2.2,1.7,2.2c1.2,0,1.7-0.8,1.7-2.1V76.2h2v10.7c0,2.8-1.5,4.2-3.9,4.2 C20.5,91.1,19.1,89.7,19.1,87z"></path> <path class="st1" d="M28.2,90.9v-1.2l3.9-8.1l-3.6,0V80h6v1.3l-3.9,8.1h3.9v1.5H28.2z"></path> <path class="st1" d="M35.8,88.6V80h2.2v8.3c0,0.8,0.3,1.2,1.1,1.2c0.7,0,1.2-0.5,1.5-1.1V80h2.2v10.9h-2.1l0-1.2 C40.1,90.6,39.2,91,38,91C36.7,91,35.8,90.3,35.8,88.6z"></path> <path class="st1" d="M44.6,90.9V80h2.1v1.4c0.5-0.9,1.3-1.6,2.6-1.6c1.5,0,2.2,0.9,2.2,2.5v8.6h-2.1v-8.3c0-0.6-0.3-1-1-1 c-0.7,0-1.3,0.5-1.6,1.1v8.2H44.6z"></path> <path class="st1" d="M53.5,90.9V76.2h2.1v14.7H53.5z"></path> <path class="st1" d="M57.5,88.6V80h2.2v8.3c0,0.8,0.3,1.2,1.1,1.2c0.7,0,1.2-0.5,1.5-1.1V80h2.2v10.9h-2.1l0-1.2 C61.8,90.6,61,91,59.8,91C58.5,91,57.5,90.3,57.5,88.6z"></path> <path class="st1" d="M66.4,90.9V76.2h2.1v7.6v0.7l0.4-0.7l2.4-3.9h2.1L71,84l2.8,7h-2.3l-2-5.2l-1,1.3v3.9H66.4z"></path> <path class="st1" d="M78.9,84.8c0-3.2,0.8-6.3,2.5-9.1H83c-1.3,3.2-1.9,6.4-1.9,9.1c0,3,0.7,6.4,1.9,9.2h-1.6 C80,91.7,78.9,88.4,78.9,84.8z"></path> <path class="st1" d="M84.5,90.9V80h2.1v1.4c0.4-0.9,1.3-1.6,2.5-1.6c1.1,0,1.8,0.6,1.9,1.6c0.5-0.9,1.3-1.6,2.5-1.6 c0.9,0,1.5,0.3,1.8,0.9c0.3,0.4,0.3,0.9,0.3,1.5v8.6h-2.1v-8.3c0-0.8-0.3-1.1-0.8-1.1c-0.7,0-1.2,0.6-1.5,1.1v8.3H89v-8.3 c0-0.7-0.2-1.1-0.8-1.1c-0.7,0-1.1,0.5-1.5,1.1v8.2H84.5z"></path> <path class="st1" d="M97.5,90.9V80h2.1v1.4c0.4-0.9,1.3-1.6,2.5-1.6c1.1,0,1.8,0.6,1.9,1.6c0.5-0.9,1.3-1.6,2.5-1.6 c0.9,0,1.5,0.3,1.8,0.9c0.3,0.4,0.3,0.9,0.3,1.5v8.6h-2.1v-8.3c0-0.8-0.3-1.1-0.8-1.1c-0.7,0-1.2,0.6-1.5,1.1v8.3H102v-8.3 c0-0.7-0.2-1.1-0.8-1.1c-0.7,0-1.1,0.5-1.5,1.1v8.2H97.5z"></path> <path class="st1" d="M112.1,84.8c0-3-0.8-6.4-1.9-9.2h1.6c1.6,2.7,2.5,5.8,2.5,9.2c0,3.4-1,6.7-2.5,9.2h-1.6 C111.5,90.8,112.1,87.5,112.1,84.8z"></path> </g> <g> <path class="st1" d="M188.7,76.5c0.2-3.9,1.5-7.6,3.9-11.7h-5.5l0.2-1.8h7.3v1.5c-2.2,3.6-3.4,7.3-3.4,11.6c0,0.6,0,1.2,0,1.6 h-2.5C188.6,77.4,188.7,76.9,188.7,76.5z"></path> <path class="st1" d="M195.1,74.3l2-0.4c0.2,1.6,0.8,2.3,2.1,2.3c1.4,0,1.9-0.9,1.9-2.7c0-1.7-0.8-2.5-2.4-2.5h-1v-1.7h1 c1.4,0,2-0.8,2-2.5c0-1.5-0.5-2.2-1.6-2.2c-1,0-1.6,0.7-1.8,2l-1.9-0.3c0.4-2.3,2-3.4,3.9-3.4c2.4,0,3.7,1.5,3.7,3.6 c0,1.9-0.8,3.1-2.2,3.6c1.5,0.4,2.6,1.6,2.6,3.7c0,2.6-1.5,4.3-4.1,4.3C196.9,77.8,195.3,76.8,195.1,74.3z"></path> <path class="st1" d="M204.6,70.3c0-5.1,1.3-7.6,4.1-7.6c2.7,0,4.1,2.6,4.1,7.6c0,4.9-1.3,7.5-4.1,7.5 C205.9,77.9,204.6,75.2,204.6,70.3z M210.4,70.2c0-4.2-0.4-5.8-1.8-5.8c-1.4,0-1.8,1.6-1.8,5.8c0,4.4,0.5,5.9,1.8,5.9 S210.4,74.6,210.4,70.2z"></path> </g> <g> <path class="st1" d="M322.5,67.8c0-2.9,1.4-5.1,3.9-5.1c2.9,0,4.1,2.4,4.1,6.7c0,0.3,0,0.7,0,0.8c0,4.7-1.2,7.6-4.2,7.6 c-2.1,0-3.2-1.1-3.5-3.1l2-0.4c0.1,1.2,0.6,1.8,1.6,1.8c1.1,0,1.8-1.2,1.9-4.2c0-0.3,0-0.6,0-0.9c-0.4,0.9-1.4,1.4-2.4,1.4 C323.7,72.5,322.5,70.9,322.5,67.8z M328.2,69.5c0-0.3,0-1.2,0-1.6c0-2.5-0.6-3.5-1.8-3.5c-1.3,0-1.7,1.1-1.7,3.2 c0,0.1,0,0.2,0,0.2c0,2.4,0.7,3,1.7,3C327.2,70.9,327.8,70.3,328.2,69.5z"></path> <path class="st1" d="M333,76.5c0.2-3.9,1.5-7.6,3.9-11.7h-5.5l0.2-1.8h7.3v1.5c-2.2,3.6-3.4,7.3-3.4,11.6c0,0.6,0,1.2,0,1.6H333 C332.9,77.4,333,76.9,333,76.5z"></path> <path class="st1" d="M339.6,70.3c0-5.1,1.3-7.6,4.1-7.6c2.7,0,4.1,2.6,4.1,7.6c0,4.9-1.3,7.5-4.1,7.5 C341,77.9,339.6,75.2,339.6,70.3z M345.4,70.2c0-4.2-0.4-5.8-1.8-5.8c-1.4,0-1.8,1.6-1.8,5.8c0,4.4,0.5,5.9,1.8,5.9 C345,76.2,345.4,74.6,345.4,70.2z"></path> </g> <g> <path class="st1" d="M453.3,77.7v-1.7h2.4V65.5c-0.2,0.2-1.7,0.6-2.3,0.9v-1.7c1.2-0.5,2.3-1.2,3-2l1.5,0v13.1h2.3v1.7H453.3z"></path> <path class="st1" d="M461.1,77.7v-1.6c4-4.7,5.4-6.8,5.4-9.5c0-1.4-0.5-2.1-1.6-2.1c-1,0-1.7,0.9-1.8,2.8L461,67 c0.3-2.7,1.8-4.2,4.1-4.2c2.3,0,3.8,1.4,3.8,3.8c0,2.9-2.3,5.9-5.4,9.4h5.3v1.8H461.1z"></path> <path class="st1" d="M470,74.1c0-1.9,0.9-3,2.3-4c-1.1-0.8-1.9-2-1.9-3.7c0-2.2,1.6-3.6,3.7-3.6c2.1,0,3.6,1.3,3.6,3.4 c0,1.7-0.8,2.8-2,3.6c1.3,0.9,2.4,2,2.4,4.2c0,2.3-1.6,4-4.1,4C471.6,77.9,470,76.4,470,74.1z M476,74c0-1.5-1-2.3-2.2-3.1 c-1,0.7-1.7,1.5-1.7,2.9c0,1.5,0.7,2.4,2,2.4C475.2,76.3,476,75.4,476,74z M475.8,66.3c0-1.2-0.6-1.9-1.7-1.9 c-1,0-1.6,0.7-1.6,1.9c0,1.4,0.9,1.8,1.8,2.5C475.2,68.2,475.8,67.4,475.8,66.3z"></path> <path class="st1" d="M479.3,70.3c0-5.1,1.3-7.6,4.1-7.6c2.7,0,4.1,2.6,4.1,7.6c0,4.9-1.3,7.5-4.1,7.5 C480.6,77.9,479.3,75.2,479.3,70.3z M485.1,70.2c0-4.2-0.4-5.8-1.8-5.8c-1.4,0-1.8,1.6-1.8,5.8c0,4.4,0.5,5.9,1.8,5.9 C484.7,76.2,485.1,74.6,485.1,70.2z"></path> </g> <line class="st0" x1="0" y1="130.2" x2="269.5" y2="130.2"></line> <line class="st0" x1="0.7" y1="207.7" x2="0.7" y2="130.8"></line> <line class="st0" x1="269.5" y1="130.2" x2="539" y2="130.2"></line> <line class="st0" x1="269.5" y1="207.7" x2="269.5" y2="130.8"></line> <line class="st0" x1="538.3" y1="207.7" x2="538.3" y2="130.8"></line> <line class="st0" x1="0" y1="208.4" x2="269.5" y2="208.4"></line> <line class="st0" x1="0.7" y1="270.3" x2="0.7" y2="209.1"></line> <line class="st0" x1="269.5" y1="208.4" x2="539" y2="208.4"></line> <line class="st0" x1="269.5" y1="270.3" x2="269.5" y2="209.1"></line> <line class="st0" x1="538.3" y1="270.3" x2="538.3" y2="209.1"></line> <line class="st0" x1="0" y1="271" x2="269.5" y2="271"></line> <line class="st0" x1="269.5" y1="271" x2="539" y2="271"></line> <path class="st1" d="M55.5,161.6c-1.4,0-2.6-0.6-3.3-1.9c-0.8-1.2-1.2-3.1-1.2-5.7c0-2.4,0.4-4.3,1.1-5.6c0.8-1.3,1.9-2,3.3-2 c1.5,0,2.7,0.6,3.4,1.9c0.8,1.3,1.1,3.2,1.1,5.7c0,2.5-0.4,4.4-1.2,5.7C58,161,56.9,161.6,55.5,161.6z M55.5,159.8 c0.7,0,1.2-0.4,1.5-1.3c0.3-0.9,0.5-2.3,0.5-4.4c0-1,0-1.9-0.1-2.7c-0.1-0.7-0.2-1.4-0.3-1.8c-0.2-0.5-0.4-0.8-0.6-1 c-0.3-0.2-0.6-0.3-1-0.3c-0.8,0-1.3,0.5-1.6,1.4c-0.3,0.9-0.4,2.4-0.4,4.4c0,1.1,0,2,0.1,2.7c0.1,0.7,0.2,1.3,0.4,1.8 c0.2,0.5,0.4,0.8,0.7,1C54.9,159.7,55.2,159.8,55.5,159.8z M66,161.6c-0.5,0-1-0.1-1.3-0.3c-0.3-0.2-0.6-0.4-0.8-0.6v4.6h-2.1 v-14.7h2v1.4c0.2-0.4,0.5-0.7,0.8-1c0.4-0.3,0.9-0.5,1.5-0.5c0.5,0,0.9,0.1,1.2,0.3c0.4,0.2,0.7,0.5,0.9,1c0.2,0.4,0.4,1,0.5,1.7 c0.1,0.7,0.2,1.6,0.2,2.7c0,1-0.1,1.9-0.2,2.6c-0.2,0.7-0.4,1.3-0.6,1.7c-0.3,0.4-0.6,0.7-1,0.9C66.8,161.5,66.4,161.6,66,161.6z M65.3,160.1c0.2,0,0.5-0.1,0.6-0.2c0.2-0.1,0.3-0.3,0.4-0.6c0.1-0.3,0.2-0.7,0.3-1.2c0.1-0.5,0.1-1.2,0.1-2c0-0.8,0-1.4-0.1-1.9 c0-0.5-0.1-0.9-0.2-1.2c-0.1-0.3-0.2-0.5-0.4-0.7c-0.2-0.1-0.4-0.2-0.6-0.2c-0.4,0-0.6,0.1-0.9,0.3c-0.2,0.2-0.4,0.5-0.6,0.9v5.9 c0.1,0.2,0.3,0.4,0.5,0.6C64.7,160,65,160.1,65.3,160.1z M74.1,161.6c-1.2,0-2.2-0.5-2.9-1.4c-0.7-0.9-1-2.3-1-4.1 c0-1.8,0.3-3.2,1-4.2c0.7-1,1.6-1.5,2.8-1.5c1.2,0,2.1,0.5,2.7,1.5c0.6,1,0.9,2.4,0.9,4.2v0.5h-5.2c0,1.3,0.2,2.2,0.5,2.7 c0.3,0.5,0.7,0.8,1.3,0.8c0.4,0,0.7-0.1,1-0.4c0.3-0.3,0.4-0.8,0.6-1.4l1.8,0.2c-0.1,0.5-0.2,0.9-0.4,1.3c-0.2,0.4-0.4,0.7-0.7,1 c-0.3,0.3-0.6,0.5-1,0.7C75,161.5,74.5,161.6,74.1,161.6z M75.6,155.2c0-1.1-0.2-2-0.4-2.5c-0.2-0.5-0.6-0.8-1.1-0.8 c-0.5,0-0.9,0.3-1.1,0.8c-0.3,0.5-0.4,1.4-0.5,2.5H75.6z M79.1,161.4v-10.9h2.1v1.7c0.2-0.5,0.6-0.9,1-1.3c0.5-0.4,1-0.5,1.6-0.5 c0,0,0.1,0,0.1,0c0.1,0,0.1,0,0.1,0v1.9c-0.1,0-0.2,0-0.3-0.1c-0.1,0-0.3,0-0.4,0c-0.4,0-0.8,0.1-1.2,0.4c-0.4,0.2-0.6,0.6-0.9,1 v7.8H79.1z M87,161.5c-0.7,0-1.3-0.2-1.8-0.7c-0.5-0.5-0.7-1.2-0.7-2.1c0-1.1,0.3-1.9,0.9-2.6c0.6-0.6,1.5-1.1,2.5-1.4 c0.3-0.1,0.5-0.1,0.8-0.2c0.3-0.1,0.6-0.1,0.8-0.2c0,0,0-0.1,0-0.2c0-0.1,0-0.2,0-0.4c0-0.1,0-0.3,0-0.4c0-0.1,0-0.2,0-0.2 c0-0.5-0.1-0.8-0.3-1c-0.2-0.2-0.5-0.4-1-0.4c-0.5,0-0.9,0.1-1.1,0.4c-0.2,0.3-0.4,0.7-0.5,1.2l-2-0.3c0.2-0.9,0.6-1.6,1.2-2.2 c0.6-0.5,1.5-0.8,2.5-0.8c1.2,0,2,0.3,2.5,0.8c0.5,0.6,0.7,1.3,0.7,2.3v5.9c0,0.4,0,0.8,0,1.2c0,0.4,0.1,0.7,0.2,0.8h-2.1 c0-0.1-0.1-0.3-0.1-0.5c0-0.2,0-0.4,0-0.6c-0.3,0.4-0.6,0.7-1.1,0.9C88.2,161.4,87.7,161.5,87,161.5z M87.9,160.1 c0.4,0,0.8-0.1,1.1-0.4c0.3-0.2,0.5-0.5,0.7-0.9v-3.1c-0.4,0-0.8,0.1-1.1,0.3c-0.6,0.2-1,0.5-1.3,0.9c-0.3,0.4-0.5,0.9-0.5,1.6 c0,0.5,0.1,0.9,0.3,1.2C87.2,159.9,87.5,160.1,87.9,160.1z M96.5,161.5c-0.9,0-1.5-0.2-1.9-0.7c-0.4-0.4-0.6-1.2-0.6-2.1v-6.6h-1.3 v-1.5h1.3l0.1-3h2v3h1.6v1.5h-1.6v6.6c0,0.4,0.1,0.7,0.2,0.9c0.2,0.2,0.4,0.3,0.8,0.3c0.2,0,0.3,0,0.4,0c0.1,0,0.2,0,0.4,0v1.6 c-0.2,0-0.4,0.1-0.7,0.1C97,161.5,96.8,161.5,96.5,161.5z M99.1,148.9v-2.3h2.2v2.3H99.1z M99.2,161.4v-10.9h2.2v10.9H99.2z M103.3,161.4v-10.9h2.1v1.4c0.3-0.4,0.6-0.8,1-1.1c0.4-0.3,1-0.5,1.6-0.5c0.8,0,1.3,0.2,1.7,0.7c0.4,0.4,0.5,1,0.5,1.8v8.6H108 v-8.3c0-0.3-0.1-0.6-0.2-0.7c-0.2-0.2-0.4-0.3-0.8-0.3c-0.3,0-0.6,0.1-0.9,0.3c-0.3,0.2-0.5,0.5-0.7,0.8v8.2H103.3z M115.4,165 c-1.3,0-2.3-0.2-3-0.6c-0.7-0.4-1.1-0.9-1.1-1.7c0-0.6,0.2-1,0.6-1.4c0.4-0.4,0.9-0.6,1.5-0.8c-0.7-0.2-1.1-0.4-1.4-0.7 c-0.3-0.3-0.4-0.7-0.4-1.1c0-0.4,0.1-0.8,0.4-1.1c0.3-0.3,0.7-0.6,1.2-0.8c-0.5-0.3-0.8-0.7-1.1-1.2c-0.2-0.5-0.3-1.1-0.3-1.7 c0-0.6,0.1-1.1,0.3-1.5c0.2-0.4,0.4-0.8,0.7-1.1c0.3-0.3,0.6-0.5,1.1-0.7c0.4-0.2,0.8-0.2,1.3-0.2c0.2,0,0.5,0,0.8,0.1 c0.3,0.1,0.6,0.2,0.8,0.3c0.1-0.5,0.3-0.9,0.7-1.2c0.4-0.3,0.9-0.4,1.5-0.4c0,0,0.1,0,0.2,0c0.1,0,0.2,0,0.2,0l0,1.7 c0,0-0.1,0-0.2,0c-0.1,0-0.2,0-0.2,0c-0.6,0-1,0.2-1.1,0.7c0.3,0.2,0.5,0.6,0.7,1c0.2,0.5,0.3,1,0.3,1.6c0,1.1-0.3,2-0.9,2.6 c-0.6,0.6-1.4,1-2.5,1c-0.2,0-0.4,0-0.6-0.1c-0.2,0-0.4-0.1-0.5-0.1c-0.2,0-0.4,0.1-0.5,0.3c-0.2,0.1-0.2,0.3-0.2,0.5 c0,0.3,0.2,0.5,0.7,0.7c0.4,0.1,1.1,0.3,2.1,0.4c1.3,0.2,2.2,0.4,2.8,0.9c0.6,0.4,0.8,1,0.8,1.8c0,0.9-0.4,1.6-1.1,2.2 C118.1,164.7,116.9,165,115.4,165z M115.4,163.7c0.9,0,1.5-0.1,1.9-0.4c0.4-0.2,0.6-0.6,0.6-1c0-0.2-0.1-0.4-0.2-0.5 c-0.1-0.1-0.3-0.3-0.5-0.4c-0.3-0.1-0.6-0.2-1-0.3c-0.4-0.1-1-0.1-1.6-0.2c-1,0.3-1.5,0.8-1.5,1.5c0,0.4,0.2,0.7,0.5,0.9 C114,163.6,114.6,163.7,115.4,163.7z M115.3,156.3c0.9,0,1.3-0.8,1.3-2.3c0-0.7-0.1-1.3-0.3-1.7c-0.2-0.4-0.6-0.6-1-0.6 c-0.5,0-0.8,0.2-1,0.6c-0.2,0.4-0.3,0.9-0.3,1.6c0,0.8,0.1,1.4,0.3,1.8C114.5,156.2,114.9,156.3,115.3,156.3z M126.4,161.4v-12.9 h-2.6v-1.8h7.6v1.8h-2.7v12.9H126.4z M134.8,161.6c-1.2,0-2.2-0.5-2.9-1.4c-0.7-0.9-1-2.3-1-4.1c0-1.8,0.3-3.2,1-4.2 s1.6-1.5,2.8-1.5c1.2,0,2.1,0.5,2.7,1.5c0.6,1,0.9,2.4,0.9,4.2v0.5h-5.2c0,1.3,0.2,2.2,0.5,2.7c0.3,0.5,0.7,0.8,1.3,0.8 c0.4,0,0.7-0.1,1-0.4c0.3-0.3,0.4-0.8,0.6-1.4l1.8,0.2c-0.1,0.5-0.2,0.9-0.4,1.3c-0.2,0.4-0.4,0.7-0.7,1c-0.3,0.3-0.6,0.5-1,0.7 C135.7,161.5,135.2,161.6,134.8,161.6z M136.3,155.2c0-1.1-0.2-2-0.4-2.5c-0.2-0.5-0.6-0.8-1.1-0.8c-0.5,0-0.9,0.3-1.1,0.8 c-0.3,0.5-0.4,1.4-0.5,2.5H136.3z M139.8,161.4v-10.9h2.1v1.4c0.2-0.4,0.5-0.8,1-1.1s0.9-0.5,1.5-0.5c0.5,0,1,0.1,1.3,0.4 c0.3,0.3,0.5,0.7,0.6,1.2c0.2-0.4,0.6-0.8,1-1.1c0.4-0.3,0.9-0.5,1.5-0.5c0.9,0,1.5,0.3,1.8,0.9c0.1,0.2,0.2,0.4,0.3,0.7 c0.1,0.3,0.1,0.5,0.1,0.8v8.6h-2.1v-8.3c0-0.4-0.1-0.7-0.2-0.8c-0.1-0.2-0.3-0.2-0.7-0.2c-0.4,0-0.6,0.1-0.9,0.4 c-0.2,0.2-0.4,0.5-0.6,0.8v8.3h-2.1v-8.3c0-0.3-0.1-0.6-0.2-0.8c-0.1-0.2-0.3-0.3-0.6-0.3c-0.4,0-0.6,0.1-0.9,0.3 c-0.2,0.2-0.4,0.5-0.6,0.8v8.2H139.8z M157.1,161.6c-0.5,0-1-0.1-1.3-0.3c-0.3-0.2-0.6-0.4-0.8-0.6v4.6h-2.1v-14.7h2v1.4 c0.2-0.4,0.5-0.7,0.8-1c0.4-0.3,0.9-0.5,1.5-0.5c0.5,0,0.9,0.1,1.2,0.3c0.4,0.2,0.7,0.5,0.9,1c0.2,0.4,0.4,1,0.5,1.7 c0.1,0.7,0.2,1.6,0.2,2.7c0,1-0.1,1.9-0.2,2.6c-0.2,0.7-0.4,1.3-0.6,1.7c-0.3,0.4-0.6,0.7-1,0.9 C157.9,161.5,157.5,161.6,157.1,161.6z M156.4,160.1c0.2,0,0.5-0.1,0.6-0.2c0.2-0.1,0.3-0.3,0.4-0.6c0.1-0.3,0.2-0.7,0.3-1.2 c0.1-0.5,0.1-1.2,0.1-2c0-0.8,0-1.4-0.1-1.9c0-0.5-0.1-0.9-0.2-1.2c-0.1-0.3-0.2-0.5-0.4-0.7c-0.2-0.1-0.4-0.2-0.6-0.2 c-0.4,0-0.6,0.1-0.9,0.3c-0.2,0.2-0.4,0.5-0.6,0.9v5.9c0.1,0.2,0.3,0.4,0.5,0.6C155.8,160,156,160.1,156.4,160.1z M165.1,161.6 c-1.2,0-2.2-0.5-2.9-1.4c-0.7-0.9-1-2.3-1-4.1c0-1.8,0.3-3.2,1-4.2s1.6-1.5,2.8-1.5c1.2,0,2.1,0.5,2.7,1.5c0.6,1,0.9,2.4,0.9,4.2 v0.5h-5.2c0,1.3,0.2,2.2,0.5,2.7c0.3,0.5,0.7,0.8,1.3,0.8c0.4,0,0.7-0.1,1-0.4c0.3-0.3,0.4-0.8,0.6-1.4l1.8,0.2 c-0.1,0.5-0.2,0.9-0.4,1.3c-0.2,0.4-0.4,0.7-0.7,1c-0.3,0.3-0.6,0.5-1,0.7C166,161.5,165.6,161.6,165.1,161.6z M166.6,155.2 c0-1.1-0.2-2-0.4-2.5c-0.2-0.5-0.6-0.8-1.1-0.8c-0.5,0-0.9,0.3-1.1,0.8c-0.3,0.5-0.4,1.4-0.5,2.5H166.6z M170.2,161.4v-10.9h2.1 v1.7c0.2-0.5,0.6-0.9,1-1.3c0.5-0.4,1-0.5,1.6-0.5c0,0,0.1,0,0.1,0c0.1,0,0.1,0,0.1,0v1.9c-0.1,0-0.2,0-0.3-0.1c-0.1,0-0.3,0-0.4,0 c-0.4,0-0.8,0.1-1.2,0.4c-0.4,0.2-0.6,0.6-0.9,1v7.8H170.2z M178.1,161.5c-0.7,0-1.3-0.2-1.8-0.7c-0.5-0.5-0.7-1.2-0.7-2.1 c0-1.1,0.3-1.9,0.9-2.6c0.6-0.6,1.5-1.1,2.5-1.4c0.3-0.1,0.5-0.1,0.8-0.2c0.3-0.1,0.6-0.1,0.8-0.2c0,0,0-0.1,0-0.2 c0-0.1,0-0.2,0-0.4c0-0.1,0-0.3,0-0.4c0-0.1,0-0.2,0-0.2c0-0.5-0.1-0.8-0.3-1c-0.2-0.2-0.5-0.4-1-0.4c-0.5,0-0.9,0.1-1.1,0.4 c-0.2,0.3-0.4,0.7-0.5,1.2l-2-0.3c0.2-0.9,0.6-1.6,1.2-2.2c0.6-0.5,1.5-0.8,2.5-0.8c1.2,0,2,0.3,2.5,0.8c0.5,0.6,0.7,1.3,0.7,2.3 v5.9c0,0.4,0,0.8,0,1.2c0,0.4,0.1,0.7,0.2,0.8h-2.1c0-0.1-0.1-0.3-0.1-0.5c0-0.2,0-0.4,0-0.6c-0.3,0.4-0.6,0.7-1.1,0.9 C179.3,161.4,178.7,161.5,178.1,161.5z M178.9,160.1c0.4,0,0.8-0.1,1.1-0.4c0.3-0.2,0.5-0.5,0.7-0.9v-3.1c-0.4,0-0.8,0.1-1.1,0.3 c-0.6,0.2-1,0.5-1.3,0.9c-0.3,0.4-0.5,0.9-0.5,1.6c0,0.5,0.1,0.9,0.3,1.2C178.2,159.9,178.5,160.1,178.9,160.1z M187.6,161.5 c-0.9,0-1.5-0.2-1.9-0.7c-0.4-0.4-0.6-1.2-0.6-2.1v-6.6h-1.3v-1.5h1.3l0.1-3h2v3h1.6v1.5h-1.6v6.6c0,0.4,0.1,0.7,0.2,0.9 c0.2,0.2,0.4,0.3,0.8,0.3c0.2,0,0.3,0,0.4,0c0.1,0,0.2,0,0.4,0v1.6c-0.2,0-0.4,0.1-0.7,0.1C188.1,161.5,187.8,161.5,187.6,161.5z M195,160.2c-0.6,0.9-1.4,1.3-2.6,1.3c-0.7,0-1.2-0.2-1.6-0.6c-0.4-0.4-0.7-1-0.7-1.9v-8.5h2.2v8.3c0,0.4,0.1,0.7,0.2,0.9 c0.2,0.2,0.4,0.3,0.8,0.3c0.4,0,0.6-0.1,0.9-0.3c0.2-0.2,0.4-0.5,0.6-0.8v-8.4h2.2v10.9H195L195,160.2L195,160.2z M199,161.4v-10.9 h2.1v1.7c0.2-0.5,0.6-0.9,1-1.3c0.5-0.4,1-0.5,1.6-0.5c0,0,0.1,0,0.1,0c0.1,0,0.1,0,0.1,0v1.9c-0.1,0-0.2,0-0.3-0.1 c-0.1,0-0.3,0-0.4,0c-0.4,0-0.8,0.1-1.2,0.4c-0.4,0.2-0.6,0.6-0.9,1v7.8H199z M208.3,161.6c-1.2,0-2.2-0.5-2.9-1.4 c-0.7-0.9-1-2.3-1-4.1c0-1.8,0.3-3.2,1-4.2s1.6-1.5,2.8-1.5c1.2,0,2.1,0.5,2.7,1.5c0.6,1,0.9,2.4,0.9,4.2v0.5h-5.2 c0,1.3,0.2,2.2,0.5,2.7c0.3,0.5,0.7,0.8,1.3,0.8c0.4,0,0.7-0.1,1-0.4c0.3-0.3,0.4-0.8,0.6-1.4l1.8,0.2c-0.1,0.5-0.2,0.9-0.4,1.3 c-0.2,0.4-0.4,0.7-0.7,1c-0.3,0.3-0.6,0.5-1,0.7C209.2,161.5,208.8,161.6,208.3,161.6z M209.9,155.2c0-1.1-0.2-2-0.4-2.5 c-0.2-0.5-0.6-0.8-1.1-0.8c-0.5,0-0.9,0.3-1.1,0.8c-0.3,0.5-0.4,1.4-0.5,2.5H209.9z M216.2,161.6c-1.1,0-1.9-0.3-2.5-0.8 c-0.6-0.5-1-1.2-1.2-2.1l1.8-0.3c0.1,0.5,0.3,1,0.6,1.3c0.3,0.3,0.8,0.5,1.3,0.5c0.5,0,0.8-0.1,1.1-0.3c0.3-0.2,0.4-0.6,0.4-1 c0-0.5-0.2-1-0.6-1.3c-0.4-0.3-0.9-0.6-1.5-0.9c-0.4-0.2-0.8-0.4-1.2-0.6c-0.4-0.2-0.6-0.4-0.9-0.7c-0.2-0.3-0.4-0.6-0.6-0.9 c-0.1-0.3-0.2-0.7-0.2-1.2c0-0.5,0.1-0.9,0.3-1.2c0.2-0.4,0.4-0.7,0.7-0.9c0.3-0.2,0.6-0.4,1-0.6c0.4-0.1,0.8-0.2,1.3-0.2 c0.9,0,1.6,0.2,2.2,0.7c0.6,0.5,1,1.1,1.1,1.9l-1.8,0.4c-0.2-1-0.7-1.5-1.6-1.5c-0.4,0-0.7,0.1-1,0.3c-0.3,0.2-0.4,0.5-0.4,0.9 c0,0.3,0.1,0.5,0.2,0.7c0.1,0.2,0.3,0.3,0.4,0.5c0.2,0.1,0.4,0.3,0.7,0.4c0.3,0.1,0.6,0.3,0.9,0.4c0.4,0.2,0.8,0.4,1.1,0.6 c0.4,0.2,0.7,0.4,0.9,0.7c0.3,0.3,0.5,0.6,0.6,0.9c0.1,0.4,0.2,0.8,0.2,1.2c0,1-0.3,1.7-1,2.3C218.1,161.3,217.2,161.6,216.2,161.6 z"></path> <path class="st1" d="M71,188.1c-1.3-0.1-2.3-0.8-3-2c-0.7-1.2-1-3-1-5.5c0-2.5,0.4-4.4,1.1-5.7c0.8-1.3,1.9-2,3.4-2 c0.6,0,1.1,0.1,1.6,0.3c0.5,0.2,0.8,0.5,1.2,0.8c0.3,0.4,0.6,0.8,0.8,1.3c0.2,0.5,0.3,1.1,0.4,1.7l-2.2,0.5 c-0.1-0.9-0.3-1.6-0.5-2.1c-0.2-0.5-0.6-0.7-1.2-0.7c-0.7,0-1.2,0.4-1.5,1.3c-0.3,0.9-0.5,2.4-0.5,4.4c0,2,0.2,3.4,0.5,4.3 c0.3,0.9,0.8,1.4,1.6,1.4c0.6,0,1-0.2,1.3-0.6c0.3-0.4,0.5-1.1,0.6-2l2,0.2c-0.2,1.3-0.5,2.2-1.1,2.9c-0.6,0.7-1.4,1.1-2.4,1.2 l-0.2,0.6c0.1,0,0.2,0,0.3,0c0.1,0,0.2,0,0.3,0.1c0.8,0.2,1.1,0.7,1.1,1.4c0,0.5-0.2,0.9-0.5,1.2c-0.4,0.3-0.8,0.5-1.4,0.5 c-0.7,0-1.3-0.1-1.8-0.4l0.3-0.9c0.2,0.1,0.3,0.1,0.5,0.2c0.2,0.1,0.4,0.1,0.6,0.1c0.2,0,0.4-0.1,0.6-0.2c0.1-0.1,0.2-0.3,0.2-0.5 c0-0.5-0.3-0.7-0.9-0.7c-0.1,0-0.2,0-0.3,0c-0.1,0-0.2,0-0.2,0L71,188.1L71,188.1z M78.9,188c-0.7,0-1.3-0.2-1.8-0.7 c-0.5-0.5-0.7-1.2-0.7-2.1c0-1.1,0.3-1.9,0.9-2.6c0.6-0.6,1.5-1.1,2.5-1.4c0.3-0.1,0.5-0.1,0.8-0.2c0.3-0.1,0.6-0.1,0.8-0.2 c0,0,0-0.1,0-0.2c0-0.1,0-0.2,0-0.4c0-0.1,0-0.3,0-0.4c0-0.1,0-0.2,0-0.2c0-0.5-0.1-0.8-0.3-1c-0.2-0.2-0.5-0.4-1-0.4 c-0.5,0-0.9,0.1-1.1,0.4c-0.2,0.3-0.4,0.7-0.5,1.2l-2-0.3c0.2-0.9,0.6-1.6,1.2-2.2c0.6-0.5,1.5-0.8,2.5-0.8c1.2,0,2,0.3,2.5,0.8 c0.5,0.6,0.7,1.3,0.7,2.3v5.9c0,0.4,0,0.8,0,1.2c0,0.4,0.1,0.7,0.2,0.8h-2.1c0-0.1-0.1-0.3-0.1-0.5c0-0.2,0-0.4,0-0.6 c-0.3,0.4-0.6,0.7-1.1,0.9C80.1,187.9,79.5,188,78.9,188z M79.7,186.6c0.4,0,0.8-0.1,1.1-0.4c0.3-0.2,0.5-0.5,0.7-0.9v-3.1 c-0.4,0-0.8,0.1-1.1,0.3c-0.6,0.2-1,0.5-1.3,0.9c-0.3,0.4-0.5,0.9-0.5,1.6c0,0.5,0.1,0.9,0.3,1.2C79,186.4,79.4,186.6,79.7,186.6z M85.5,187.9v-14.7h2.1v14.7H85.5z M89.7,187.9v-10.9h2.2v10.9H89.7z M96.6,188.1c-1.1,0-1.9-0.3-2.5-0.8c-0.6-0.5-1-1.2-1.2-2.1 l1.8-0.3c0.1,0.5,0.3,1,0.6,1.3c0.3,0.3,0.8,0.5,1.3,0.5c0.5,0,0.8-0.1,1.1-0.3c0.3-0.2,0.4-0.6,0.4-1c0-0.5-0.2-1-0.6-1.3 c-0.4-0.3-0.9-0.6-1.5-0.9c-0.4-0.2-0.8-0.4-1.2-0.6c-0.4-0.2-0.6-0.4-0.9-0.7c-0.2-0.3-0.4-0.6-0.6-0.9c-0.1-0.3-0.2-0.7-0.2-1.2 c0-0.5,0.1-0.9,0.3-1.2c0.2-0.4,0.4-0.7,0.7-0.9c0.3-0.2,0.6-0.4,1-0.6c0.4-0.1,0.8-0.2,1.3-0.2c0.9,0,1.6,0.2,2.2,0.7 c0.6,0.5,1,1.1,1.1,1.9l-1.8,0.4c-0.2-1-0.7-1.5-1.6-1.5c-0.4,0-0.7,0.1-1,0.3c-0.3,0.2-0.4,0.5-0.4,0.9c0,0.3,0.1,0.5,0.2,0.7 c0.1,0.2,0.3,0.3,0.4,0.5c0.2,0.1,0.4,0.3,0.7,0.4c0.3,0.1,0.6,0.3,0.9,0.4c0.4,0.2,0.8,0.4,1.1,0.6c0.4,0.2,0.7,0.4,0.9,0.7 c0.3,0.3,0.5,0.6,0.6,0.9c0.1,0.4,0.2,0.8,0.2,1.2c0,1-0.3,1.7-1,2.3C98.5,187.8,97.7,188.1,96.6,188.1z M96.5,191.9 c-0.7,0-1.3-0.1-1.8-0.4l0.3-0.9c0.2,0.1,0.3,0.1,0.5,0.2c0.2,0.1,0.4,0.1,0.6,0.1c0.2,0,0.4-0.1,0.5-0.2c0.1-0.1,0.2-0.3,0.2-0.5 c0-0.5-0.3-0.7-0.9-0.7c-0.1,0-0.2,0-0.3,0c-0.1,0-0.2,0-0.2,0l0.5-1.6H97l-0.2,0.8c0.1,0,0.2,0,0.3,0c0.1,0,0.2,0,0.3,0.1 c0.8,0.2,1.2,0.6,1.2,1.4c0,0.5-0.2,0.9-0.5,1.2C97.6,191.7,97.1,191.9,96.5,191.9z M101.4,187.9v-10.9h2.1v1.4 c0.2-0.4,0.5-0.8,1-1.1c0.4-0.3,0.9-0.5,1.5-0.5c0.5,0,1,0.1,1.3,0.4c0.3,0.3,0.5,0.7,0.6,1.2c0.2-0.4,0.6-0.8,1-1.1 c0.4-0.3,0.9-0.5,1.5-0.5c0.9,0,1.5,0.3,1.8,0.9c0.1,0.2,0.2,0.4,0.3,0.7c0.1,0.3,0.1,0.5,0.1,0.8v8.6h-2.1v-8.3 c0-0.4-0.1-0.7-0.2-0.8c-0.1-0.2-0.3-0.2-0.7-0.2c-0.4,0-0.6,0.1-0.9,0.4c-0.2,0.2-0.4,0.5-0.6,0.8v8.3h-2.1v-8.3 c0-0.3-0.1-0.6-0.2-0.8c-0.1-0.2-0.3-0.3-0.6-0.3c-0.4,0-0.6,0.1-0.9,0.3c-0.2,0.2-0.4,0.5-0.6,0.8v8.2H101.4z M116.5,188 c-0.7,0-1.3-0.2-1.8-0.7c-0.5-0.5-0.7-1.2-0.7-2.1c0-1.1,0.3-1.9,0.9-2.6c0.6-0.6,1.5-1.1,2.5-1.4c0.3-0.1,0.5-0.1,0.8-0.2 c0.3-0.1,0.6-0.1,0.8-0.2c0,0,0-0.1,0-0.2c0-0.1,0-0.2,0-0.4c0-0.1,0-0.3,0-0.4c0-0.1,0-0.2,0-0.2c0-0.5-0.1-0.8-0.3-1 c-0.2-0.2-0.5-0.4-1-0.4c-0.5,0-0.9,0.1-1.1,0.4c-0.2,0.3-0.4,0.7-0.5,1.2l-2-0.3c0.2-0.9,0.6-1.6,1.2-2.2c0.6-0.5,1.5-0.8,2.5-0.8 c1.2,0,2,0.3,2.5,0.8c0.5,0.6,0.7,1.3,0.7,2.3v5.9c0,0.4,0,0.8,0,1.2c0,0.4,0.1,0.7,0.2,0.8h-2.1c0-0.1-0.1-0.3-0.1-0.5 c0-0.2,0-0.4,0-0.6c-0.3,0.4-0.6,0.7-1.1,0.9C117.6,187.9,117.1,188,116.5,188z M117.3,186.6c0.4,0,0.8-0.1,1.1-0.4 c0.3-0.2,0.5-0.5,0.7-0.9v-3.1c-0.4,0-0.8,0.1-1.1,0.3c-0.6,0.2-1,0.5-1.3,0.9c-0.3,0.4-0.5,0.9-0.5,1.6c0,0.5,0.1,0.9,0.3,1.2 C116.6,186.4,116.9,186.6,117.3,186.6z"></path> <path class="st1" d="M130.7,188.1c-1.3,0-2.4-0.3-3-1c-0.7-0.7-1.1-1.6-1.3-2.8l2-0.5c0.1,0.9,0.4,1.5,0.7,1.9 c0.4,0.4,0.9,0.6,1.6,0.6c0.6,0,1.1-0.2,1.4-0.5c0.4-0.4,0.5-0.9,0.5-1.5c0-0.4-0.1-0.7-0.2-0.9c-0.1-0.3-0.3-0.5-0.5-0.8 c-0.2-0.2-0.5-0.5-0.8-0.7c-0.3-0.2-0.7-0.5-1.1-0.7c-0.5-0.3-0.9-0.6-1.3-0.9c-0.4-0.3-0.8-0.6-1.1-0.9c-0.3-0.3-0.5-0.7-0.7-1.2 c-0.2-0.4-0.3-1-0.3-1.5c0-0.5,0.1-1,0.3-1.5c0.2-0.4,0.4-0.8,0.8-1.2c0.3-0.3,0.8-0.6,1.2-0.8c0.5-0.2,1-0.3,1.6-0.3 c1.1,0,2,0.3,2.7,0.9c0.6,0.6,1.1,1.4,1.2,2.5l-2.1,0.5c-0.2-1.4-0.8-2.1-1.9-2.1c-0.5,0-0.9,0.1-1.2,0.4c-0.3,0.3-0.5,0.7-0.5,1.2 c0,0.4,0,0.7,0.1,1c0.1,0.3,0.3,0.5,0.5,0.7c0.2,0.2,0.5,0.4,0.8,0.7c0.3,0.2,0.7,0.5,1.2,0.7c0.5,0.3,1,0.6,1.4,0.9 c0.4,0.3,0.7,0.6,1,1c0.3,0.4,0.5,0.7,0.6,1.2c0.1,0.4,0.2,0.9,0.2,1.5c0,1.3-0.4,2.3-1.1,3C133,187.8,132,188.1,130.7,188.1z M136.1,187.9v-10.9h2.2v10.9H136.1z M143.5,188.1c-1.2,0-2.1-0.5-2.7-1.4c-0.6-1-0.9-2.4-0.9-4.2c0-1.8,0.3-3.1,0.9-4.1 c0.6-1,1.5-1.5,2.7-1.5c1,0,1.7,0.3,2.3,1c0.5,0.6,0.9,1.6,1,2.7l-2,0.2c-0.1-0.8-0.2-1.3-0.4-1.7c-0.2-0.4-0.5-0.6-0.9-0.6 c-0.5,0-0.9,0.3-1.1,0.9c-0.2,0.6-0.3,1.6-0.3,3.1c0,1.5,0.1,2.5,0.3,3.1c0.2,0.6,0.6,0.9,1.1,0.9c0.4,0,0.7-0.2,0.9-0.5 c0.2-0.3,0.4-0.9,0.4-1.6l1.8,0.1c-0.1,1.1-0.4,2-1,2.6C145.2,187.8,144.5,188.1,143.5,188.1z M150.2,188c-0.7,0-1.3-0.2-1.8-0.7 c-0.5-0.5-0.7-1.2-0.7-2.1c0-1.1,0.3-1.9,0.9-2.6c0.6-0.6,1.5-1.1,2.5-1.4c0.3-0.1,0.5-0.1,0.8-0.2c0.3-0.1,0.6-0.1,0.8-0.2 c0,0,0-0.1,0-0.2c0-0.1,0-0.2,0-0.4c0-0.1,0-0.3,0-0.4c0-0.1,0-0.2,0-0.2c0-0.5-0.1-0.8-0.3-1c-0.2-0.2-0.5-0.4-1-0.4 c-0.5,0-0.9,0.1-1.1,0.4c-0.2,0.3-0.4,0.7-0.5,1.2l-2-0.3c0.2-0.9,0.6-1.6,1.2-2.2c0.6-0.5,1.5-0.8,2.5-0.8c1.2,0,2,0.3,2.5,0.8 c0.5,0.6,0.7,1.3,0.7,2.3v5.9c0,0.4,0,0.8,0,1.2c0,0.4,0.1,0.7,0.2,0.8h-2.1c0-0.1-0.1-0.3-0.1-0.5c0-0.2,0-0.4,0-0.6 c-0.3,0.4-0.6,0.7-1.1,0.9C151.3,187.9,150.8,188,150.2,188z M151,186.6c0.4,0,0.8-0.1,1.1-0.4c0.3-0.2,0.5-0.5,0.7-0.9v-3.1 c-0.4,0-0.8,0.1-1.1,0.3c-0.6,0.2-1,0.5-1.3,0.9c-0.3,0.4-0.5,0.9-0.5,1.6c0,0.5,0.1,0.9,0.3,1.2 C150.3,186.4,150.6,186.6,151,186.6z M156.7,187.9v-14.7h2.1v7.6v0.8l0.4-0.7l2.4-3.9h2.1l-2.5,3.9l2.8,7h-2.3l-2-5.2l-1,1.3v3.9 H156.7z M165.2,187.9v-14.7h2.1v14.7H165.2z M169.3,187.9v-10.9h2.2v10.9H169.3z M173.5,187.9v-14.7h2.1v7.6v0.8l0.4-0.7l2.4-3.9 h2.1L178,181l2.8,7h-2.3l-2-5.2l-1,1.3v3.9H173.5z M181.9,187.9v-14.7h2.1v14.7H181.9z M188.1,188c-0.7,0-1.3-0.2-1.8-0.7 c-0.5-0.5-0.7-1.2-0.7-2.1c0-1.1,0.3-1.9,0.9-2.6c0.6-0.6,1.5-1.1,2.5-1.4c0.3-0.1,0.5-0.1,0.8-0.2c0.3-0.1,0.6-0.1,0.8-0.2 c0,0,0-0.1,0-0.2c0-0.1,0-0.2,0-0.4c0-0.1,0-0.3,0-0.4c0-0.1,0-0.2,0-0.2c0-0.5-0.1-0.8-0.3-1c-0.2-0.2-0.5-0.4-1-0.4 c-0.5,0-0.9,0.1-1.1,0.4c-0.2,0.3-0.4,0.7-0.5,1.2l-2-0.3c0.2-0.9,0.6-1.6,1.2-2.2c0.6-0.5,1.5-0.8,2.5-0.8c1.2,0,2,0.3,2.5,0.8 c0.5,0.6,0.7,1.3,0.7,2.3v5.9c0,0.4,0,0.8,0,1.2c0,0.4,0.1,0.7,0.2,0.8h-2.1c0-0.1-0.1-0.3-0.1-0.5c0-0.2,0-0.4,0-0.6 c-0.3,0.4-0.6,0.7-1.1,0.9C189.2,187.9,188.7,188,188.1,188z M188.9,186.6c0.4,0,0.8-0.1,1.1-0.4c0.3-0.2,0.5-0.5,0.7-0.9v-3.1 c-0.4,0-0.8,0.1-1.1,0.3c-0.6,0.2-1,0.5-1.3,0.9c-0.3,0.4-0.5,0.9-0.5,1.6c0,0.5,0.1,0.9,0.3,1.2 C188.2,186.4,188.5,186.6,188.9,186.6z M194.7,187.9v-10.9h2.1v1.7c0.2-0.5,0.6-0.9,1-1.3c0.5-0.4,1-0.5,1.6-0.5c0,0,0.1,0,0.1,0 c0.1,0,0.1,0,0.1,0v1.9c-0.1,0-0.2,0-0.3-0.1c-0.1,0-0.3,0-0.4,0c-0.4,0-0.8,0.1-1.2,0.4c-0.4,0.2-0.6,0.6-0.9,1v7.8H194.7z M200.8,187.9v-10.9h2.2v10.9H200.8z"></path> <g> <path class="st1" d="M335.4,161.4l3.2-14.7h2.6l3.2,14.7H342l-0.8-4.1h-2.9l-0.8,4.1H335.4z M340.9,155.7c0,0-1.1-5.6-1.2-6.2 c0,0.7-1.1,6.2-1.1,6.2H340.9z"></path> <path class="st1" d="M345.4,161.4v-10.9h2.1v1.4c0.4-0.9,1.3-1.6,2.5-1.6c1.1,0,1.8,0.6,1.9,1.6c0.5-0.9,1.3-1.6,2.5-1.6 c0.9,0,1.5,0.3,1.8,0.9c0.3,0.4,0.3,0.9,0.3,1.5v8.6h-2.1v-8.3c0-0.8-0.3-1.1-0.8-1.1c-0.7,0-1.2,0.6-1.5,1.1v8.3h-2.1v-8.3 c0-0.7-0.2-1.1-0.8-1.1c-0.7,0-1.1,0.5-1.5,1.1v8.2H345.4z"></path> <path class="st1" d="M360.2,160.2l-0.4,1.2h-1.4v-14.7h2.1v5.1c0.4-0.7,1.2-1.4,2.3-1.4c1.8,0,2.8,1.5,2.8,5.5 c0,3.9-1.2,5.6-3.2,5.6C361.4,161.5,360.7,161.1,360.2,160.2z M363.4,156.1c0-2.8-0.3-4-1.4-4c-0.8,0-1.2,0.6-1.5,1.2v4.8 c0,1.3,0.4,2.1,1.4,2.1C363.1,160.1,363.4,158.8,363.4,156.1z"></path> <path class="st1" d="M367.3,148.9v-2.3h2.2v2.3H367.3z M367.3,161.4v-10.9h2.2v10.9H367.3z"></path> <path class="st1" d="M371.1,156.1c0-3.6,1.5-5.7,3.8-5.7c2.5,0,3.5,2,3.6,5.7c0,0.2,0,0.3,0,0.5h-5.2c0,2.6,0.6,3.5,1.7,3.5 c0.8,0,1.3-0.5,1.6-1.9l1.8,0.2c-0.4,1.8-1.5,3.2-3.4,3.2C372.5,161.6,371.1,159.7,371.1,156.1z M376.4,155.2 c-0.1-2.3-0.5-3.3-1.5-3.3c-1,0-1.6,1-1.6,3.3H376.4z"></path> <path class="st1" d="M380,161.4v-10.9h2.1v1.4c0.5-0.9,1.3-1.6,2.6-1.6c1.5,0,2.2,0.9,2.2,2.5v8.6h-2.1v-8.3c0-0.6-0.3-1-1-1 c-0.7,0-1.3,0.5-1.6,1.1v8.2H380z"></path> <path class="st1" d="M389.1,158.7v-6.6h-1.3v-1.5h1.3l0.1-3h2v3h1.6v1.5h-1.6v6.6c0,0.8,0.3,1.2,1.1,1.2c0.3,0,0.6,0,0.8,0v1.6 c-0.4,0-0.9,0.1-1.4,0.1C390,161.5,389.1,160.6,389.1,158.7z"></path> <path class="st1" d="M398.2,154.2c0-4.9,1.5-7.7,4.5-7.7c2.4,0,3.6,1.6,4,4.1l-2.2,0.4c-0.2-1.8-0.6-2.7-1.8-2.7 c-1.4,0-2,1.7-2,5.8c0,3.9,0.5,5.7,2,5.7c1.1,0,1.7-0.8,1.9-2.6l2,0.2c-0.3,2.7-1.7,4.2-4,4.2 C399.7,161.6,398.2,159.2,398.2,154.2z"></path> <path class="st1" d="M407.6,156c0-3.5,1.4-5.6,3.7-5.6c2.4,0,3.8,2,3.8,5.6c0,3.6-1.5,5.6-3.8,5.6 C409,161.6,407.6,159.6,407.6,156z M412.9,156c0-3-0.5-4-1.5-4c-1,0-1.5,1.1-1.5,4c0,2.9,0.4,4,1.5,4 C412.4,160.1,412.9,159,412.9,156z"></path> <path class="st1" d="M416.8,161.4v-10.9h2.1v1.4c0.5-0.9,1.3-1.6,2.6-1.6c1.5,0,2.2,0.9,2.2,2.5v8.6h-2.1v-8.3c0-0.6-0.3-1-1-1 c-0.7,0-1.3,0.5-1.6,1.1v8.2H416.8z"></path> <path class="st1" d="M425.2,156c0-3.7,1.2-5.6,3.2-5.6c0.9,0,1.5,0.5,1.9,1v-4.7h2.1v14.7h-2v-1.1c-0.6,0.8-1.2,1.3-2.2,1.3 C426.3,161.5,425.2,160,425.2,156z M430.3,158.9v-5.8c-0.3-0.6-0.6-1.1-1.4-1.1c-1.1,0-1.4,1.1-1.4,4.1c0,3.2,0.5,4.1,1.4,4.1 C429.6,160.1,430.1,159.5,430.3,158.9z"></path> <path class="st1" d="M434.4,148.9v-2.3h2.2v2.3H434.4z M434.4,161.4v-10.9h2.2v10.9H434.4z"></path> <path class="st1" d="M438.9,158.7v-6.6h-1.3v-1.5h1.3l0.1-3h2v3h1.6v1.5h-1.6v6.6c0,0.8,0.3,1.2,1.1,1.2c0.3,0,0.6,0,0.8,0v1.6 c-0.4,0-0.9,0.1-1.4,0.1C439.8,161.5,438.9,160.6,438.9,158.7z"></path> <path class="st1" d="M444.1,148.9v-2.3h2.2v2.3H444.1z M444.2,161.4v-10.9h2.2v10.9H444.2z"></path> <path class="st1" d="M447.9,156c0-3.5,1.4-5.6,3.7-5.6c2.4,0,3.8,2,3.8,5.6c0,3.6-1.5,5.6-3.8,5.6 C449.3,161.6,447.9,159.6,447.9,156z M453.2,156c0-3-0.5-4-1.5-4c-1,0-1.5,1.1-1.5,4c0,2.9,0.4,4,1.5,4 C452.7,160.1,453.2,159,453.2,156z"></path> <path class="st1" d="M457,161.4v-10.9h2.1v1.4c0.5-0.9,1.3-1.6,2.6-1.6c1.5,0,2.2,0.9,2.2,2.5v8.6h-2.1v-8.3c0-0.6-0.3-1-1-1 c-0.7,0-1.3,0.5-1.6,1.1v8.2H457z"></path> <path class="st1" d="M465,158.7l1.8-0.3c0.1,1.1,0.8,1.7,1.9,1.7c0.9,0,1.5-0.5,1.5-1.3c0-1.1-0.8-1.5-2.1-2.1 c-1.7-0.8-2.9-1.6-2.9-3.4c0-1.8,1.4-2.8,3.3-2.8c1.8,0,3,0.9,3.3,2.6l-1.8,0.4c-0.2-0.9-0.7-1.5-1.6-1.5c-0.8,0-1.3,0.4-1.3,1.2 c0,1,0.9,1.4,2.1,2c1.6,0.7,2.9,1.6,2.9,3.4c0,1.9-1.4,3.1-3.5,3.1C466.5,161.6,465.3,160.5,465,158.7z"></path> </g> <path class="st1" d="M354.1,188.1c-1.4,0-2.6-0.6-3.3-1.9c-0.8-1.2-1.2-3.1-1.2-5.7c0-2.4,0.4-4.3,1.1-5.6c0.8-1.3,1.9-2,3.3-2 c1.5,0,2.7,0.6,3.4,1.9c0.8,1.3,1.1,3.2,1.1,5.7c0,2.5-0.4,4.4-1.2,5.7C356.6,187.5,355.5,188.1,354.1,188.1z M354.1,186.3 c0.7,0,1.2-0.4,1.5-1.3c0.3-0.9,0.5-2.3,0.5-4.4c0-1,0-1.9-0.1-2.7c-0.1-0.7-0.2-1.4-0.3-1.8c-0.2-0.5-0.4-0.8-0.6-1 c-0.3-0.2-0.6-0.3-1-0.3c-0.8,0-1.3,0.5-1.6,1.4c-0.3,0.9-0.4,2.4-0.4,4.4c0,1.1,0,2,0.1,2.7c0.1,0.7,0.2,1.3,0.4,1.8 c0.2,0.5,0.4,0.8,0.7,1C353.4,186.2,353.8,186.3,354.1,186.3z M360.4,187.9v-10.9h2.1v1.7c0.2-0.5,0.6-0.9,1-1.3 c0.5-0.4,1-0.5,1.6-0.5c0,0,0.1,0,0.1,0c0.1,0,0.1,0,0.1,0v1.9c-0.1,0-0.2,0-0.3-0.1c-0.1,0-0.3,0-0.4,0c-0.4,0-0.8,0.1-1.2,0.4 c-0.4,0.2-0.6,0.6-0.9,1v7.8H360.4z M369.5,188c-0.9,0-1.5-0.2-1.9-0.7c-0.4-0.4-0.6-1.2-0.6-2.1v-6.6h-1.3v-1.5h1.3l0.1-3h2v3h1.6 v1.5h-1.6v6.6c0,0.4,0.1,0.7,0.2,0.9c0.2,0.2,0.4,0.3,0.8,0.3c0.2,0,0.3,0,0.4,0c0.1,0,0.2,0,0.4,0v1.6c-0.2,0-0.4,0.1-0.7,0.1 C370,188,369.8,188,369.5,188z M374.3,188c-0.7,0-1.3-0.2-1.8-0.7c-0.5-0.5-0.7-1.2-0.7-2.1c0-1.1,0.3-1.9,0.9-2.6 c0.6-0.6,1.5-1.1,2.5-1.4c0.3-0.1,0.5-0.1,0.8-0.2c0.3-0.1,0.6-0.1,0.8-0.2c0,0,0-0.1,0-0.2c0-0.1,0-0.2,0-0.4c0-0.1,0-0.3,0-0.4 c0-0.1,0-0.2,0-0.2c0-0.5-0.1-0.8-0.3-1c-0.2-0.2-0.5-0.4-1-0.4c-0.5,0-0.9,0.1-1.1,0.4c-0.2,0.3-0.4,0.7-0.5,1.2l-2-0.3 c0.2-0.9,0.6-1.6,1.2-2.2c0.6-0.5,1.5-0.8,2.5-0.8c1.2,0,2,0.3,2.5,0.8c0.5,0.6,0.7,1.3,0.7,2.3v5.9c0,0.4,0,0.8,0,1.2 c0,0.4,0.1,0.7,0.2,0.8H377c0-0.1-0.1-0.3-0.1-0.5c0-0.2,0-0.4,0-0.6c-0.3,0.4-0.6,0.7-1.1,0.9C375.4,187.9,374.9,188,374.3,188z M375.1,186.6c0.4,0,0.8-0.1,1.1-0.4c0.3-0.2,0.5-0.5,0.7-0.9v-3.1c-0.4,0-0.8,0.1-1.1,0.3c-0.6,0.2-1,0.5-1.3,0.9 c-0.3,0.4-0.5,0.9-0.5,1.6c0,0.5,0.1,0.9,0.3,1.2C374.4,186.4,374.7,186.6,375.1,186.6z M380.9,187.9v-10.9h2.1v1.4 c0.2-0.4,0.5-0.8,1-1.1c0.4-0.3,0.9-0.5,1.5-0.5c0.5,0,1,0.1,1.3,0.4c0.3,0.3,0.5,0.7,0.6,1.2c0.2-0.4,0.6-0.8,1-1.1 c0.4-0.3,0.9-0.5,1.5-0.5c0.9,0,1.5,0.3,1.8,0.9c0.1,0.2,0.2,0.4,0.3,0.7c0.1,0.3,0.1,0.5,0.1,0.8v8.6h-2.1v-8.3 c0-0.4-0.1-0.7-0.2-0.8c-0.1-0.2-0.3-0.2-0.7-0.2c-0.4,0-0.6,0.1-0.9,0.4c-0.2,0.2-0.4,0.5-0.6,0.8v8.3h-2.1v-8.3 c0-0.3-0.1-0.6-0.2-0.8c-0.1-0.2-0.3-0.3-0.6-0.3c-0.4,0-0.6,0.1-0.9,0.3c-0.2,0.2-0.4,0.5-0.6,0.8v8.2H380.9z M398.2,187.9v-14.7 h2.3v6.7l3.6-6.7h2.2l-2.9,5.4l3.4,9.3h-2.5l-2.5-6.9l-1.4,2.3v4.6H398.2z M411,188.1c-1.2,0-2.1-0.5-2.8-1.4c-0.7-1-1-2.4-1-4.2 c0-1.8,0.3-3.2,1-4.1c0.7-1,1.6-1.5,2.8-1.5c1.2,0,2.1,0.5,2.8,1.4c0.7,1,1,2.4,1,4.2c0,1.8-0.3,3.2-1,4.2 C413.1,187.6,412.2,188.1,411,188.1z M411,186.6c0.3,0,0.5-0.1,0.7-0.2c0.2-0.1,0.3-0.4,0.5-0.7c0.1-0.3,0.2-0.7,0.3-1.3 c0.1-0.5,0.1-1.2,0.1-1.9c0-1.5-0.1-2.5-0.4-3.1c-0.3-0.6-0.6-0.9-1.2-0.9c-0.5,0-0.9,0.3-1.1,0.9c-0.3,0.6-0.4,1.7-0.4,3.1 c0,1.5,0.1,2.5,0.4,3.1C410.1,186.3,410.5,186.6,411,186.6z M419.2,188.1c-1.1,0-1.9-0.3-2.5-0.8c-0.6-0.5-1-1.2-1.2-2.1l1.8-0.3 c0.1,0.5,0.3,1,0.6,1.3c0.3,0.3,0.8,0.5,1.3,0.5c0.5,0,0.8-0.1,1.1-0.3c0.3-0.2,0.4-0.6,0.4-1c0-0.5-0.2-1-0.6-1.3 c-0.4-0.3-0.9-0.6-1.5-0.9c-0.4-0.2-0.8-0.4-1.2-0.6c-0.4-0.2-0.6-0.4-0.9-0.7c-0.2-0.3-0.4-0.6-0.6-0.9c-0.1-0.3-0.2-0.7-0.2-1.2 c0-0.5,0.1-0.9,0.3-1.2c0.2-0.4,0.4-0.7,0.7-0.9c0.3-0.2,0.6-0.4,1-0.6c0.4-0.1,0.8-0.2,1.3-0.2c0.9,0,1.6,0.2,2.2,0.7 c0.6,0.5,1,1.1,1.1,1.9l-1.8,0.4c-0.2-1-0.7-1.5-1.6-1.5c-0.4,0-0.7,0.1-1,0.3c-0.3,0.2-0.4,0.5-0.4,0.9c0,0.3,0.1,0.5,0.2,0.7 c0.1,0.2,0.3,0.3,0.4,0.5c0.2,0.1,0.4,0.3,0.7,0.4c0.3,0.1,0.6,0.3,0.9,0.4c0.4,0.2,0.8,0.4,1.1,0.6c0.4,0.2,0.7,0.4,0.9,0.7 c0.3,0.3,0.5,0.6,0.6,0.9c0.1,0.4,0.2,0.8,0.2,1.2c0,1-0.3,1.7-1,2.3C421.1,187.8,420.2,188.1,419.2,188.1z M419.1,191.9 c-0.7,0-1.3-0.1-1.8-0.4l0.3-0.9c0.2,0.1,0.3,0.1,0.5,0.2c0.2,0.1,0.4,0.1,0.6,0.1c0.2,0,0.4-0.1,0.5-0.2c0.1-0.1,0.2-0.3,0.2-0.5 c0-0.5-0.3-0.7-0.9-0.7c-0.1,0-0.2,0-0.3,0c-0.1,0-0.2,0-0.2,0l0.5-1.6h0.9l-0.2,0.8c0.1,0,0.2,0,0.3,0c0.1,0,0.2,0,0.3,0.1 c0.8,0.2,1.2,0.6,1.2,1.4c0,0.5-0.2,0.9-0.5,1.2C420.2,191.7,419.7,191.9,419.1,191.9z M428.8,186.7c-0.6,0.9-1.4,1.3-2.6,1.3 c-0.7,0-1.2-0.2-1.6-0.6c-0.4-0.4-0.7-1-0.7-1.9v-8.5h2.2v8.3c0,0.4,0.1,0.7,0.2,0.9c0.2,0.2,0.4,0.3,0.8,0.3 c0.4,0,0.6-0.1,0.9-0.3c0.2-0.2,0.4-0.5,0.6-0.8v-8.4h2.2v10.9h-2.1L428.8,186.7L428.8,186.7z M432.8,187.9v-14.7h2.1v14.7H432.8z M436.9,187.9v-14.7h2.1v14.7H436.9z M443.1,188c-0.7,0-1.3-0.2-1.8-0.7c-0.5-0.5-0.7-1.2-0.7-2.1c0-1.1,0.3-1.9,0.9-2.6 c0.6-0.6,1.5-1.1,2.5-1.4c0.3-0.1,0.5-0.1,0.8-0.2c0.3-0.1,0.6-0.1,0.8-0.2c0,0,0-0.1,0-0.2c0-0.1,0-0.2,0-0.4c0-0.1,0-0.3,0-0.4 c0-0.1,0-0.2,0-0.2c0-0.5-0.1-0.8-0.3-1c-0.2-0.2-0.5-0.4-1-0.4c-0.5,0-0.9,0.1-1.1,0.4c-0.2,0.3-0.4,0.7-0.5,1.2l-2-0.3 c0.2-0.9,0.6-1.6,1.2-2.2c0.6-0.5,1.5-0.8,2.5-0.8c1.2,0,2,0.3,2.5,0.8c0.5,0.6,0.7,1.3,0.7,2.3v5.9c0,0.4,0,0.8,0,1.2 c0,0.4,0.1,0.7,0.2,0.8h-2.1c0-0.1-0.1-0.3-0.1-0.5c0-0.2,0-0.4,0-0.6c-0.3,0.4-0.6,0.7-1.1,0.9C444.3,187.9,443.7,188,443.1,188z M443.9,186.6c0.4,0,0.8-0.1,1.1-0.4c0.3-0.2,0.5-0.5,0.7-0.9v-3.1c-0.4,0-0.8,0.1-1.1,0.3c-0.6,0.2-1,0.5-1.3,0.9 c-0.3,0.4-0.5,0.9-0.5,1.6c0,0.5,0.1,0.9,0.3,1.2C443.2,186.4,443.5,186.6,443.9,186.6z M449.7,187.9v-10.9h2.1v1.7 c0.2-0.5,0.6-0.9,1-1.3c0.5-0.4,1-0.5,1.6-0.5c0,0,0.1,0,0.1,0c0.1,0,0.1,0,0.1,0v1.9c-0.1,0-0.2,0-0.3-0.1c-0.1,0-0.3,0-0.4,0 c-0.4,0-0.8,0.1-1.2,0.4c-0.4,0.2-0.6,0.6-0.9,1v7.8H449.7z M455.8,187.9v-10.9h2.2v10.9H455.8z"></path> <g> <path class="st1" d="M90,245.1v-14.7h3.2c0,0,2.3,10,2.4,10.4c0.1-0.4,2.4-10.4,2.4-10.4h3.1v14.7h-2.2c0,0,0-10.5,0-11.2 c-0.1,0.7-2.6,11.2-2.6,11.2h-1.7c0,0-2.5-10.3-2.6-11.2c0,1.5,0,11.2,0,11.2H90z"></path> <path class="st1" d="M102.8,245.1v-1.6c4-4.7,5.4-6.8,5.4-9.5c0-1.4-0.5-2.1-1.6-2.1c-1,0-1.7,0.9-1.8,2.8l-2.1-0.3 c0.3-2.7,1.8-4.2,4.1-4.2c2.3,0,3.8,1.4,3.8,3.8c0,2.9-2.3,5.9-5.4,9.4h5.3v1.8H102.8z"></path> <path class="st1" d="M116.3,239c0-3.2,0.8-6.3,2.5-9.1h1.6c-1.3,3.2-1.9,6.4-1.9,9.1c0,3,0.7,6.4,1.9,9.2h-1.6 C117.4,245.9,116.3,242.6,116.3,239z"></path> <path class="st1" d="M121.3,239.7v-1.9h4v1.9H121.3z"></path> <path class="st1" d="M126.3,245.1v-1.7h2.4V233c-0.2,0.2-1.7,0.6-2.3,0.9v-1.7c1.2-0.5,2.3-1.2,3-2l1.5,0v13.1h2.3v1.7H126.3z"></path> <path class="st1" d="M132.7,248.8l6.5-18.4h1.6l-6.5,18.4H132.7z"></path> <path class="st1" d="M145,241.5v-3h-2.9v-1.6h2.9v-3h1.7v3h2.9v1.6h-2.9v3H145z"></path> <path class="st1" d="M152.6,243.9c0.2-3.9,1.5-7.6,3.9-11.7H151l0.2-1.8h7.3v1.5c-2.2,3.6-3.4,7.3-3.4,11.6c0,0.6,0,1.2,0,1.6 h-2.5C152.6,244.9,152.6,244.3,152.6,243.9z"></path> </g> <g> <path class="st1" d="M165.5,233c0,1.6-1.3,2.8-2.9,2.8c-1.6,0-2.9-1.3-2.9-2.8c0-1.5,1.3-2.8,2.9-2.8 C164.1,230.2,165.5,231.4,165.5,233z M161,233c0,0.9,0.6,1.5,1.5,1.5c0.9,0,1.6-0.6,1.6-1.5c0-0.9-0.6-1.5-1.6-1.5 C161.6,231.5,161,232.1,161,233z"></path> </g> <g> <path class="st1" d="M166.9,237.8c0-4.9,1.5-7.7,4.5-7.7c2.4,0,3.6,1.6,4,4.1l-2.2,0.4c-0.2-1.8-0.6-2.7-1.8-2.7 c-1.4,0-2,1.7-2,5.8c0,3.9,0.5,5.7,2,5.7c1.1,0,1.7-0.8,1.9-2.6l2,0.2c-0.3,2.7-1.7,4.2-4,4.2 C168.4,245.3,166.9,242.9,166.9,237.8z"></path> <path class="st1" d="M178.2,239c0-3-0.8-6.4-1.9-9.2h1.6c1.6,2.7,2.5,5.8,2.5,9.2c0,3.4-1,6.7-2.5,9.2h-1.6 C177.7,245,178.2,241.7,178.2,239z"></path> </g> <g> <path class="st1" d="M287.2,247.1v-1.6c4-4.7,5.4-6.8,5.4-9.5c0-1.4-0.5-2.1-1.6-2.1c-1,0-1.7,0.9-1.8,2.8l-2.1-0.3 c0.3-2.7,1.8-4.2,4.1-4.2c2.3,0,3.8,1.4,3.8,3.8c0,2.9-2.3,5.9-5.4,9.4h5.3v1.8H287.2z"></path> <path class="st1" d="M296.1,243.9l2-0.5c0.3,1.4,0.8,2.1,1.8,2.1c1.2,0,1.9-1,1.9-3.4c0-2.2-0.5-3.3-1.8-3.3c-1,0-1.5,0.6-1.8,1.8 l-1.7-0.3l0.4-8h6.4l-0.2,1.8h-4.6l-0.2,4.1c0.4-0.8,1.3-1.2,2.3-1.2c2.1,0,3.4,1.7,3.4,4.9c0,3.4-1.7,5.3-4,5.3 C297.8,247.3,296.5,246,296.1,243.9z"></path> <path class="st1" d="M311.2,234.9c0,1.6-1.3,2.8-2.9,2.8c-1.6,0-2.9-1.3-2.9-2.8c0-1.5,1.3-2.8,2.9-2.8 C309.9,232.1,311.2,233.4,311.2,234.9z M306.7,235c0,0.9,0.6,1.5,1.5,1.5c0.9,0,1.6-0.6,1.6-1.5c0-0.9-0.6-1.5-1.6-1.5 C307.3,233.4,306.7,234.1,306.7,235z"></path> <path class="st1" d="M312.6,239.8c0-4.9,1.5-7.7,4.5-7.7c2.4,0,3.6,1.6,4,4.1l-2.2,0.4c-0.2-1.8-0.6-2.7-1.8-2.7 c-1.4,0-2,1.7-2,5.8c0,3.9,0.5,5.7,2,5.7c1.1,0,1.7-0.8,1.9-2.6l2,0.2c-0.3,2.7-1.7,4.2-4,4.2 C314.2,247.3,312.6,244.8,312.6,239.8z"></path> <path class="st1" d="M324.6,250.7l6.5-18.4h1.6l-6.5,18.4H324.6z"></path> <path class="st1" d="M337.9,240.3c0-0.1,0-0.5,0-0.7c0-4.5,1.3-7.5,4.3-7.5c2,0,3.1,1.2,3.5,3.3l-2,0.4c-0.2-1.3-0.7-2-1.6-2 c-1.3,0-2,1.4-2,4.5c0,0.2,0,0.6,0,0.8c0.5-1.1,1.5-1.7,2.6-1.7c2.2,0,3.4,1.9,3.4,4.7c0,3.1-1.5,5.1-4,5.1 C339.4,247.3,337.9,244.9,337.9,240.3z M343.8,242.5c0-0.1,0-0.2,0-0.3c0-2.1-0.6-3-1.7-3c-1.1,0-1.7,0.9-1.8,2.8 c0,0.1,0,0.2,0,0.3c0.1,2.3,0.8,3.3,1.9,3.3C343.1,245.6,343.8,244.7,343.8,242.5z"></path> <path class="st1" d="M347.1,239.7c0-5.1,1.3-7.6,4.1-7.6c2.7,0,4.1,2.6,4.1,7.6c0,4.9-1.3,7.5-4.1,7.5 C348.5,247.3,347.1,244.6,347.1,239.7z M352.9,239.6c0-4.2-0.4-5.8-1.8-5.8c-1.4,0-1.8,1.6-1.8,5.8c0,4.4,0.5,5.9,1.8,5.9 C352.5,245.6,352.9,244,352.9,239.6z"></path> <path class="st1" d="M356.4,236.5c0-2.7,1-4.3,2.6-4.3s2.7,1.4,2.7,4.3c0,2.6-1,4.3-2.7,4.3C357.4,240.8,356.4,239.3,356.4,236.5z M360,236.5c0-2.2-0.2-2.9-0.9-2.9c-0.7,0-0.9,0.8-0.9,3c0,2.3,0.2,3,0.9,3C359.8,239.5,360,238.7,360,236.5z M359.1,247.1 l6.2-14.7h1.3l-6.2,14.7H359.1z M364.1,242.9c0-2.7,0.9-4.3,2.7-4.3c1.7,0,2.7,1.4,2.7,4.3c0,2.6-1,4.3-2.7,4.3 S364.1,245.5,364.1,242.9z M367.7,242.8c0-2.2-0.2-2.9-0.9-2.9c-0.7,0-0.9,0.8-0.9,3c0,2.2,0.2,3,0.9,3 C367.5,245.9,367.7,245.1,367.7,242.8z"></path> <path class="st1" d="M375.3,247.1v-14.7h3.9c2.5,0,4.1,1.4,4.1,4c0,1.7-0.7,2.9-1.9,3.4l2.1,7.3h-2.4l-1.8-6.8c-0.3,0-0.5,0-0.8,0 h-0.9v6.8H375.3z M377.6,238.7h1.3c1.3,0,2-0.7,2-2.4c0-1.6-0.8-2.2-1.9-2.2h-1.4V238.7z"></path> <path class="st1" d="M385.3,247.1v-14.7h2.3v6.1h3.4v-6.1h2.3v14.7H391v-6.7h-3.4v6.7H385.3z"></path> <path class="st1" d="M399.7,240.9c0-3.2,0.8-6.3,2.5-9.1h1.6c-1.3,3.2-1.9,6.4-1.9,9.1c0,3,0.7,6.4,1.9,9.2h-1.6 C400.8,247.9,399.7,244.5,399.7,240.9z"></path> <path class="st1" d="M405.5,247.1v-14.7h6.9v1.8h-4.6v4.4h3.5v1.8h-3.5v4.9h4.7v1.8H405.5z"></path> <path class="st1" d="M414.3,247.1v-14.7h2.3l3.2,7.3c0.2,0.4,0.7,1.9,0.8,2.4c0-0.7,0-1.9,0-2.7c0-0.4,0-7,0-7h2v14.7h-2.1 l-3.4-7.5c-0.3-0.7-0.8-2.1-0.8-2.3c0,0.4,0.1,1.5,0.1,2.5c0,0.4,0,7.4,0,7.4H414.3z"></path> <path class="st1" d="M429.1,247.1v-14.7h2.4v14.7H429.1z"></path> <path class="st1" d="M432.9,243.5l2-0.5c0.2,1.7,0.9,2.5,2.4,2.5c1.2,0,1.9-0.7,1.9-2.1c0-1.4-0.9-2.1-2.6-3.1 c-1.8-1.1-3.3-2.2-3.3-4.5c0-2.1,1.5-3.7,3.9-3.7c2.3,0,3.5,1.4,3.9,3.4L439,236c-0.2-1.4-0.8-2.1-1.9-2.1c-1,0-1.6,0.6-1.6,1.6 c0,1.6,0.8,1.9,2.6,3.1c2,1.2,3.2,2.4,3.2,4.5c0,2.5-1.5,4.1-4.1,4.1C434.6,247.3,433.3,245.9,432.9,243.5z"></path> <path class="st1" d="M442.5,239.7c0-4.8,1.5-7.6,4.5-7.6c3,0,4.6,2.6,4.6,7.6c0,5-1.8,7.5-4.5,7.5 C444.1,247.3,442.5,244.8,442.5,239.7z M449,239.8c0-4.1-0.5-5.8-2.1-5.8c-1.5,0-2,1.7-2,5.8c0,4.2,0.6,5.8,2.1,5.8 C448.4,245.5,449,243.9,449,239.8z"></path> <path class="st1" d="M456.8,247.1v-1.6c4-4.7,5.4-6.8,5.4-9.5c0-1.4-0.5-2.1-1.6-2.1c-1,0-1.7,0.9-1.8,2.8l-2.1-0.3 c0.3-2.7,1.8-4.2,4.1-4.2c2.3,0,3.8,1.4,3.8,3.8c0,2.9-2.3,5.9-5.4,9.4h5.3v1.8H456.8z"></path> <path class="st1" d="M465.6,243.7l2-0.4c0.2,1.6,0.8,2.3,2.1,2.3c1.4,0,1.9-0.9,1.9-2.7c0-1.7-0.8-2.5-2.4-2.5h-1v-1.7h1 c1.4,0,2-0.8,2-2.5c0-1.5-0.5-2.2-1.6-2.2c-1,0-1.6,0.7-1.9,2l-1.9-0.3c0.4-2.3,2-3.4,3.9-3.4c2.4,0,3.7,1.5,3.7,3.6 c0,1.9-0.8,3.1-2.2,3.6c1.5,0.4,2.6,1.6,2.6,3.7c0,2.6-1.5,4.3-4.1,4.3C467.4,247.2,465.8,246.2,465.6,243.7z"></path> <path class="st1" d="M474.9,237.2c0-2.9,1.4-5.1,3.9-5.1c2.9,0,4.1,2.4,4.1,6.7c0,0.3,0,0.7,0,0.8c0,4.7-1.2,7.6-4.2,7.6 c-2.1,0-3.2-1.1-3.5-3.1l2-0.4c0.1,1.2,0.6,1.8,1.6,1.8c1.1,0,1.8-1.2,1.9-4.2c0-0.3,0-0.6,0-0.9c-0.4,0.9-1.4,1.4-2.4,1.4 C476.2,241.9,474.9,240.3,474.9,237.2z M480.6,238.9c0-0.3,0-1.2,0-1.6c0-2.5-0.6-3.5-1.8-3.5c-1.3,0-1.7,1.1-1.7,3.2 c0,0.1,0,0.2,0,0.2c0,2.4,0.7,3,1.7,3C479.6,240.3,480.2,239.7,480.6,238.9z"></path> <path class="st1" d="M484,243.9l2-0.5c0.3,1.4,0.8,2.1,1.8,2.1c1.2,0,1.9-1,1.9-3.4c0-2.2-0.5-3.3-1.8-3.3c-1,0-1.5,0.6-1.9,1.8 l-1.7-0.3l0.4-8h6.4l-0.2,1.8h-4.6l-0.2,4.1c0.4-0.8,1.3-1.2,2.3-1.2c2.1,0,3.4,1.7,3.4,4.9c0,3.4-1.7,5.3-4,5.3 C485.8,247.3,484.4,246,484,243.9z"></path> <path class="st1" d="M492.8,243.7l2-0.4c0.2,1.6,0.8,2.3,2.1,2.3c1.4,0,1.9-0.9,1.9-2.7c0-1.7-0.8-2.5-2.4-2.5h-1v-1.7h1 c1.4,0,2-0.8,2-2.5c0-1.5-0.5-2.2-1.6-2.2c-1,0-1.6,0.7-1.8,2l-1.9-0.3c0.4-2.3,2-3.4,3.9-3.4c2.4,0,3.7,1.5,3.7,3.6 c0,1.9-0.8,3.1-2.2,3.6c1.5,0.4,2.6,1.6,2.6,3.7c0,2.6-1.5,4.3-4.1,4.3C494.6,247.2,493.1,246.2,492.8,243.7z"></path> <path class="st1" d="M502.1,241.7v-1.9h4v1.9H502.1z"></path> <path class="st1" d="M507,247.1v-1.6c4-4.7,5.4-6.8,5.4-9.5c0-1.4-0.5-2.1-1.6-2.1c-1,0-1.7,0.9-1.8,2.8l-2.1-0.3 c0.3-2.7,1.8-4.2,4.1-4.2c2.3,0,3.8,1.4,3.8,3.8c0,2.9-2.3,5.9-5.4,9.4h5.3v1.8H507z"></path> <path class="st1" d="M518,241c0-3-0.8-6.4-1.9-9.2h1.6c1.6,2.7,2.5,5.8,2.5,9.2c0,3.4-1,6.7-2.5,9.2H516 C517.4,247,518,243.7,518,241z"></path> </g> </g> <g> </g> <g> </g> <g> </g> <g> </g> <g> </g> <g> </g> </svg> 