<?xml version="1.0" encoding="UTF-8"?> <svg xmlns="http://www.w3.org/2000/svg" xmlns:xlink="http://www.w3.org/1999/xlink" version="1.1" id="Layer_1" x="0px" y="0px" viewBox="0 0 539 271" style="enable-background:new 0 0 539 271;" xml:space="preserve"> <style type="text/css"> .st0{fill:none;stroke:#939598;stroke-width:0.5;stroke-miterlimit:10;} .st1{fill:#6E6F72;} </style> <g> <line class="st0" x1="1.4" y1="177.5" x2="270.2" y2="177.5"></line> <line class="st0" x1="2" y1="228.5" x2="2" y2="178.1"></line> <line class="st0" x1="270.2" y1="177.5" x2="538.9" y2="177.5"></line> <line class="st0" x1="270.2" y1="228.5" x2="270.2" y2="178.1"></line> <line class="st0" x1="538.3" y1="228.5" x2="538.3" y2="178.1"></line> <line class="st0" x1="1.4" y1="229.1" x2="270.2" y2="229.1"></line> <line class="st0" x1="2" y1="270.4" x2="2" y2="229.7"></line> <line class="st0" x1="270.2" y1="229.1" x2="538.9" y2="229.1"></line> <line class="st0" x1="270.2" y1="270.4" x2="270.2" y2="229.7"></line> <line class="st0" x1="538.3" y1="270.4" x2="538.3" y2="229.7"></line> <line class="st0" x1="1.4" y1="271" x2="270.2" y2="271"></line> <line class="st0" x1="270.2" y1="271" x2="538.9" y2="271"></line> <path class="st1" d="M71.8,196.9c-1.2,0-2.1-0.5-2.7-1.6c-0.6-1-0.9-2.6-0.9-4.8c0-2,0.3-3.6,0.9-4.7c0.6-1.1,1.5-1.7,2.7-1.7 c1.2,0,2.2,0.5,2.8,1.6c0.6,1.1,0.9,2.7,0.9,4.7c0,2.1-0.3,3.7-1,4.7C73.8,196.4,72.9,196.9,71.8,196.9z M71.8,195.4 c0.6,0,1-0.4,1.2-1.1c0.3-0.7,0.4-2,0.4-3.7c0-0.9,0-1.6-0.1-2.2c-0.1-0.6-0.1-1.1-0.3-1.5c-0.1-0.4-0.3-0.7-0.5-0.9 c-0.2-0.2-0.5-0.3-0.8-0.3c-0.6,0-1,0.4-1.3,1.1c-0.2,0.8-0.4,2-0.4,3.7c0,0.9,0,1.6,0.1,2.2c0.1,0.6,0.2,1.1,0.3,1.5 c0.1,0.4,0.3,0.7,0.5,0.8C71.2,195.3,71.5,195.4,71.8,195.4z M80.2,196.9c-0.4,0-0.8-0.1-1-0.3c-0.3-0.2-0.5-0.4-0.7-0.5v3.9h-1.7 v-12.3h1.6v1.1c0.2-0.3,0.4-0.6,0.7-0.9c0.3-0.3,0.7-0.4,1.2-0.4c0.4,0,0.7,0.1,1,0.2c0.3,0.2,0.5,0.4,0.7,0.8 c0.2,0.4,0.3,0.9,0.4,1.5c0.1,0.6,0.1,1.3,0.1,2.2c0,0.9-0.1,1.6-0.2,2.2c-0.1,0.6-0.3,1.1-0.5,1.4c-0.2,0.4-0.5,0.6-0.8,0.8 C80.9,196.8,80.6,196.9,80.2,196.9z M79.7,195.6c0.2,0,0.4,0,0.5-0.1c0.1-0.1,0.3-0.3,0.4-0.5c0.1-0.3,0.2-0.6,0.2-1 c0-0.4,0.1-1,0.1-1.7c0-0.6,0-1.2-0.1-1.6c0-0.4-0.1-0.8-0.2-1c-0.1-0.3-0.2-0.4-0.3-0.5c-0.1-0.1-0.3-0.2-0.5-0.2 c-0.3,0-0.5,0.1-0.7,0.3c-0.2,0.2-0.4,0.4-0.5,0.7v4.9c0.1,0.2,0.3,0.3,0.4,0.5C79.2,195.5,79.4,195.6,79.7,195.6z M86.8,196.9 c-1,0-1.8-0.4-2.3-1.2c-0.5-0.8-0.8-1.9-0.8-3.5c0-1.5,0.3-2.7,0.8-3.5s1.3-1.2,2.3-1.2c1,0,1.7,0.4,2.2,1.2c0.5,0.8,0.7,2,0.7,3.5 v0.4h-4.2c0,1.1,0.1,1.8,0.4,2.3c0.2,0.4,0.6,0.7,1,0.7c0.3,0,0.6-0.1,0.8-0.4c0.2-0.2,0.4-0.6,0.5-1.2l1.4,0.2 c-0.1,0.4-0.2,0.7-0.3,1.1c-0.2,0.3-0.3,0.6-0.6,0.8c-0.2,0.2-0.5,0.4-0.8,0.6C87.5,196.8,87.1,196.9,86.8,196.9z M88,191.5 c0-0.9-0.1-1.6-0.3-2.1c-0.2-0.4-0.5-0.7-0.9-0.7c-0.4,0-0.7,0.2-0.9,0.7c-0.2,0.4-0.3,1.1-0.4,2.1H88z M90.8,196.7v-9.1h1.7v1.4 c0.2-0.4,0.4-0.8,0.8-1.1c0.4-0.3,0.8-0.4,1.3-0.4c0,0,0.1,0,0.1,0c0,0,0.1,0,0.1,0v1.6c-0.1,0-0.1,0-0.3,0c-0.1,0-0.2,0-0.4,0 c-0.4,0-0.7,0.1-1,0.3c-0.3,0.2-0.5,0.5-0.7,0.8v6.5H90.8z M97.2,196.8c-0.6,0-1.1-0.2-1.5-0.6c-0.4-0.4-0.6-1-0.6-1.8 c0-0.9,0.2-1.6,0.7-2.1c0.5-0.5,1.2-0.9,2.1-1.1c0.2-0.1,0.4-0.1,0.7-0.2c0.2-0.1,0.5-0.1,0.7-0.1c0,0,0-0.1,0-0.2 c0-0.1,0-0.2,0-0.3c0-0.1,0-0.2,0-0.3c0-0.1,0-0.1,0-0.2c0-0.4-0.1-0.7-0.3-0.9c-0.1-0.2-0.4-0.3-0.8-0.3c-0.4,0-0.7,0.1-0.9,0.3 c-0.2,0.2-0.3,0.6-0.4,1l-1.6-0.2c0.1-0.8,0.5-1.4,1-1.8c0.5-0.4,1.2-0.6,2-0.6c1,0,1.6,0.2,2,0.7c0.4,0.5,0.6,1.1,0.6,1.9v4.9 c0,0.4,0,0.7,0,1c0,0.3,0.1,0.6,0.1,0.7h-1.7c0-0.1-0.1-0.2-0.1-0.4c0-0.2,0-0.4,0-0.5c-0.2,0.3-0.5,0.6-0.9,0.7 C98.2,196.7,97.7,196.8,97.2,196.8z M97.9,195.6c0.3,0,0.6-0.1,0.9-0.3c0.2-0.2,0.4-0.4,0.5-0.7V192c-0.3,0-0.6,0.1-0.9,0.2 c-0.5,0.2-0.8,0.4-1.1,0.8c-0.3,0.3-0.4,0.8-0.4,1.3c0,0.4,0.1,0.8,0.2,1C97.3,195.5,97.6,195.6,97.9,195.6z M104.9,196.8 c-0.7,0-1.2-0.2-1.6-0.6c-0.3-0.4-0.5-1-0.5-1.8v-5.6h-1v-1.3h1l0.1-2.5h1.6v2.5h1.3v1.3h-1.3v5.5c0,0.3,0.1,0.6,0.2,0.8 c0.1,0.2,0.4,0.2,0.7,0.3c0.1,0,0.2,0,0.3,0c0.1,0,0.2,0,0.3,0v1.3c-0.1,0-0.3,0-0.5,0.1C105.3,196.8,105.1,196.8,104.9,196.8z M107,186.3v-1.9h1.8v1.9H107z M107,196.7v-9.1h1.8v9.1H107z M110.4,196.7v-9.1h1.7v1.2c0.2-0.4,0.5-0.7,0.8-1 c0.3-0.3,0.8-0.4,1.3-0.4c0.6,0,1.1,0.2,1.4,0.5c0.3,0.4,0.4,0.9,0.4,1.5v7.2h-1.7v-7c0-0.3-0.1-0.5-0.2-0.6 c-0.1-0.2-0.3-0.2-0.6-0.2c-0.3,0-0.5,0.1-0.7,0.3c-0.2,0.2-0.4,0.4-0.6,0.7v6.9H110.4z M120.2,199.7c-1,0-1.9-0.2-2.4-0.5 c-0.6-0.3-0.9-0.8-0.9-1.4c0-0.5,0.2-0.8,0.5-1.1c0.3-0.3,0.7-0.5,1.2-0.6c-0.5-0.1-0.9-0.3-1.1-0.6c-0.2-0.3-0.3-0.6-0.3-0.9 c0-0.3,0.1-0.6,0.3-0.9c0.2-0.3,0.5-0.5,0.9-0.6c-0.4-0.2-0.7-0.6-0.8-1c-0.2-0.4-0.3-0.9-0.3-1.5c0-0.5,0.1-0.9,0.2-1.3 c0.1-0.4,0.3-0.7,0.6-1s0.5-0.5,0.8-0.6c0.3-0.1,0.7-0.2,1-0.2c0.2,0,0.4,0,0.6,0.1c0.2,0,0.5,0.1,0.6,0.2c0.1-0.4,0.3-0.8,0.6-1 c0.3-0.2,0.7-0.4,1.2-0.4c0,0,0.1,0,0.2,0c0.1,0,0.1,0,0.2,0l0,1.4c0,0-0.1,0-0.2,0c-0.1,0-0.1,0-0.2,0c-0.5,0-0.8,0.2-0.9,0.6 c0.2,0.2,0.4,0.5,0.6,0.9c0.1,0.4,0.2,0.8,0.2,1.3c0,0.9-0.2,1.6-0.7,2.2c-0.5,0.5-1.2,0.8-2,0.8c-0.2,0-0.3,0-0.5,0 c-0.2,0-0.3-0.1-0.4-0.1c-0.1,0-0.3,0.1-0.4,0.2c-0.1,0.1-0.2,0.3-0.2,0.4c0,0.2,0.2,0.4,0.5,0.5c0.4,0.1,0.9,0.2,1.7,0.3 c1.1,0.1,1.8,0.4,2.3,0.7c0.5,0.3,0.7,0.8,0.7,1.5c0,0.7-0.3,1.3-0.9,1.8C122.3,199.5,121.4,199.7,120.2,199.7z M120.2,198.6 c0.7,0,1.2-0.1,1.5-0.3c0.3-0.2,0.5-0.5,0.5-0.9c0-0.2,0-0.3-0.1-0.4c-0.1-0.1-0.2-0.2-0.4-0.3c-0.2-0.1-0.5-0.2-0.8-0.2 c-0.3-0.1-0.8-0.1-1.3-0.2c-0.8,0.3-1.2,0.7-1.2,1.2c0,0.3,0.1,0.6,0.4,0.8C119,198.5,119.5,198.6,120.2,198.6z M120.1,192.5 c0.7,0,1.1-0.6,1.1-1.9c0-0.6-0.1-1.1-0.3-1.4c-0.2-0.3-0.5-0.5-0.8-0.5c-0.4,0-0.6,0.2-0.8,0.5c-0.2,0.3-0.3,0.8-0.3,1.4 c0,0.7,0.1,1.2,0.3,1.5C119.4,192.3,119.7,192.5,120.1,192.5z M129,196.7v-10.8h-2.1v-1.5h6.1v1.5h-2.1v10.8H129z M135.8,196.9 c-1,0-1.8-0.4-2.3-1.2c-0.5-0.8-0.8-1.9-0.8-3.5c0-1.5,0.3-2.7,0.8-3.5c0.6-0.8,1.3-1.2,2.3-1.2c1,0,1.7,0.4,2.2,1.2 c0.5,0.8,0.7,2,0.7,3.5v0.4h-4.2c0,1.1,0.1,1.8,0.4,2.3c0.2,0.4,0.6,0.7,1,0.7c0.3,0,0.6-0.1,0.8-0.4c0.2-0.2,0.4-0.6,0.5-1.2 l1.4,0.2c-0.1,0.4-0.2,0.7-0.3,1.1c-0.2,0.3-0.3,0.6-0.6,0.8c-0.2,0.2-0.5,0.4-0.8,0.6C136.5,196.8,136.2,196.9,135.8,196.9z M137,191.5c0-0.9-0.1-1.6-0.3-2.1c-0.2-0.4-0.5-0.7-0.9-0.7c-0.4,0-0.7,0.2-0.9,0.7c-0.2,0.4-0.3,1.1-0.4,2.1H137z M139.9,196.7 v-9.1h1.7v1.2c0.2-0.4,0.4-0.7,0.8-0.9c0.4-0.3,0.8-0.4,1.2-0.4c0.4,0,0.8,0.1,1.1,0.4c0.3,0.2,0.4,0.6,0.5,1 c0.2-0.4,0.5-0.7,0.8-1c0.3-0.3,0.8-0.4,1.2-0.4c0.7,0,1.2,0.3,1.5,0.8c0.1,0.2,0.2,0.4,0.2,0.6c0,0.2,0.1,0.4,0.1,0.7v7.2h-1.7 v-6.9c0-0.3-0.1-0.5-0.2-0.7c-0.1-0.1-0.3-0.2-0.5-0.2c-0.3,0-0.5,0.1-0.7,0.3c-0.2,0.2-0.4,0.4-0.5,0.6v6.9h-1.7v-6.9 c0-0.3,0-0.5-0.1-0.7c-0.1-0.2-0.3-0.2-0.5-0.2c-0.3,0-0.5,0.1-0.7,0.3c-0.2,0.2-0.4,0.4-0.5,0.7v6.9H139.9z M153.8,196.9 c-0.4,0-0.8-0.1-1-0.3c-0.3-0.2-0.5-0.4-0.7-0.5v3.9h-1.7v-12.3h1.6v1.1c0.2-0.3,0.4-0.6,0.7-0.9c0.3-0.3,0.7-0.4,1.2-0.4 c0.4,0,0.7,0.1,1,0.2c0.3,0.2,0.5,0.4,0.7,0.8c0.2,0.4,0.3,0.9,0.4,1.5c0.1,0.6,0.1,1.3,0.1,2.2c0,0.9-0.1,1.6-0.2,2.2 c-0.1,0.6-0.3,1.1-0.5,1.4c-0.2,0.4-0.5,0.6-0.8,0.8C154.5,196.8,154.2,196.9,153.8,196.9z M153.3,195.6c0.2,0,0.4,0,0.5-0.1 c0.1-0.1,0.3-0.3,0.4-0.5c0.1-0.3,0.2-0.6,0.2-1c0-0.4,0.1-1,0.1-1.7c0-0.6,0-1.2-0.1-1.6c0-0.4-0.1-0.8-0.2-1 c-0.1-0.3-0.2-0.4-0.3-0.5c-0.1-0.1-0.3-0.2-0.5-0.2c-0.3,0-0.5,0.1-0.7,0.3c-0.2,0.2-0.4,0.4-0.5,0.7v4.9c0.1,0.2,0.3,0.3,0.4,0.5 C152.7,195.5,153,195.6,153.3,195.6z M160.3,196.9c-1,0-1.8-0.4-2.3-1.2c-0.5-0.8-0.8-1.9-0.8-3.5c0-1.5,0.3-2.7,0.8-3.5 s1.3-1.2,2.3-1.2c1,0,1.7,0.4,2.2,1.2c0.5,0.8,0.7,2,0.7,3.5v0.4H159c0,1.1,0.1,1.8,0.4,2.3c0.2,0.4,0.6,0.7,1,0.7 c0.3,0,0.6-0.1,0.8-0.4c0.2-0.2,0.4-0.6,0.5-1.2l1.4,0.2c-0.1,0.4-0.2,0.7-0.3,1.1c-0.2,0.3-0.3,0.6-0.6,0.8 c-0.2,0.2-0.5,0.4-0.8,0.6C161.1,196.8,160.7,196.9,160.3,196.9z M161.6,191.5c0-0.9-0.1-1.6-0.3-2.1c-0.2-0.4-0.5-0.7-0.9-0.7 c-0.4,0-0.7,0.2-0.9,0.7c-0.2,0.4-0.3,1.1-0.4,2.1H161.6z M164.4,196.7v-9.1h1.7v1.4c0.2-0.4,0.4-0.8,0.8-1.1 c0.4-0.3,0.8-0.4,1.3-0.4c0,0,0.1,0,0.1,0c0,0,0.1,0,0.1,0v1.6c-0.1,0-0.1,0-0.3,0c-0.1,0-0.2,0-0.4,0c-0.4,0-0.7,0.1-1,0.3 c-0.3,0.2-0.5,0.5-0.7,0.8v6.5H164.4z M170.8,196.8c-0.6,0-1.1-0.2-1.5-0.6c-0.4-0.4-0.6-1-0.6-1.8c0-0.9,0.2-1.6,0.7-2.1 c0.5-0.5,1.2-0.9,2.1-1.1c0.2-0.1,0.4-0.1,0.7-0.2c0.2-0.1,0.5-0.1,0.7-0.1c0,0,0-0.1,0-0.2c0-0.1,0-0.2,0-0.3c0-0.1,0-0.2,0-0.3 c0-0.1,0-0.1,0-0.2c0-0.4-0.1-0.7-0.3-0.9c-0.1-0.2-0.4-0.3-0.8-0.3c-0.4,0-0.7,0.1-0.9,0.3c-0.2,0.2-0.3,0.6-0.4,1l-1.6-0.2 c0.1-0.8,0.5-1.4,1-1.8c0.5-0.4,1.2-0.6,2-0.6c1,0,1.6,0.2,2,0.7c0.4,0.5,0.6,1.1,0.6,1.9v4.9c0,0.4,0,0.7,0,1 c0,0.3,0.1,0.6,0.1,0.7h-1.7c0-0.1-0.1-0.2-0.1-0.4c0-0.2,0-0.4,0-0.5c-0.2,0.3-0.5,0.6-0.9,0.7 C171.7,196.7,171.3,196.8,170.8,196.8z M171.5,195.6c0.3,0,0.6-0.1,0.9-0.3c0.2-0.2,0.4-0.4,0.5-0.7V192c-0.3,0-0.6,0.1-0.9,0.2 c-0.5,0.2-0.8,0.4-1.1,0.8c-0.3,0.3-0.4,0.8-0.4,1.3c0,0.4,0.1,0.8,0.2,1C170.9,195.5,171.2,195.6,171.5,195.6z M178.5,196.8 c-0.7,0-1.2-0.2-1.6-0.6c-0.3-0.4-0.5-1-0.5-1.8v-5.6h-1v-1.3h1l0.1-2.5h1.6v2.5h1.3v1.3h-1.3v5.5c0,0.3,0.1,0.6,0.2,0.8 c0.1,0.2,0.4,0.2,0.7,0.3c0.1,0,0.2,0,0.3,0c0.1,0,0.2,0,0.3,0v1.3c-0.1,0-0.3,0-0.5,0.1C178.9,196.8,178.7,196.8,178.5,196.8z M184.5,195.7c-0.5,0.7-1.1,1.1-2.1,1.1c-0.5,0-1-0.2-1.3-0.5c-0.4-0.3-0.5-0.9-0.5-1.6v-7.1h1.8v7c0,0.3,0.1,0.6,0.2,0.8 c0.1,0.2,0.3,0.2,0.7,0.2c0.3,0,0.5-0.1,0.7-0.3c0.2-0.2,0.4-0.4,0.5-0.6v-7h1.8v9.1h-1.7L184.5,195.7L184.5,195.7z M187.7,196.7 v-9.1h1.7v1.4c0.2-0.4,0.4-0.8,0.8-1.1c0.4-0.3,0.8-0.4,1.3-0.4c0,0,0.1,0,0.1,0c0,0,0.1,0,0.1,0v1.6c-0.1,0-0.1,0-0.3,0 c-0.1,0-0.2,0-0.4,0c-0.4,0-0.7,0.1-1,0.3c-0.3,0.2-0.5,0.5-0.7,0.8v6.5H187.7z M195.2,196.9c-1,0-1.8-0.4-2.3-1.2 c-0.5-0.8-0.8-1.9-0.8-3.5c0-1.5,0.3-2.7,0.8-3.5c0.6-0.8,1.3-1.2,2.3-1.2c1,0,1.7,0.4,2.2,1.2c0.5,0.8,0.7,2,0.7,3.5v0.4h-4.2 c0,1.1,0.1,1.8,0.4,2.3c0.2,0.4,0.6,0.7,1,0.7c0.3,0,0.6-0.1,0.8-0.4c0.2-0.2,0.4-0.6,0.5-1.2l1.4,0.2c-0.1,0.4-0.2,0.7-0.3,1.1 c-0.2,0.3-0.3,0.6-0.6,0.8c-0.2,0.2-0.5,0.4-0.8,0.6C196,196.8,195.6,196.9,195.2,196.9z M196.5,191.5c0-0.9-0.1-1.6-0.3-2.1 c-0.2-0.4-0.5-0.7-0.9-0.7c-0.4,0-0.7,0.2-0.9,0.7c-0.2,0.4-0.3,1.1-0.4,2.1H196.5z M201.6,196.9c-0.8,0-1.5-0.2-2-0.6 c-0.5-0.4-0.8-1-0.9-1.8l1.5-0.3c0.1,0.4,0.2,0.8,0.5,1.1c0.3,0.3,0.6,0.4,1.1,0.4c0.4,0,0.7-0.1,0.9-0.3c0.2-0.2,0.3-0.5,0.3-0.8 c0-0.5-0.2-0.8-0.5-1.1c-0.3-0.2-0.7-0.5-1.2-0.7c-0.4-0.2-0.7-0.3-1-0.5c-0.3-0.2-0.5-0.4-0.7-0.6c-0.2-0.2-0.4-0.5-0.5-0.7 c-0.1-0.3-0.2-0.6-0.2-1c0-0.4,0.1-0.7,0.2-1c0.1-0.3,0.3-0.5,0.6-0.7c0.2-0.2,0.5-0.4,0.8-0.5c0.3-0.1,0.7-0.2,1-0.2 c0.7,0,1.3,0.2,1.8,0.6c0.5,0.4,0.8,0.9,0.9,1.6l-1.5,0.3c-0.1-0.8-0.6-1.2-1.3-1.2c-0.3,0-0.6,0.1-0.8,0.2 c-0.2,0.2-0.3,0.4-0.3,0.8c0,0.2,0,0.4,0.1,0.5c0.1,0.2,0.2,0.3,0.4,0.4c0.1,0.1,0.3,0.2,0.5,0.3c0.2,0.1,0.5,0.2,0.7,0.3 c0.3,0.1,0.6,0.3,0.9,0.5c0.3,0.2,0.5,0.4,0.7,0.6c0.2,0.2,0.4,0.5,0.5,0.8c0.1,0.3,0.2,0.6,0.2,1c0,0.8-0.3,1.4-0.8,1.9 C203.1,196.6,202.4,196.9,201.6,196.9z"></path> <path class="st1" d="M84.3,219c-1-0.1-1.8-0.7-2.4-1.7c-0.6-1-0.8-2.5-0.8-4.6c0-2.1,0.3-3.7,0.9-4.8c0.6-1.1,1.5-1.6,2.7-1.6 c0.5,0,0.9,0.1,1.3,0.2c0.4,0.2,0.7,0.4,1,0.7c0.3,0.3,0.5,0.7,0.6,1.1c0.2,0.4,0.3,0.9,0.4,1.4l-1.8,0.4c-0.1-0.8-0.2-1.3-0.4-1.7 c-0.2-0.4-0.5-0.6-1-0.6c-0.6,0-1,0.4-1.2,1.1c-0.2,0.8-0.4,2-0.4,3.7c0,1.6,0.1,2.8,0.4,3.6c0.2,0.8,0.7,1.2,1.3,1.2 c0.5,0,0.8-0.2,1.1-0.5c0.2-0.4,0.4-0.9,0.5-1.7l1.6,0.2c-0.1,1.1-0.4,1.9-0.9,2.5c-0.5,0.6-1.1,0.9-2,1l-0.1,0.5 c0.1,0,0.2,0,0.3,0c0.1,0,0.2,0,0.2,0.1c0.6,0.2,0.9,0.6,0.9,1.2c0,0.4-0.1,0.7-0.4,1c-0.3,0.3-0.7,0.4-1.1,0.4 c-0.6,0-1.1-0.1-1.4-0.4l0.3-0.7c0.1,0.1,0.3,0.1,0.4,0.2c0.1,0,0.3,0.1,0.5,0.1c0.2,0,0.3,0,0.5-0.1c0.1-0.1,0.2-0.2,0.2-0.4 c0-0.4-0.2-0.6-0.7-0.6c-0.1,0-0.2,0-0.3,0c-0.1,0-0.2,0-0.2,0L84.3,219L84.3,219z M90.7,219c-0.6,0-1.1-0.2-1.5-0.6 c-0.4-0.4-0.6-1-0.6-1.8c0-0.9,0.2-1.6,0.7-2.1c0.5-0.5,1.2-0.9,2.1-1.1c0.2-0.1,0.4-0.1,0.7-0.2c0.2-0.1,0.5-0.1,0.7-0.1 c0,0,0-0.1,0-0.2c0-0.1,0-0.2,0-0.3c0-0.1,0-0.2,0-0.3c0-0.1,0-0.1,0-0.2c0-0.4-0.1-0.7-0.3-0.9c-0.1-0.2-0.4-0.3-0.8-0.3 c-0.4,0-0.7,0.1-0.9,0.3c-0.2,0.2-0.3,0.6-0.4,1l-1.6-0.2c0.1-0.8,0.5-1.4,1-1.8c0.5-0.4,1.2-0.6,2-0.6c1,0,1.6,0.2,2,0.7 c0.4,0.5,0.6,1.1,0.6,1.9v4.9c0,0.4,0,0.7,0,1c0,0.3,0.1,0.6,0.1,0.7h-1.7c0-0.1-0.1-0.2-0.1-0.4c0-0.2,0-0.4,0-0.5 c-0.2,0.3-0.5,0.6-0.9,0.7C91.6,218.9,91.2,219,90.7,219z M91.3,217.7c0.3,0,0.6-0.1,0.9-0.3c0.2-0.2,0.4-0.4,0.5-0.7v-2.6 c-0.3,0-0.6,0.1-0.9,0.2c-0.5,0.2-0.8,0.4-1.1,0.8c-0.3,0.3-0.4,0.8-0.4,1.3c0,0.4,0.1,0.8,0.2,1C90.8,217.6,91,217.7,91.3,217.7z M96,218.9v-12.3h1.7v12.3H96z M99.4,218.9v-9.1h1.8v9.1H99.4z M105,219c-0.8,0-1.5-0.2-2-0.6c-0.5-0.4-0.8-1-0.9-1.8l1.5-0.3 c0.1,0.4,0.2,0.8,0.5,1.1c0.3,0.3,0.6,0.4,1.1,0.4c0.4,0,0.7-0.1,0.9-0.3c0.2-0.2,0.3-0.5,0.3-0.8c0-0.5-0.2-0.8-0.5-1.1 c-0.3-0.2-0.7-0.5-1.2-0.7c-0.4-0.2-0.7-0.3-1-0.5c-0.3-0.2-0.5-0.4-0.7-0.6c-0.2-0.2-0.4-0.5-0.5-0.7c-0.1-0.3-0.2-0.6-0.2-1 c0-0.4,0.1-0.7,0.2-1c0.1-0.3,0.3-0.5,0.6-0.7c0.2-0.2,0.5-0.4,0.8-0.5c0.3-0.1,0.7-0.2,1-0.2c0.7,0,1.3,0.2,1.8,0.6 c0.5,0.4,0.8,0.9,0.9,1.6l-1.5,0.3c-0.1-0.8-0.6-1.2-1.3-1.2c-0.3,0-0.6,0.1-0.8,0.2c-0.2,0.2-0.3,0.4-0.3,0.8c0,0.2,0,0.4,0.1,0.5 c0.1,0.2,0.2,0.3,0.4,0.4c0.1,0.1,0.3,0.2,0.5,0.3c0.2,0.1,0.5,0.2,0.7,0.3c0.3,0.1,0.6,0.3,0.9,0.5c0.3,0.2,0.5,0.4,0.7,0.6 c0.2,0.2,0.4,0.5,0.5,0.8c0.1,0.3,0.2,0.6,0.2,1c0,0.8-0.3,1.4-0.8,1.9C106.5,218.8,105.8,219,105,219z M104.9,222.2 c-0.6,0-1.1-0.1-1.4-0.4l0.3-0.7c0.1,0.1,0.3,0.1,0.4,0.2c0.1,0,0.3,0.1,0.5,0.1c0.2,0,0.3,0,0.4-0.1c0.1-0.1,0.2-0.2,0.2-0.4 c0-0.4-0.2-0.6-0.7-0.6c-0.1,0-0.1,0-0.2,0c-0.1,0-0.2,0-0.2,0l0.4-1.3h0.7l-0.2,0.7c0.1,0,0.2,0,0.2,0c0.1,0,0.2,0,0.2,0.1 c0.6,0.1,0.9,0.5,0.9,1.2c0,0.4-0.1,0.7-0.4,1C105.8,222,105.4,222.2,104.9,222.2z M108.8,218.9v-9.1h1.7v1.2 c0.2-0.4,0.4-0.7,0.8-0.9c0.4-0.3,0.8-0.4,1.2-0.4c0.4,0,0.8,0.1,1.1,0.4c0.3,0.2,0.4,0.6,0.5,1c0.2-0.4,0.5-0.7,0.8-1 c0.3-0.3,0.8-0.4,1.2-0.4c0.7,0,1.2,0.3,1.5,0.8c0.1,0.2,0.2,0.4,0.2,0.6c0,0.2,0.1,0.4,0.1,0.7v7.2h-1.7v-6.9 c0-0.3-0.1-0.5-0.2-0.7c-0.1-0.1-0.3-0.2-0.5-0.2c-0.3,0-0.5,0.1-0.7,0.3c-0.2,0.2-0.4,0.4-0.5,0.6v6.9h-1.7V212 c0-0.3,0-0.5-0.1-0.7c-0.1-0.2-0.3-0.2-0.5-0.2c-0.3,0-0.5,0.1-0.7,0.3c-0.2,0.2-0.4,0.4-0.5,0.7v6.9H108.8z M121,219 c-0.6,0-1.1-0.2-1.5-0.6c-0.4-0.4-0.6-1-0.6-1.8c0-0.9,0.2-1.6,0.7-2.1c0.5-0.5,1.2-0.9,2.1-1.1c0.2-0.1,0.4-0.1,0.7-0.2 c0.2-0.1,0.5-0.1,0.7-0.1c0,0,0-0.1,0-0.2c0-0.1,0-0.2,0-0.3c0-0.1,0-0.2,0-0.3c0-0.1,0-0.1,0-0.2c0-0.4-0.1-0.7-0.3-0.9 c-0.1-0.2-0.4-0.3-0.8-0.3c-0.4,0-0.7,0.1-0.9,0.3c-0.2,0.2-0.3,0.6-0.4,1l-1.6-0.2c0.1-0.8,0.5-1.4,1-1.8c0.5-0.4,1.2-0.6,2-0.6 c1,0,1.6,0.2,2,0.7c0.4,0.5,0.6,1.1,0.6,1.9v4.9c0,0.4,0,0.7,0,1c0,0.3,0.1,0.6,0.1,0.7h-1.7c0-0.1-0.1-0.2-0.1-0.4 c0-0.2,0-0.4,0-0.5c-0.2,0.3-0.5,0.6-0.9,0.7C121.9,218.9,121.5,219,121,219z M121.7,217.7c0.3,0,0.6-0.1,0.9-0.3 c0.2-0.2,0.4-0.4,0.5-0.7v-2.6c-0.3,0-0.6,0.1-0.9,0.2c-0.5,0.2-0.8,0.4-1.1,0.8c-0.3,0.3-0.4,0.8-0.4,1.3c0,0.4,0.1,0.8,0.2,1 C121.1,217.6,121.4,217.7,121.7,217.7z"></path> <path class="st1" d="M132.5,219c-1.1,0-1.9-0.3-2.5-0.8c-0.6-0.5-0.9-1.3-1.1-2.3l1.6-0.4c0.1,0.7,0.3,1.2,0.6,1.6 c0.3,0.3,0.7,0.5,1.3,0.5c0.5,0,0.9-0.1,1.1-0.4c0.3-0.3,0.4-0.7,0.4-1.3c0-0.3,0-0.6-0.1-0.8c-0.1-0.2-0.2-0.4-0.4-0.6 c-0.2-0.2-0.4-0.4-0.6-0.6c-0.3-0.2-0.5-0.4-0.9-0.6c-0.4-0.2-0.7-0.5-1-0.7c-0.3-0.2-0.6-0.5-0.8-0.8c-0.2-0.3-0.4-0.6-0.6-1 c-0.1-0.4-0.2-0.8-0.2-1.3c0-0.4,0.1-0.9,0.2-1.2c0.1-0.4,0.4-0.7,0.6-1c0.3-0.3,0.6-0.5,1-0.6c0.4-0.2,0.8-0.2,1.3-0.2 c0.9,0,1.6,0.3,2.2,0.8c0.5,0.5,0.8,1.2,1,2.1l-1.7,0.4c-0.2-1.2-0.7-1.8-1.5-1.8c-0.4,0-0.7,0.1-1,0.4c-0.2,0.2-0.4,0.6-0.4,1 c0,0.3,0,0.6,0.1,0.8c0.1,0.2,0.2,0.4,0.4,0.6c0.2,0.2,0.4,0.4,0.7,0.5c0.3,0.2,0.6,0.4,1,0.6c0.4,0.3,0.8,0.5,1.1,0.8 c0.3,0.3,0.6,0.5,0.8,0.8c0.2,0.3,0.4,0.6,0.5,1c0.1,0.4,0.2,0.8,0.2,1.2c0,1.1-0.3,1.9-0.9,2.5C134.3,218.7,133.5,219,132.5,219z M136.9,218.9v-9.1h1.8v9.1H136.9z M142.9,219c-0.9,0-1.7-0.4-2.2-1.2c-0.5-0.8-0.8-2-0.8-3.5c0-1.5,0.3-2.6,0.8-3.4 c0.5-0.8,1.2-1.2,2.2-1.2c0.8,0,1.4,0.3,1.8,0.8c0.4,0.5,0.7,1.3,0.8,2.3l-1.6,0.1c0-0.6-0.2-1.1-0.3-1.4c-0.2-0.3-0.4-0.5-0.7-0.5 c-0.4,0-0.7,0.3-0.9,0.8c-0.2,0.5-0.2,1.4-0.2,2.6c0,1.2,0.1,2.1,0.3,2.6s0.5,0.8,0.9,0.8c0.3,0,0.6-0.1,0.7-0.4 c0.2-0.3,0.3-0.7,0.4-1.3l1.4,0.1c-0.1,0.9-0.4,1.6-0.8,2.2C144.2,218.8,143.6,219,142.9,219z M148.2,219c-0.6,0-1.1-0.2-1.5-0.6 c-0.4-0.4-0.6-1-0.6-1.8c0-0.9,0.2-1.6,0.7-2.1c0.5-0.5,1.2-0.9,2.1-1.1c0.2-0.1,0.4-0.1,0.7-0.2c0.2-0.1,0.5-0.1,0.7-0.1 c0,0,0-0.1,0-0.2c0-0.1,0-0.2,0-0.3c0-0.1,0-0.2,0-0.3c0-0.1,0-0.1,0-0.2c0-0.4-0.1-0.7-0.3-0.9c-0.1-0.2-0.4-0.3-0.8-0.3 c-0.4,0-0.7,0.1-0.9,0.3c-0.2,0.2-0.3,0.6-0.4,1l-1.6-0.2c0.1-0.8,0.5-1.4,1-1.8c0.5-0.4,1.2-0.6,2-0.6c1,0,1.6,0.2,2,0.7 c0.4,0.5,0.6,1.1,0.6,1.9v4.9c0,0.4,0,0.7,0,1c0,0.3,0.1,0.6,0.1,0.7h-1.7c0-0.1-0.1-0.2-0.1-0.4c0-0.2,0-0.4,0-0.5 c-0.2,0.3-0.5,0.6-0.9,0.7C149.2,218.9,148.7,219,148.2,219z M148.9,217.7c0.3,0,0.6-0.1,0.9-0.3c0.2-0.2,0.4-0.4,0.5-0.7v-2.6 c-0.3,0-0.6,0.1-0.9,0.2c-0.5,0.2-0.8,0.4-1.1,0.8c-0.3,0.3-0.4,0.8-0.4,1.3c0,0.4,0.1,0.8,0.2,1 C148.3,217.6,148.6,217.7,148.9,217.7z M153.6,218.9v-12.3h1.7v6.4v0.6l0.3-0.6l2-3.2h1.7l-2,3.3l2.3,5.8h-1.8l-1.6-4.3l-0.8,1.1 v3.2H153.6z M160.4,218.9v-12.3h1.7v12.3H160.4z M163.7,218.9v-9.1h1.8v9.1H163.7z M167.1,218.9v-12.3h1.7v6.4v0.6l0.3-0.6l2-3.2 h1.7l-2,3.3l2.3,5.8h-1.8l-1.6-4.3l-0.8,1.1v3.2H167.1z M173.9,218.9v-12.3h1.7v12.3H173.9z M178.9,219c-0.6,0-1.1-0.2-1.5-0.6 c-0.4-0.4-0.6-1-0.6-1.8c0-0.9,0.2-1.6,0.7-2.1c0.5-0.5,1.2-0.9,2.1-1.1c0.2-0.1,0.4-0.1,0.7-0.2c0.2-0.1,0.5-0.1,0.7-0.1 c0,0,0-0.1,0-0.2c0-0.1,0-0.2,0-0.3c0-0.1,0-0.2,0-0.3c0-0.1,0-0.1,0-0.2c0-0.4-0.1-0.7-0.3-0.9c-0.1-0.2-0.4-0.3-0.8-0.3 c-0.4,0-0.7,0.1-0.9,0.3c-0.2,0.2-0.3,0.6-0.4,1l-1.6-0.2c0.1-0.8,0.5-1.4,1-1.8c0.5-0.4,1.2-0.6,2-0.6c1,0,1.6,0.2,2,0.7 c0.4,0.5,0.6,1.1,0.6,1.9v4.9c0,0.4,0,0.7,0,1c0,0.3,0.1,0.6,0.1,0.7h-1.7c0-0.1-0.1-0.2-0.1-0.4c0-0.2,0-0.4,0-0.5 c-0.2,0.3-0.5,0.6-0.9,0.7C179.8,218.9,179.4,219,178.9,219z M179.5,217.7c0.3,0,0.6-0.1,0.9-0.3c0.2-0.2,0.4-0.4,0.5-0.7v-2.6 c-0.3,0-0.6,0.1-0.9,0.2c-0.5,0.2-0.8,0.4-1.1,0.8c-0.3,0.3-0.4,0.8-0.4,1.3c0,0.4,0.1,0.8,0.2,1 C179,217.6,179.2,217.7,179.5,217.7z M184.2,218.9v-9.1h1.7v1.4c0.2-0.4,0.4-0.8,0.8-1.1c0.4-0.3,0.8-0.4,1.3-0.4c0,0,0.1,0,0.1,0 c0,0,0.1,0,0.1,0v1.6c-0.1,0-0.1,0-0.3,0c-0.1,0-0.2,0-0.4,0c-0.4,0-0.7,0.1-1,0.3c-0.3,0.2-0.5,0.5-0.7,0.8v6.5H184.2z M189.1,218.9v-9.1h1.8v9.1H189.1z"></path> <g> <path class="st1" d="M348.9,196.7l2.5-12.3h2.1l2.6,12.3h-2l-0.6-3.4h-2.4l-0.6,3.4H348.9z M353.3,191.9c0,0-0.9-4.7-1-5.2 c0,0.6-0.9,5.2-0.9,5.2H353.3z"></path> <path class="st1" d="M357,196.7v-9.1h1.7v1.2c0.3-0.7,1.1-1.3,2-1.3c0.8,0,1.4,0.5,1.6,1.4c0.4-0.7,1.1-1.4,2-1.4 c0.7,0,1.2,0.3,1.5,0.8c0.2,0.3,0.3,0.8,0.3,1.3v7.2h-1.7v-6.9c0-0.6-0.2-0.9-0.7-0.9c-0.6,0-0.9,0.5-1.2,0.9v6.9h-1.7v-6.9 c0-0.6-0.2-0.9-0.7-0.9c-0.6,0-0.9,0.4-1.2,0.9v6.9H357z"></path> <path class="st1" d="M368.9,195.7l-0.3,1h-1.1v-12.3h1.7v4.3c0.3-0.6,1-1.2,1.8-1.2c1.4,0,2.3,1.3,2.3,4.6c0,3.2-1,4.7-2.6,4.7 C369.9,196.8,369.3,196.5,368.9,195.7z M371.6,192.3c0-2.4-0.3-3.4-1.1-3.4c-0.6,0-1,0.5-1.2,1v4c0,1.1,0.4,1.8,1.1,1.8 C371.3,195.7,371.6,194.6,371.6,192.3z"></path> <path class="st1" d="M374.7,186.3v-1.9h1.8v1.9H374.7z M374.7,196.7v-9.1h1.8v9.1H374.7z"></path> <path class="st1" d="M377.7,192.3c0-3,1.2-4.8,3.1-4.8c2,0,2.9,1.7,2.9,4.8c0,0.1,0,0.3,0,0.4h-4.2c0,2.1,0.5,2.9,1.4,2.9 c0.6,0,1-0.5,1.3-1.6l1.4,0.2c-0.3,1.5-1.2,2.7-2.8,2.7C378.9,196.9,377.7,195.3,377.7,192.3z M382,191.5 c-0.1-1.9-0.4-2.7-1.2-2.7c-0.8,0-1.3,0.8-1.3,2.7H382z"></path> <path class="st1" d="M384.9,196.7v-9.1h1.7v1.2c0.4-0.7,1.1-1.3,2.1-1.3c1.2,0,1.8,0.8,1.8,2v7.2h-1.7v-7c0-0.5-0.2-0.8-0.8-0.8 c-0.5,0-1,0.4-1.3,0.9v6.9H384.9z"></path> <path class="st1" d="M392.3,194.5v-5.6h-1v-1.3h1l0.1-2.5h1.6v2.5h1.3v1.3H394v5.5c0,0.7,0.2,1,0.9,1c0.2,0,0.5,0,0.6,0v1.3 c-0.3,0-0.7,0.1-1.1,0.1C393,196.8,392.3,196.1,392.3,194.5z"></path> <path class="st1" d="M399.6,190.7c0-4.1,1.2-6.4,3.6-6.4c2,0,2.9,1.3,3.2,3.5l-1.8,0.4c-0.2-1.5-0.5-2.3-1.4-2.3 c-1.2,0-1.6,1.4-1.6,4.8c0,3.2,0.4,4.8,1.6,4.8c0.9,0,1.4-0.7,1.5-2.2l1.6,0.2c-0.3,2.3-1.4,3.5-3.3,3.5 C400.9,196.9,399.6,194.9,399.6,190.7z"></path> <path class="st1" d="M407.3,192.2c0-3,1.1-4.7,3-4.7c1.9,0,3.1,1.7,3.1,4.7c0,3-1.2,4.7-3.1,4.7 C408.4,196.9,407.3,195.2,407.3,192.2z M411.5,192.2c0-2.5-0.4-3.4-1.2-3.4c-0.8,0-1.2,0.9-1.2,3.4c0,2.5,0.4,3.4,1.2,3.4 C411.1,195.6,411.5,194.7,411.5,192.2z"></path> <path class="st1" d="M414.6,196.7v-9.1h1.7v1.2c0.4-0.7,1.1-1.3,2.1-1.3c1.2,0,1.8,0.8,1.8,2v7.2h-1.7v-7c0-0.5-0.2-0.8-0.8-0.8 c-0.5,0-1,0.4-1.3,0.9v6.9H414.6z"></path> <path class="st1" d="M421.5,192.2c0-3.1,1-4.7,2.6-4.7c0.7,0,1.2,0.4,1.6,0.8v-3.9h1.7v12.3h-1.6v-1c-0.5,0.7-1,1.1-1.8,1.1 C422.4,196.8,421.5,195.5,421.5,192.2z M425.6,194.6v-4.9c-0.2-0.5-0.5-0.9-1.1-0.9c-0.9,0-1.2,0.9-1.2,3.4c0,2.7,0.4,3.4,1.1,3.4 C425,195.6,425.4,195.1,425.6,194.6z"></path> <path class="st1" d="M428.9,186.3v-1.9h1.8v1.9H428.9z M428.9,196.7v-9.1h1.8v9.1H428.9z"></path> <path class="st1" d="M432.5,194.5v-5.6h-1v-1.3h1l0.1-2.5h1.6v2.5h1.3v1.3h-1.3v5.5c0,0.7,0.2,1,0.9,1c0.2,0,0.5,0,0.6,0v1.3 c-0.3,0-0.7,0.1-1.1,0.1C433.2,196.8,432.5,196.1,432.5,194.5z"></path> <path class="st1" d="M436.7,186.3v-1.9h1.8v1.9H436.7z M436.8,196.7v-9.1h1.8v9.1H436.8z"></path> <path class="st1" d="M439.8,192.2c0-3,1.1-4.7,3-4.7c1.9,0,3.1,1.7,3.1,4.7c0,3-1.2,4.7-3.1,4.7 C440.9,196.9,439.8,195.2,439.8,192.2z M444,192.2c0-2.5-0.4-3.4-1.2-3.4c-0.8,0-1.2,0.9-1.2,3.4c0,2.5,0.4,3.4,1.2,3.4 C443.7,195.6,444,194.7,444,192.2z"></path> <path class="st1" d="M447.2,196.7v-9.1h1.7v1.2c0.4-0.7,1.1-1.3,2.1-1.3c1.2,0,1.8,0.8,1.8,2v7.2H451v-7c0-0.5-0.2-0.8-0.8-0.8 c-0.5,0-1,0.4-1.3,0.9v6.9H447.2z"></path> <path class="st1" d="M453.6,194.5l1.5-0.3c0.1,0.9,0.6,1.5,1.5,1.5c0.7,0,1.2-0.4,1.2-1.1c0-0.9-0.7-1.3-1.7-1.8 c-1.4-0.7-2.3-1.3-2.3-2.9c0-1.5,1.2-2.4,2.6-2.4c1.4,0,2.4,0.8,2.7,2.2l-1.5,0.3c-0.1-0.8-0.6-1.2-1.3-1.2c-0.6,0-1.1,0.3-1.1,1 c0,0.8,0.7,1.2,1.7,1.6c1.3,0.6,2.3,1.3,2.3,2.9c0,1.6-1.1,2.6-2.8,2.6S453.8,196,453.6,194.5z"></path> </g> <path class="st1" d="M364,219c-1.2,0-2.1-0.5-2.7-1.6c-0.6-1-0.9-2.6-0.9-4.8c0-2,0.3-3.6,0.9-4.7c0.6-1.1,1.5-1.7,2.7-1.7 c1.2,0,2.2,0.5,2.8,1.6c0.6,1.1,0.9,2.7,0.9,4.7c0,2.1-0.3,3.7-1,4.7C366,218.5,365.1,219,364,219z M364,217.6c0.6,0,1-0.4,1.2-1.1 c0.3-0.7,0.4-2,0.4-3.7c0-0.9,0-1.6-0.1-2.2c-0.1-0.6-0.1-1.1-0.3-1.5c-0.1-0.4-0.3-0.7-0.5-0.9c-0.2-0.2-0.5-0.3-0.8-0.3 c-0.6,0-1,0.4-1.3,1.1c-0.2,0.8-0.4,2-0.4,3.7c0,0.9,0,1.6,0.1,2.2c0.1,0.6,0.2,1.1,0.3,1.5c0.1,0.4,0.3,0.7,0.5,0.8 C363.5,217.5,363.7,217.6,364,217.6z M369.1,218.9v-9.1h1.7v1.4c0.2-0.4,0.4-0.8,0.8-1.1c0.4-0.3,0.8-0.4,1.3-0.4c0,0,0.1,0,0.1,0 c0,0,0.1,0,0.1,0v1.6c-0.1,0-0.1,0-0.3,0c-0.1,0-0.2,0-0.4,0c-0.4,0-0.7,0.1-1,0.3c-0.3,0.2-0.5,0.5-0.7,0.8v6.5H369.1z M376.4,219 c-0.7,0-1.2-0.2-1.6-0.6c-0.3-0.4-0.5-1-0.5-1.8v-5.6h-1v-1.3h1l0.1-2.5h1.6v2.5h1.3v1.3h-1.3v5.5c0,0.3,0.1,0.6,0.2,0.8 c0.1,0.2,0.4,0.2,0.7,0.3c0.1,0,0.2,0,0.3,0c0.1,0,0.2,0,0.3,0v1.3c-0.1,0-0.3,0-0.5,0.1C376.9,219,376.7,219,376.4,219z M380.3,219c-0.6,0-1.1-0.2-1.5-0.6c-0.4-0.4-0.6-1-0.6-1.8c0-0.9,0.2-1.6,0.7-2.1c0.5-0.5,1.2-0.9,2.1-1.1 c0.2-0.1,0.4-0.1,0.7-0.2c0.2-0.1,0.5-0.1,0.7-0.1c0,0,0-0.1,0-0.2c0-0.1,0-0.2,0-0.3c0-0.1,0-0.2,0-0.3c0-0.1,0-0.1,0-0.2 c0-0.4-0.1-0.7-0.3-0.9c-0.1-0.2-0.4-0.3-0.8-0.3c-0.4,0-0.7,0.1-0.9,0.3c-0.2,0.2-0.3,0.6-0.4,1l-1.6-0.2c0.1-0.8,0.5-1.4,1-1.8 c0.5-0.4,1.2-0.6,2-0.6c1,0,1.6,0.2,2,0.7c0.4,0.5,0.6,1.1,0.6,1.9v4.9c0,0.4,0,0.7,0,1c0,0.3,0.1,0.6,0.1,0.7h-1.7 c0-0.1-0.1-0.2-0.1-0.4c0-0.2,0-0.4,0-0.5c-0.2,0.3-0.5,0.6-0.9,0.7C381.2,218.9,380.8,219,380.3,219z M381,217.7 c0.3,0,0.6-0.1,0.9-0.3c0.2-0.2,0.4-0.4,0.5-0.7v-2.6c-0.3,0-0.6,0.1-0.9,0.2c-0.5,0.2-0.8,0.4-1.1,0.8c-0.3,0.3-0.4,0.8-0.4,1.3 c0,0.4,0.1,0.8,0.2,1C380.4,217.6,380.7,217.7,381,217.7z M385.6,218.9v-9.1h1.7v1.2c0.2-0.4,0.4-0.7,0.8-0.9 c0.4-0.3,0.8-0.4,1.2-0.4c0.4,0,0.8,0.1,1.1,0.4c0.3,0.2,0.4,0.6,0.5,1c0.2-0.4,0.5-0.7,0.8-1c0.3-0.3,0.8-0.4,1.2-0.4 c0.7,0,1.2,0.3,1.5,0.8c0.1,0.2,0.2,0.4,0.2,0.6c0,0.2,0.1,0.4,0.1,0.7v7.2h-1.7v-6.9c0-0.3-0.1-0.5-0.2-0.7 c-0.1-0.1-0.3-0.2-0.5-0.2c-0.3,0-0.5,0.1-0.7,0.3c-0.2,0.2-0.4,0.4-0.5,0.6v6.9h-1.7V212c0-0.3,0-0.5-0.1-0.7 c-0.1-0.2-0.3-0.2-0.5-0.2c-0.3,0-0.5,0.1-0.7,0.3c-0.2,0.2-0.4,0.4-0.5,0.7v6.9H385.6z M399.6,218.9v-12.3h1.9v5.6l2.9-5.6h1.8 l-2.3,4.5l2.8,7.8h-2l-2-5.8l-1.1,1.9v3.8H399.6z M410,219c-1,0-1.7-0.4-2.2-1.2c-0.5-0.8-0.8-2-0.8-3.5c0-1.5,0.3-2.6,0.8-3.5 c0.5-0.8,1.3-1.2,2.2-1.2c1,0,1.7,0.4,2.3,1.2c0.5,0.8,0.8,2,0.8,3.5c0,1.5-0.3,2.7-0.8,3.5C411.7,218.6,410.9,219,410,219z M410,217.7c0.2,0,0.4-0.1,0.5-0.2c0.2-0.1,0.3-0.3,0.4-0.6c0.1-0.3,0.2-0.6,0.2-1.1c0-0.4,0.1-1,0.1-1.6c0-1.3-0.1-2.1-0.3-2.6 c-0.2-0.5-0.5-0.7-0.9-0.7c-0.4,0-0.7,0.3-0.9,0.8c-0.2,0.5-0.3,1.4-0.3,2.6c0,1.2,0.1,2.1,0.3,2.6 C409.3,217.5,409.6,217.7,410,217.7z M416.6,219c-0.8,0-1.5-0.2-2-0.6c-0.5-0.4-0.8-1-0.9-1.8l1.5-0.3c0.1,0.4,0.2,0.8,0.5,1.1 c0.3,0.3,0.6,0.4,1.1,0.4c0.4,0,0.7-0.1,0.9-0.3c0.2-0.2,0.3-0.5,0.3-0.8c0-0.5-0.2-0.8-0.5-1.1c-0.3-0.2-0.7-0.5-1.2-0.7 c-0.4-0.2-0.7-0.3-1-0.5c-0.3-0.2-0.5-0.4-0.7-0.6c-0.2-0.2-0.4-0.5-0.5-0.7c-0.1-0.3-0.2-0.6-0.2-1c0-0.4,0.1-0.7,0.2-1 c0.1-0.3,0.3-0.5,0.6-0.7c0.2-0.2,0.5-0.4,0.8-0.5c0.3-0.1,0.7-0.2,1-0.2c0.7,0,1.3,0.2,1.8,0.6c0.5,0.4,0.8,0.9,0.9,1.6l-1.5,0.3 c-0.1-0.8-0.6-1.2-1.3-1.2c-0.3,0-0.6,0.1-0.8,0.2c-0.2,0.2-0.3,0.4-0.3,0.8c0,0.2,0,0.4,0.1,0.5c0.1,0.2,0.2,0.3,0.4,0.4 c0.1,0.1,0.3,0.2,0.5,0.3c0.2,0.1,0.5,0.2,0.7,0.3c0.3,0.1,0.6,0.3,0.9,0.5c0.3,0.2,0.5,0.4,0.7,0.6c0.2,0.2,0.4,0.5,0.5,0.8 c0.1,0.3,0.2,0.6,0.2,1c0,0.8-0.3,1.4-0.8,1.9C418.1,218.8,417.4,219,416.6,219z M416.5,222.2c-0.6,0-1.1-0.1-1.4-0.4l0.3-0.7 c0.1,0.1,0.3,0.1,0.4,0.2c0.1,0,0.3,0.1,0.5,0.1c0.2,0,0.3,0,0.4-0.1c0.1-0.1,0.2-0.2,0.2-0.4c0-0.4-0.2-0.6-0.7-0.6 c-0.1,0-0.1,0-0.2,0c-0.1,0-0.2,0-0.2,0l0.4-1.3h0.7l-0.2,0.7c0.1,0,0.2,0,0.2,0c0.1,0,0.2,0,0.2,0.1c0.6,0.1,0.9,0.5,0.9,1.2 c0,0.4-0.1,0.7-0.4,1C417.4,222,417,222.2,416.5,222.2z M424.3,217.9c-0.5,0.7-1.1,1.1-2.1,1.1c-0.5,0-1-0.2-1.3-0.5 c-0.4-0.3-0.5-0.9-0.5-1.6v-7.1h1.8v7c0,0.3,0.1,0.6,0.2,0.8c0.1,0.2,0.3,0.2,0.7,0.2c0.3,0,0.5-0.1,0.7-0.3 c0.2-0.2,0.4-0.4,0.5-0.6v-7h1.8v9.1h-1.7L424.3,217.9L424.3,217.9z M427.6,218.9v-12.3h1.7v12.3H427.6z M430.9,218.9v-12.3h1.7 v12.3H430.9z M435.9,219c-0.6,0-1.1-0.2-1.5-0.6c-0.4-0.4-0.6-1-0.6-1.8c0-0.9,0.2-1.6,0.7-2.1c0.5-0.5,1.2-0.9,2.1-1.1 c0.2-0.1,0.4-0.1,0.7-0.2c0.2-0.1,0.5-0.1,0.7-0.1c0,0,0-0.1,0-0.2c0-0.1,0-0.2,0-0.3c0-0.1,0-0.2,0-0.3c0-0.1,0-0.1,0-0.2 c0-0.4-0.1-0.7-0.3-0.9c-0.1-0.2-0.4-0.3-0.8-0.3c-0.4,0-0.7,0.1-0.9,0.3c-0.2,0.2-0.3,0.6-0.4,1l-1.6-0.2c0.1-0.8,0.5-1.4,1-1.8 c0.5-0.4,1.2-0.6,2-0.6c1,0,1.6,0.2,2,0.7c0.4,0.5,0.6,1.1,0.6,1.9v4.9c0,0.4,0,0.7,0,1c0,0.3,0.1,0.6,0.1,0.7h-1.7 c0-0.1-0.1-0.2-0.1-0.4c0-0.2,0-0.4,0-0.5c-0.2,0.3-0.5,0.6-0.9,0.7C436.8,218.9,436.4,219,435.9,219z M436.6,217.7 c0.3,0,0.6-0.1,0.9-0.3c0.2-0.2,0.4-0.4,0.5-0.7v-2.6c-0.3,0-0.6,0.1-0.9,0.2c-0.5,0.2-0.8,0.4-1.1,0.8c-0.3,0.3-0.4,0.8-0.4,1.3 c0,0.4,0.1,0.8,0.2,1C436,217.6,436.3,217.7,436.6,217.7z M441.2,218.9v-9.1h1.7v1.4c0.2-0.4,0.4-0.8,0.8-1.1 c0.4-0.3,0.8-0.4,1.3-0.4c0,0,0.1,0,0.1,0c0,0,0.1,0,0.1,0v1.6c-0.1,0-0.1,0-0.3,0c-0.1,0-0.2,0-0.4,0c-0.4,0-0.7,0.1-1,0.3 c-0.3,0.2-0.5,0.5-0.7,0.8v6.5H441.2z M446.2,218.9v-9.1h1.8v9.1H446.2z"></path> <g> <path class="st1" d="M51.6,254.6v-12.3h1.9V253h3.5v1.5H51.6z"></path> <path class="st1" d="M57.6,254.6v-1.5h1.9v-8.7c-0.2,0.2-1.4,0.5-1.9,0.8v-1.4c1-0.4,1.9-1,2.4-1.7l1.2,0v10.9h1.8v1.5H57.6z"></path> <path class="st1" d="M67.5,249.4c0-2.7,0.7-5.2,2-7.6h1.3c-1,2.7-1.5,5.4-1.5,7.6c0,2.5,0.6,5.3,1.6,7.7h-1.3 C68.4,255.2,67.5,252.4,67.5,249.4z"></path> <path class="st1" d="M71.6,250v-1.6h3.2v1.6H71.6z"></path> <path class="st1" d="M75.6,254.6v-1.5h1.9v-8.7c-0.2,0.2-1.4,0.5-1.9,0.8v-1.4c1-0.4,1.9-1,2.4-1.7l1.2,0v10.9h1.8v1.5H75.6z"></path> <path class="st1" d="M81.8,251.9l1.6-0.4c0.2,1.2,0.6,1.8,1.5,1.8c0.9,0,1.5-0.9,1.5-2.9c0-1.8-0.4-2.7-1.4-2.7 c-0.8,0-1.2,0.5-1.5,1.5l-1.4-0.2l0.3-6.7h5.2l-0.1,1.5h-3.7l-0.2,3.5c0.3-0.6,1.1-1,1.9-1c1.7,0,2.7,1.4,2.7,4.1 c0,2.9-1.4,4.4-3.2,4.4C83.2,254.7,82.1,253.6,81.8,251.9z"></path> <path class="st1" d="M88,257.6l5.2-15.4h1.3l-5.2,15.4H88z"></path> <path class="st1" d="M95.1,250v-1.6h3.2v1.6H95.1z"></path> <path class="st1" d="M99.2,254.6v-1.5h1.9v-8.7c-0.2,0.2-1.4,0.5-1.9,0.8v-1.4c1-0.4,1.9-1,2.4-1.7l1.2,0v10.9h1.8v1.5H99.2z"></path> <path class="st1" d="M105.4,251.5c0-1.5,0.8-2.5,1.8-3.4c-0.9-0.7-1.5-1.6-1.5-3.1c0-1.8,1.3-3,3-3c1.7,0,2.9,1.1,2.9,2.8 c0,1.4-0.7,2.3-1.6,3c1.1,0.8,1.9,1.7,1.9,3.5c0,2-1.3,3.3-3.3,3.3C106.7,254.7,105.4,253.5,105.4,251.5z M110.2,251.5 c0-1.2-0.8-1.9-1.8-2.6c-0.8,0.6-1.3,1.3-1.3,2.5c0,1.2,0.6,2,1.6,2C109.6,253.4,110.2,252.7,110.2,251.5z M110.1,245.1 c0-1-0.5-1.6-1.3-1.6c-0.8,0-1.3,0.6-1.3,1.6c0,1.1,0.7,1.5,1.4,2.1C109.6,246.6,110.1,246,110.1,245.1z"></path> </g> <g> <path class="st1" d="M117.6,244.4c0,1.3-1.1,2.4-2.4,2.4c-1.3,0-2.4-1.1-2.4-2.4c0-1.3,1.1-2.4,2.4-2.4 C116.5,242.1,117.6,243.1,117.6,244.4z M114,244.4c0,0.7,0.5,1.3,1.2,1.3c0.7,0,1.3-0.5,1.3-1.3c0-0.7-0.5-1.3-1.3-1.3 C114.5,243.2,114,243.7,114,244.4z"></path> </g> <g> <path class="st1" d="M118.7,248.5c0-4.1,1.2-6.4,3.6-6.4c2,0,2.9,1.3,3.2,3.5l-1.8,0.4c-0.2-1.5-0.5-2.3-1.4-2.3 c-1.2,0-1.6,1.4-1.6,4.8c0,3.2,0.4,4.8,1.6,4.8c0.9,0,1.4-0.7,1.5-2.2l1.6,0.2c-0.3,2.3-1.4,3.5-3.3,3.5 C120,254.7,118.7,252.7,118.7,248.5z"></path> <path class="st1" d="M127.9,249.5c0-2.5-0.6-5.4-1.6-7.7h1.3c1.3,2.3,2,4.9,2,7.7c0,2.9-0.8,5.6-2,7.7h-1.3 C127.5,254.5,127.9,251.7,127.9,249.5z"></path> <path class="st1" d="M134,250v-1.6h3.2v1.6H134z"></path> <path class="st1" d="M141.8,254.6v-12.3h1.9V253h3.5v1.5H141.8z"></path> <path class="st1" d="M147.7,254.6v-1.3c3.2-3.9,4.4-5.7,4.4-7.9c0-1.1-0.4-1.8-1.3-1.8c-0.8,0-1.4,0.7-1.5,2.3l-1.7-0.3 c0.2-2.3,1.5-3.5,3.3-3.5c1.9,0,3,1.2,3,3.1c0,2.4-1.8,4.9-4.4,7.8h4.3v1.5H147.7z"></path> <path class="st1" d="M158.6,249.4c0-2.7,0.7-5.2,2-7.6h1.3c-1,2.7-1.5,5.4-1.5,7.6c0,2.5,0.6,5.3,1.6,7.7h-1.3 C159.4,255.2,158.6,252.4,158.6,249.4z"></path> <path class="st1" d="M162.6,250v-1.6h3.2v1.6H162.6z"></path> <path class="st1" d="M166.6,254.6v-1.5h1.9v-8.7c-0.2,0.2-1.4,0.5-1.9,0.8v-1.4c1-0.4,1.9-1,2.4-1.7l1.2,0v10.9h1.8v1.5H166.6z"></path> <path class="st1" d="M172.9,254.6v-1.3c3.2-3.9,4.4-5.7,4.4-7.9c0-1.1-0.4-1.8-1.3-1.8c-0.8,0-1.4,0.7-1.5,2.3l-1.7-0.3 c0.2-2.3,1.5-3.5,3.3-3.5c1.9,0,3,1.2,3,3.1c0,2.4-1.8,4.9-4.4,7.8h4.3v1.5H172.9z"></path> <path class="st1" d="M179.1,257.6l5.2-15.4h1.3l-5.2,15.4H179.1z"></path> <path class="st1" d="M186.2,250v-1.6h3.2v1.6H186.2z"></path> <path class="st1" d="M190.2,254.6v-1.5h1.9v-8.7c-0.2,0.2-1.4,0.5-1.9,0.8v-1.4c1-0.4,1.9-1,2.4-1.7l1.2,0v10.9h1.8v1.5H190.2z"></path> <path class="st1" d="M196.5,251.5c0-1.5,0.8-2.5,1.8-3.4c-0.9-0.7-1.5-1.6-1.5-3.1c0-1.8,1.3-3,3-3c1.7,0,2.9,1.1,2.9,2.8 c0,1.4-0.7,2.3-1.6,3c1.1,0.8,1.9,1.7,1.9,3.5c0,2-1.3,3.3-3.3,3.3C197.7,254.7,196.5,253.5,196.5,251.5z M201.3,251.5 c0-1.2-0.8-1.9-1.8-2.6c-0.8,0.6-1.3,1.3-1.3,2.5c0,1.2,0.6,2,1.6,2C200.7,253.4,201.3,252.7,201.3,251.5z M201.1,245.1 c0-1-0.5-1.6-1.3-1.6c-0.8,0-1.3,0.6-1.3,1.6c0,1.1,0.7,1.5,1.4,2.1C200.7,246.6,201.1,246,201.1,245.1z"></path> </g> <g> <path class="st1" d="M208.7,244.4c0,1.3-1.1,2.4-2.4,2.4c-1.3,0-2.4-1.1-2.4-2.4c0-1.3,1.1-2.4,2.4-2.4 C207.6,242.1,208.7,243.1,208.7,244.4z M205.1,244.4c0,0.7,0.5,1.3,1.2,1.3c0.7,0,1.3-0.5,1.3-1.3c0-0.7-0.5-1.3-1.3-1.3 C205.6,243.2,205.1,243.7,205.1,244.4z"></path> </g> <g> <path class="st1" d="M209.8,248.5c0-4.1,1.2-6.4,3.6-6.4c2,0,2.9,1.3,3.2,3.5l-1.8,0.4c-0.2-1.5-0.5-2.3-1.4-2.3 c-1.2,0-1.6,1.4-1.6,4.8c0,3.2,0.4,4.8,1.6,4.8c0.9,0,1.4-0.7,1.5-2.2l1.6,0.2c-0.3,2.3-1.4,3.5-3.3,3.5 C211.1,254.7,209.8,252.7,209.8,248.5z"></path> <path class="st1" d="M219,249.5c0-2.5-0.6-5.4-1.6-7.7h1.3c1.3,2.3,2,4.9,2,7.7c0,2.9-0.8,5.6-2,7.7h-1.3 C218.5,254.5,219,251.7,219,249.5z"></path> </g> <g> <path class="st1" d="M309.9,256.2v-1.3c3.2-3.9,4.4-5.7,4.4-7.9c0-1.1-0.4-1.8-1.3-1.8c-0.8,0-1.4,0.7-1.5,2.3l-1.7-0.3 c0.2-2.3,1.5-3.5,3.3-3.5c1.9,0,3,1.2,3,3.1c0,2.4-1.8,4.9-4.4,7.8h4.3v1.5H309.9z"></path> <path class="st1" d="M317.2,253.6l1.6-0.4c0.2,1.2,0.6,1.8,1.5,1.8c0.9,0,1.5-0.9,1.5-2.9c0-1.8-0.4-2.7-1.4-2.7 c-0.8,0-1.2,0.5-1.5,1.5l-1.4-0.2l0.3-6.7h5.2l-0.1,1.5h-3.7l-0.2,3.5c0.3-0.6,1.1-1,1.9-1c1.7,0,2.7,1.4,2.7,4.1 c0,2.9-1.4,4.4-3.2,4.4C318.6,256.4,317.5,255.3,317.2,253.6z"></path> <path class="st1" d="M329.3,246.1c0,1.3-1.1,2.4-2.4,2.4c-1.3,0-2.4-1.1-2.4-2.4c0-1.3,1.1-2.4,2.4-2.4 C328.3,243.7,329.3,244.8,329.3,246.1z M325.7,246.1c0,0.7,0.5,1.3,1.2,1.3c0.7,0,1.3-0.5,1.3-1.3c0-0.7-0.5-1.3-1.3-1.3 C326.2,244.8,325.7,245.3,325.7,246.1z"></path> <path class="st1" d="M330.5,250.1c0-4.1,1.2-6.4,3.6-6.4c2,0,2.9,1.3,3.2,3.5l-1.8,0.4c-0.2-1.5-0.5-2.3-1.4-2.3 c-1.2,0-1.6,1.4-1.6,4.8c0,3.2,0.4,4.8,1.6,4.8c0.9,0,1.4-0.7,1.5-2.2l1.6,0.2c-0.3,2.3-1.4,3.5-3.3,3.5 C331.7,256.4,330.5,254.3,330.5,250.1z"></path> <path class="st1" d="M340.2,259.3l5.2-15.4h1.3l-5.2,15.4H340.2z"></path> <path class="st1" d="M350.9,250.5c0-0.1,0-0.4,0-0.6c0-3.8,1-6.2,3.5-6.2c1.6,0,2.5,1,2.8,2.8l-1.6,0.3c-0.2-1.1-0.5-1.7-1.3-1.7 c-1,0-1.6,1.2-1.6,3.8c0,0.1,0,0.5,0,0.7c0.4-0.9,1.2-1.4,2.1-1.4c1.8,0,2.7,1.6,2.7,3.9c0,2.6-1.2,4.3-3.2,4.3 C352.1,256.4,350.9,254.3,350.9,250.5z M355.7,252.4c0-0.1,0-0.1,0-0.2c0-1.8-0.5-2.5-1.4-2.5c-0.8,0-1.4,0.8-1.5,2.4 c0,0.1,0,0.1,0,0.2c0.1,2,0.6,2.7,1.5,2.7C355.1,254.9,355.7,254.2,355.7,252.4z"></path> <path class="st1" d="M358.3,250.1c0-4.2,1-6.3,3.3-6.3c2.2,0,3.3,2.1,3.3,6.3c0,4.1-1.1,6.3-3.3,6.3 C359.4,256.4,358.3,254.1,358.3,250.1z M363,250c0-3.5-0.4-4.8-1.4-4.8c-1.1,0-1.4,1.3-1.4,4.8c0,3.7,0.4,5,1.4,5 C362.7,254.9,363,253.7,363,250z"></path> <path class="st1" d="M365.9,247.4c0-2.3,0.8-3.6,2.1-3.6s2.2,1.1,2.2,3.6c0,2.1-0.8,3.6-2.2,3.6 C366.7,251,365.9,249.7,365.9,247.4z M368.8,247.3c0-1.8-0.2-2.5-0.7-2.5c-0.6,0-0.7,0.7-0.7,2.5c0,1.9,0.2,2.5,0.7,2.5 C368.6,249.9,368.8,249.2,368.8,247.3z M368.1,256.2l5-12.3h1.1l-5,12.3H368.1z M372.1,252.7c0-2.2,0.7-3.6,2.2-3.6 c1.3,0,2.2,1.2,2.2,3.6c0,2.2-0.8,3.6-2.2,3.6C372.8,256.3,372.1,254.9,372.1,252.7z M375,252.7c0-1.8-0.2-2.5-0.7-2.5 c-0.6,0-0.7,0.7-0.7,2.5c0,1.9,0.2,2.5,0.7,2.5S375,254.5,375,252.7z"></path> <path class="st1" d="M381.1,256.2v-12.3h3.1c2,0,3.3,1.2,3.3,3.3c0,1.4-0.5,2.4-1.5,2.9l1.7,6.1h-1.9l-1.5-5.7c-0.2,0-0.4,0-0.6,0 H383v5.6H381.1z M383,249.2h1.1c1.1,0,1.6-0.6,1.6-2c0-1.3-0.6-1.8-1.5-1.8H383V249.2z"></path> <path class="st1" d="M389.2,256.2v-12.3h1.9v5.1h2.8v-5.1h1.9v12.3h-1.9v-5.6h-2.8v5.6H389.2z"></path> <path class="st1" d="M400.8,251.1c0-2.7,0.7-5.2,2-7.6h1.3c-1,2.7-1.5,5.4-1.5,7.6c0,2.5,0.6,5.3,1.6,7.7h-1.3 C401.7,256.9,400.8,254.1,400.8,251.1z"></path> <path class="st1" d="M405.6,256.2v-12.3h5.6v1.5h-3.7v3.7h2.8v1.5h-2.8v4.1h3.8v1.5H405.6z"></path> <path class="st1" d="M412.7,256.2v-12.3h1.9l2.6,6.1c0.1,0.3,0.6,1.6,0.6,2c0-0.6,0-1.6,0-2.3c0-0.3,0-5.8,0-5.8h1.6v12.3h-1.7 l-2.7-6.3c-0.2-0.6-0.6-1.8-0.7-2c0,0.4,0.1,1.3,0.1,2.1c0,0.3,0,6.2,0,6.2H412.7z"></path> <path class="st1" d="M424.6,256.2v-12.3h1.9v12.3H424.6z"></path> <path class="st1" d="M427.7,253.2l1.6-0.4c0.2,1.4,0.8,2,1.9,2c1,0,1.6-0.6,1.6-1.7c0-1.2-0.8-1.8-2.1-2.6 c-1.5-0.9-2.7-1.8-2.7-3.8c0-1.8,1.2-3.1,3.1-3.1c1.8,0,2.9,1.1,3.2,2.8l-1.7,0.4c-0.2-1.2-0.6-1.8-1.5-1.8 c-0.8,0-1.3,0.5-1.3,1.4c0,1.3,0.6,1.6,2.1,2.6c1.6,1,2.6,2,2.6,3.8c0,2.1-1.2,3.4-3.3,3.4C429.1,256.4,428,255.2,427.7,253.2z"></path> <path class="st1" d="M435.4,250.1c0-4,1.2-6.3,3.6-6.3c2.4,0,3.7,2.2,3.7,6.3c0,4.2-1.4,6.3-3.7,6.3 C436.7,256.4,435.4,254.3,435.4,250.1z M440.7,250.1c0-3.5-0.4-4.9-1.7-4.9c-1.2,0-1.6,1.4-1.6,4.8c0,3.5,0.5,4.8,1.7,4.8 C440.2,254.9,440.7,253.5,440.7,250.1z"></path> <path class="st1" d="M447,256.2v-1.3c3.2-3.9,4.4-5.7,4.4-7.9c0-1.1-0.4-1.8-1.3-1.8c-0.8,0-1.4,0.7-1.5,2.3l-1.7-0.3 c0.2-2.3,1.5-3.5,3.3-3.5c1.9,0,3,1.2,3,3.1c0,2.4-1.8,4.9-4.4,7.8h4.3v1.5H447z"></path> <path class="st1" d="M454.1,253.4l1.6-0.3c0.2,1.3,0.7,1.9,1.7,1.9c1.1,0,1.6-0.8,1.6-2.3c0-1.5-0.7-2.1-1.9-2.1h-0.8v-1.5h0.8 c1.1,0,1.6-0.6,1.6-2.1c0-1.3-0.4-1.9-1.3-1.9c-0.8,0-1.3,0.6-1.5,1.7l-1.6-0.3c0.4-1.9,1.6-2.8,3.1-2.8c1.9,0,3,1.2,3,3 c0,1.6-0.6,2.6-1.8,3c1.2,0.3,2.1,1.3,2.1,3.1c0,2.2-1.2,3.6-3.3,3.6C455.5,256.3,454.3,255.4,454.1,253.4z"></path> <path class="st1" d="M461.6,248c0-2.4,1.1-4.2,3.2-4.2c2.3,0,3.3,2,3.3,5.6c0,0.2,0,0.6,0,0.7c0,3.9-1,6.3-3.4,6.3 c-1.7,0-2.6-0.9-2.8-2.6l1.6-0.3c0.1,1,0.5,1.5,1.3,1.5c0.9,0,1.4-1,1.5-3.5c0-0.2,0-0.5,0-0.7c-0.4,0.7-1.1,1.2-2,1.2 C462.6,251.9,461.6,250.5,461.6,248z M466.2,249.4c0-0.2,0-1,0-1.3c0-2.1-0.5-3-1.5-3c-1,0-1.4,0.9-1.4,2.7c0,0.1,0,0.1,0,0.2 c0,2,0.6,2.5,1.4,2.5C465.4,250.5,465.9,250.1,466.2,249.4z"></path> <path class="st1" d="M469,253.6l1.6-0.4c0.2,1.2,0.6,1.8,1.5,1.8c0.9,0,1.5-0.9,1.5-2.9c0-1.8-0.4-2.7-1.4-2.7 c-0.8,0-1.2,0.5-1.5,1.5l-1.4-0.2l0.3-6.7h5.2l-0.1,1.5H471l-0.2,3.5c0.3-0.6,1.1-1,1.9-1c1.7,0,2.7,1.4,2.7,4.1 c0,2.9-1.4,4.4-3.2,4.4C470.4,256.4,469.3,255.3,469,253.6z"></path> <path class="st1" d="M476.1,253.4l1.6-0.3c0.2,1.3,0.7,1.9,1.7,1.9c1.1,0,1.6-0.8,1.6-2.3c0-1.5-0.7-2.1-1.9-2.1h-0.8v-1.5h0.8 c1.1,0,1.6-0.6,1.6-2.1c0-1.3-0.4-1.9-1.3-1.9c-0.8,0-1.3,0.6-1.5,1.7l-1.6-0.3c0.4-1.9,1.6-2.8,3.1-2.8c1.9,0,3,1.2,3,3 c0,1.6-0.6,2.6-1.8,3c1.2,0.3,2.1,1.3,2.1,3.1c0,2.2-1.2,3.6-3.3,3.6C477.5,256.3,476.3,255.4,476.1,253.4z"></path> <path class="st1" d="M483.6,251.7v-1.6h3.2v1.6H483.6z"></path> <path class="st1" d="M487.5,256.2v-1.3c3.2-3.9,4.4-5.7,4.4-7.9c0-1.1-0.4-1.8-1.3-1.8c-0.8,0-1.4,0.7-1.5,2.3l-1.7-0.3 c0.2-2.3,1.5-3.5,3.3-3.5c1.9,0,3,1.2,3,3.1c0,2.4-1.8,4.9-4.4,7.8h4.3v1.5H487.5z"></path> <path class="st1" d="M496.4,251.1c0-2.5-0.6-5.4-1.6-7.7h1.3c1.3,2.3,2,4.9,2,7.7c0,2.9-0.8,5.6-2,7.7h-1.3 C495.9,256.1,496.4,253.4,496.4,251.1z"></path> </g> <line class="st0" x1="0" y1="0" x2="148.6" y2="0"></line> <line class="st0" x1="0.6" y1="51.7" x2="0.6" y2="0.6"></line> <line class="st0" x1="148.6" y1="0" x2="246.1" y2="0"></line> <line class="st0" x1="246.1" y1="0" x2="343.5" y2="0"></line> <line class="st0" x1="343.5" y1="0" x2="441" y2="0"></line> <line class="st0" x1="441" y1="0" x2="539" y2="0"></line> <line class="st0" x1="538.4" y1="51.7" x2="538.4" y2="0.6"></line> <line class="st0" x1="0" y1="52.3" x2="148.6" y2="52.3"></line> <line class="st0" x1="0.6" y1="104" x2="0.6" y2="52.9"></line> <line class="st0" x1="148.6" y1="52.3" x2="246.1" y2="52.3"></line> <line class="st0" x1="148.6" y1="104" x2="148.6" y2="52.9"></line> <line class="st0" x1="246.1" y1="52.3" x2="343.5" y2="52.3"></line> <line class="st0" x1="246.1" y1="104" x2="246.1" y2="52.9"></line> <line class="st0" x1="343.5" y1="52.3" x2="441" y2="52.3"></line> <line class="st0" x1="343.5" y1="104" x2="343.5" y2="52.9"></line> <line class="st0" x1="441" y1="52.3" x2="539" y2="52.3"></line> <line class="st0" x1="441" y1="104" x2="441" y2="52.9"></line> <line class="st0" x1="538.4" y1="104" x2="538.4" y2="52.9"></line> <line class="st0" x1="0" y1="104.6" x2="148.6" y2="104.6"></line> <line class="st0" x1="0.6" y1="156.3" x2="0.6" y2="105.2"></line> <line class="st0" x1="148.6" y1="104.6" x2="246.1" y2="104.6"></line> <line class="st0" x1="148.6" y1="156.3" x2="148.6" y2="105.2"></line> <line class="st0" x1="246.1" y1="104.6" x2="343.5" y2="104.6"></line> <line class="st0" x1="246.1" y1="156.3" x2="246.1" y2="105.2"></line> <line class="st0" x1="343.5" y1="104.6" x2="441" y2="104.6"></line> <line class="st0" x1="343.5" y1="156.3" x2="343.5" y2="105.2"></line> <line class="st0" x1="441" y1="104.6" x2="539" y2="104.6"></line> <line class="st0" x1="441" y1="156.3" x2="441" y2="105.2"></line> <line class="st0" x1="538.4" y1="156.3" x2="538.4" y2="105.2"></line> <line class="st0" x1="0" y1="156.9" x2="148.6" y2="156.9"></line> <line class="st0" x1="148.6" y1="156.9" x2="246.1" y2="156.9"></line> <line class="st0" x1="246.1" y1="156.9" x2="343.5" y2="156.9"></line> <line class="st0" x1="343.5" y1="156.9" x2="441" y2="156.9"></line> <line class="st0" x1="441" y1="156.9" x2="539" y2="156.9"></line> <path class="st1" d="M148.9,33.7l2.5-12.3h2.1l2.6,12.3h-2l-0.6-3.5h-2.4l-0.6,3.5H148.9z M153.3,28.8c-0.2-0.9-0.3-1.7-0.5-2.4 c-0.1-0.3-0.1-0.6-0.2-0.9c-0.1-0.3-0.1-0.6-0.2-0.8c0-0.3-0.1-0.5-0.1-0.7c0-0.2,0-0.3,0-0.4c0,0.1,0,0.2,0,0.4 c0,0.2-0.1,0.4-0.1,0.7c0,0.3-0.1,0.5-0.1,0.8c-0.1,0.3-0.1,0.6-0.2,0.9c-0.1,0.7-0.3,1.5-0.5,2.4H153.3z M158.3,33.7l-2.3-9.1h1.8 l1.2,5c0,0.1,0,0.2,0.1,0.3c0,0.1,0.1,0.3,0.1,0.4c0,0.2,0.1,0.3,0.1,0.5c0,0.1,0,0.3,0,0.3c0-0.1,0-0.2,0.1-0.4 c0-0.1,0.1-0.3,0.1-0.5c0-0.2,0.1-0.3,0.1-0.4c0-0.1,0.1-0.2,0.1-0.3l1.2-5h1.5l-2.4,9.1H158.3z M164.6,33.7 c-0.6,0-1.1-0.2-1.5-0.6c-0.4-0.4-0.6-1-0.6-1.8c0-0.9,0.2-1.6,0.7-2.1c0.5-0.5,1.2-0.9,2.1-1.1c0.2-0.1,0.4-0.1,0.7-0.2 c0.2-0.1,0.5-0.1,0.7-0.1c0,0,0-0.1,0-0.2c0-0.1,0-0.2,0-0.3c0-0.1,0-0.2,0-0.3c0-0.1,0-0.1,0-0.2c0-0.4-0.1-0.7-0.3-0.9 c-0.1-0.2-0.4-0.3-0.8-0.3c-0.4,0-0.7,0.1-0.9,0.3c-0.2,0.2-0.3,0.6-0.4,1l-1.6-0.2c0.1-0.8,0.5-1.4,1-1.8c0.5-0.4,1.2-0.6,2-0.6 c1,0,1.6,0.2,2,0.7c0.4,0.5,0.6,1.1,0.6,1.9v4.9c0,0.4,0,0.7,0,1c0,0.3,0.1,0.6,0.1,0.7h-1.7c0-0.1-0.1-0.2-0.1-0.4 c0-0.2,0-0.4,0-0.5c-0.2,0.3-0.5,0.6-0.9,0.7C165.5,33.6,165.1,33.7,164.6,33.7z M165.3,32.5c0.3,0,0.6-0.1,0.9-0.3 c0.2-0.2,0.4-0.4,0.5-0.7v-2.6c-0.3,0-0.6,0.1-0.9,0.2c-0.5,0.2-0.8,0.4-1.1,0.8c-0.3,0.3-0.4,0.8-0.4,1.3c0,0.4,0.1,0.8,0.2,1 C164.7,32.4,165,32.5,165.3,32.5z M169.9,23.2v-1.9h1.8v1.9H169.9z M169.9,33.7v-9.1h1.8v9.1H169.9z M173.3,33.7V21.3h1.7v12.3 H173.3z M178.3,33.7c-0.6,0-1.1-0.2-1.5-0.6c-0.4-0.4-0.6-1-0.6-1.8c0-0.9,0.2-1.6,0.7-2.1c0.5-0.5,1.2-0.9,2.1-1.1 c0.2-0.1,0.4-0.1,0.7-0.2c0.2-0.1,0.5-0.1,0.7-0.1c0,0,0-0.1,0-0.2c0-0.1,0-0.2,0-0.3c0-0.1,0-0.2,0-0.3c0-0.1,0-0.1,0-0.2 c0-0.4-0.1-0.7-0.3-0.9c-0.1-0.2-0.4-0.3-0.8-0.3c-0.4,0-0.7,0.1-0.9,0.3c-0.2,0.2-0.3,0.6-0.4,1l-1.6-0.2c0.1-0.8,0.5-1.4,1-1.8 c0.5-0.4,1.2-0.6,2-0.6c1,0,1.6,0.2,2,0.7c0.4,0.5,0.6,1.1,0.6,1.9v4.9c0,0.4,0,0.7,0,1c0,0.3,0.1,0.6,0.1,0.7h-1.7 c0-0.1-0.1-0.2-0.1-0.4c0-0.2,0-0.4,0-0.5c-0.2,0.3-0.5,0.6-0.9,0.7C179.2,33.6,178.8,33.7,178.3,33.7z M179,32.5 c0.3,0,0.6-0.1,0.9-0.3c0.2-0.2,0.4-0.4,0.5-0.7v-2.6c-0.3,0-0.6,0.1-0.9,0.2c-0.5,0.2-0.8,0.4-1.1,0.8c-0.3,0.3-0.4,0.8-0.4,1.3 c0,0.4,0.1,0.8,0.2,1C178.4,32.4,178.6,32.5,179,32.5z M186.9,33.7c-0.5,0-0.8-0.1-1.1-0.3c-0.3-0.2-0.5-0.5-0.7-0.8l-0.3,1h-1.1 V21.3h1.7v4.3c0.2-0.3,0.4-0.6,0.7-0.8c0.3-0.2,0.7-0.4,1.1-0.4c0.4,0,0.7,0.1,1,0.2c0.3,0.2,0.5,0.4,0.7,0.8 c0.2,0.4,0.3,0.8,0.5,1.4c0.1,0.6,0.2,1.3,0.2,2.1c0,1.6-0.2,2.8-0.7,3.6C188.3,33.4,187.7,33.7,186.9,33.7z M186.5,32.6 c0.5,0,0.8-0.3,0.9-0.8c0.2-0.6,0.2-1.4,0.2-2.6c0-1.2-0.1-2.1-0.2-2.6c-0.2-0.5-0.4-0.8-0.9-0.8c-0.3,0-0.6,0.1-0.8,0.3 c-0.2,0.2-0.3,0.4-0.4,0.7v4c0,0.5,0.1,1,0.3,1.3C185.8,32.4,186.1,32.6,186.5,32.6z M190.7,33.7V21.3h1.7v12.3H190.7z M196.9,33.8 c-1,0-1.8-0.4-2.3-1.2c-0.5-0.8-0.8-1.9-0.8-3.5c0-1.5,0.3-2.7,0.8-3.5c0.6-0.8,1.3-1.2,2.3-1.2c1,0,1.7,0.4,2.2,1.2 c0.5,0.8,0.7,2,0.7,3.5v0.4h-4.2c0,1.1,0.1,1.8,0.4,2.3c0.2,0.4,0.6,0.7,1,0.7c0.3,0,0.6-0.1,0.8-0.4c0.2-0.2,0.4-0.6,0.5-1.2 l1.4,0.2c-0.1,0.4-0.2,0.7-0.3,1.1c-0.2,0.3-0.3,0.6-0.6,0.8c-0.2,0.2-0.5,0.4-0.8,0.6C197.6,33.7,197.3,33.8,196.9,33.8z M198.1,28.4c0-0.9-0.1-1.6-0.3-2.1c-0.2-0.4-0.5-0.7-0.9-0.7c-0.4,0-0.7,0.2-0.9,0.7c-0.2,0.4-0.3,1.1-0.4,2.1H198.1z M204.4,33.7 V21.3h2.5c0.3,1.6,0.7,3,0.9,4.2c0.1,0.5,0.2,1.1,0.3,1.6c0.1,0.5,0.2,1,0.3,1.4c0.1,0.4,0.2,0.8,0.2,1c0.1,0.3,0.1,0.4,0.1,0.5 c0,0,0-0.2,0.1-0.5c0.1-0.3,0.1-0.6,0.2-1c0.1-0.4,0.2-0.9,0.3-1.4c0.1-0.5,0.2-1,0.4-1.6c0.3-1.3,0.6-2.7,0.9-4.2h2.5v12.3h-1.8 v-4.5c0-0.6,0-1.1,0-1.7s0-1.1,0-1.5c0-0.4,0-0.8,0-1.1c0-0.3,0-0.5,0-0.6c0,0.1,0,0.3-0.1,0.6c-0.1,0.3-0.1,0.7-0.2,1.1 c-0.1,0.4-0.2,1-0.3,1.5c-0.1,0.6-0.3,1.1-0.4,1.7c-0.3,1.3-0.7,2.8-1.1,4.4H208c-0.4-1.6-0.7-3.1-1-4.4c-0.1-0.6-0.3-1.1-0.4-1.7 c-0.1-0.5-0.2-1-0.3-1.5c-0.1-0.5-0.2-0.8-0.2-1.2c-0.1-0.3-0.1-0.5-0.1-0.6c0,0.2,0,0.4,0,0.8c0,0.4,0,0.8,0,1.2c0,0.5,0,1,0,1.5 c0,0.5,0,1.1,0,1.6v4.2H204.4z M217.8,33.8c-1,0-1.7-0.4-2.2-1.2c-0.5-0.8-0.8-2-0.8-3.5c0-1.5,0.3-2.6,0.8-3.5 c0.5-0.8,1.3-1.2,2.2-1.2c1,0,1.7,0.4,2.3,1.2c0.5,0.8,0.8,2,0.8,3.5c0,1.5-0.3,2.7-0.8,3.5C219.4,33.4,218.7,33.8,217.8,33.8z M217.8,32.5c0.2,0,0.4-0.1,0.5-0.2c0.2-0.1,0.3-0.3,0.4-0.6c0.1-0.3,0.2-0.6,0.2-1.1c0-0.4,0.1-1,0.1-1.6c0-1.3-0.1-2.1-0.3-2.6 c-0.2-0.5-0.5-0.7-0.9-0.7c-0.4,0-0.7,0.3-0.9,0.8c-0.2,0.5-0.3,1.4-0.3,2.6c0,1.2,0.1,2.1,0.3,2.6C217,32.3,217.3,32.5,217.8,32.5 z M224.2,33.7c-0.7,0-1.3-0.4-1.7-1.1c-0.4-0.7-0.6-1.9-0.6-3.6c0-1.6,0.2-2.7,0.7-3.5c0.4-0.8,1.1-1.2,1.9-1.2 c0.4,0,0.7,0.1,0.9,0.3c0.3,0.2,0.5,0.4,0.6,0.6v-3.9h1.7v12.3H226v-1c-0.2,0.4-0.5,0.6-0.8,0.8C225,33.7,224.6,33.7,224.2,33.7z M224.7,32.5c0.3,0,0.6-0.1,0.7-0.3c0.2-0.2,0.3-0.4,0.4-0.7v-4.9c-0.1-0.2-0.2-0.5-0.4-0.6c-0.2-0.2-0.4-0.3-0.7-0.3 c-0.4,0-0.7,0.3-0.9,0.8c-0.2,0.5-0.3,1.4-0.3,2.6c0,0.7,0,1.2,0.1,1.7c0,0.4,0.1,0.8,0.2,1c0.1,0.3,0.2,0.4,0.4,0.5 C224.4,32.5,224.6,32.5,224.7,32.5z M233.1,32.7c-0.5,0.7-1.1,1.1-2.1,1.1c-0.5,0-1-0.2-1.3-0.5c-0.4-0.3-0.5-0.9-0.5-1.6v-7.1h1.8 v7c0,0.3,0.1,0.6,0.2,0.8c0.1,0.2,0.3,0.2,0.7,0.2c0.3,0,0.5-0.1,0.7-0.3c0.2-0.2,0.4-0.4,0.5-0.6v-7h1.8v9.1h-1.7L233.1,32.7 L233.1,32.7z M236.4,33.7V21.3h1.7v12.3H236.4z M242.5,33.8c-1,0-1.8-0.4-2.3-1.2c-0.5-0.8-0.8-1.9-0.8-3.5c0-1.5,0.3-2.7,0.8-3.5 c0.6-0.8,1.3-1.2,2.3-1.2c1,0,1.7,0.4,2.2,1.2c0.5,0.8,0.7,2,0.7,3.5v0.4h-4.2c0,1.1,0.1,1.8,0.4,2.3c0.2,0.4,0.6,0.7,1,0.7 c0.3,0,0.6-0.1,0.8-0.4c0.2-0.2,0.4-0.6,0.5-1.2l1.4,0.2c-0.1,0.4-0.2,0.7-0.3,1.1c-0.2,0.3-0.3,0.6-0.6,0.8 c-0.2,0.2-0.5,0.4-0.8,0.6C243.2,33.7,242.9,33.8,242.5,33.8z M243.7,28.4c0-0.9-0.1-1.6-0.3-2.1c-0.2-0.4-0.5-0.7-0.9-0.7 c-0.4,0-0.7,0.2-0.9,0.7c-0.2,0.4-0.3,1.1-0.4,2.1H243.7z M248.8,33.8c-0.8,0-1.5-0.2-2-0.6c-0.5-0.4-0.8-1-0.9-1.8l1.5-0.3 c0.1,0.4,0.2,0.8,0.5,1.1c0.3,0.3,0.6,0.4,1.1,0.4c0.4,0,0.7-0.1,0.9-0.3c0.2-0.2,0.3-0.5,0.3-0.8c0-0.5-0.2-0.8-0.5-1.1 c-0.3-0.2-0.7-0.5-1.2-0.7c-0.4-0.2-0.7-0.3-1-0.5c-0.3-0.2-0.5-0.4-0.7-0.6c-0.2-0.2-0.4-0.5-0.5-0.7c-0.1-0.3-0.2-0.6-0.2-1 c0-0.4,0.1-0.7,0.2-1c0.1-0.3,0.3-0.5,0.6-0.7c0.2-0.2,0.5-0.4,0.8-0.5c0.3-0.1,0.7-0.2,1-0.2c0.7,0,1.3,0.2,1.8,0.6 c0.5,0.4,0.8,0.9,0.9,1.6l-1.5,0.3c-0.1-0.8-0.6-1.2-1.3-1.2c-0.3,0-0.6,0.1-0.8,0.2c-0.2,0.2-0.3,0.4-0.3,0.8c0,0.2,0,0.4,0.1,0.5 c0.1,0.2,0.2,0.3,0.4,0.4c0.1,0.1,0.3,0.2,0.5,0.3c0.2,0.1,0.5,0.2,0.7,0.3c0.3,0.1,0.6,0.3,0.9,0.5c0.3,0.2,0.5,0.4,0.7,0.6 c0.2,0.2,0.4,0.5,0.5,0.8c0.1,0.3,0.2,0.6,0.2,1c0,0.8-0.3,1.4-0.8,1.9C250.4,33.6,249.7,33.8,248.8,33.8z M254.5,36.7l5.2-15.4 h1.3l-5.2,15.4H254.5z M265.6,33.7V21.3h1.9V27l2.9-5.6h1.8l-2.3,4.5l2.8,7.8h-2l-2-5.8l-1.1,1.9v3.8H265.6z M277.2,32.7 c-0.5,0.7-1.1,1.1-2.1,1.1c-0.5,0-1-0.2-1.3-0.5c-0.4-0.3-0.5-0.9-0.5-1.6v-7.1h1.8v7c0,0.3,0.1,0.6,0.2,0.8 c0.1,0.2,0.3,0.2,0.7,0.2c0.3,0,0.5-0.1,0.7-0.3c0.2-0.2,0.4-0.4,0.5-0.6v-7h1.8v9.1h-1.7L277.2,32.7L277.2,32.7z M280.5,33.7V21.3 h1.7v12.3H280.5z M283.9,33.7V21.3h1.7v12.3H283.9z M288.8,33.7c-0.6,0-1.1-0.2-1.5-0.6c-0.4-0.4-0.6-1-0.6-1.8 c0-0.9,0.2-1.6,0.7-2.1c0.5-0.5,1.2-0.9,2.1-1.1c0.2-0.1,0.4-0.1,0.7-0.2c0.2-0.1,0.5-0.1,0.7-0.1c0,0,0-0.1,0-0.2 c0-0.1,0-0.2,0-0.3c0-0.1,0-0.2,0-0.3c0-0.1,0-0.1,0-0.2c0-0.4-0.1-0.7-0.3-0.9c-0.1-0.2-0.4-0.3-0.8-0.3c-0.4,0-0.7,0.1-0.9,0.3 c-0.2,0.2-0.3,0.6-0.4,1l-1.6-0.2c0.1-0.8,0.5-1.4,1-1.8c0.5-0.4,1.2-0.6,2-0.6c1,0,1.6,0.2,2,0.7c0.4,0.5,0.6,1.1,0.6,1.9v4.9 c0,0.4,0,0.7,0,1c0,0.3,0.1,0.6,0.1,0.7h-1.7c0-0.1-0.1-0.2-0.1-0.4c0-0.2,0-0.4,0-0.5c-0.2,0.3-0.5,0.6-0.9,0.7 C289.8,33.6,289.3,33.7,288.8,33.7z M289.5,32.5c0.3,0,0.6-0.1,0.9-0.3c0.2-0.2,0.4-0.4,0.5-0.7v-2.6c-0.3,0-0.6,0.1-0.9,0.2 c-0.5,0.2-0.8,0.4-1.1,0.8c-0.3,0.3-0.4,0.8-0.4,1.3c0,0.4,0.1,0.8,0.2,1C288.9,32.4,289.2,32.5,289.5,32.5z M294.2,33.7v-9.1h1.7 v1.2c0.2-0.4,0.5-0.7,0.8-1c0.3-0.3,0.8-0.4,1.3-0.4c0.6,0,1.1,0.2,1.4,0.5c0.3,0.4,0.4,0.9,0.4,1.5v7.2H298v-7 c0-0.3-0.1-0.5-0.2-0.6c-0.1-0.2-0.3-0.2-0.6-0.2c-0.3,0-0.5,0.1-0.7,0.3c-0.2,0.2-0.4,0.4-0.6,0.7v6.9H294.2z M301.3,33.7v-9.1 h1.8v9.1H301.3z M304.7,33.7V21.3h1.7v12.3H304.7z M309.6,33.7c-0.6,0-1.1-0.2-1.5-0.6c-0.4-0.4-0.6-1-0.6-1.8 c0-0.9,0.2-1.6,0.7-2.1c0.5-0.5,1.2-0.9,2.1-1.1c0.2-0.1,0.4-0.1,0.7-0.2c0.2-0.1,0.5-0.1,0.7-0.1c0,0,0-0.1,0-0.2 c0-0.1,0-0.2,0-0.3c0-0.1,0-0.2,0-0.3c0-0.1,0-0.1,0-0.2c0-0.4-0.1-0.7-0.3-0.9c-0.1-0.2-0.4-0.3-0.8-0.3c-0.4,0-0.7,0.1-0.9,0.3 c-0.2,0.2-0.3,0.6-0.4,1l-1.6-0.2c0.1-0.8,0.5-1.4,1-1.8c0.5-0.4,1.2-0.6,2-0.6c1,0,1.6,0.2,2,0.7c0.4,0.5,0.6,1.1,0.6,1.9v4.9 c0,0.4,0,0.7,0,1c0,0.3,0.1,0.6,0.1,0.7h-1.7c0-0.1-0.1-0.2-0.1-0.4c0-0.2,0-0.4,0-0.5c-0.2,0.3-0.5,0.6-0.9,0.7 C310.6,33.6,310.1,33.7,309.6,33.7z M310.3,32.5c0.3,0,0.6-0.1,0.9-0.3c0.2-0.2,0.4-0.4,0.5-0.7v-2.6c-0.3,0-0.6,0.1-0.9,0.2 c-0.5,0.2-0.8,0.4-1.1,0.8c-0.3,0.3-0.4,0.8-0.4,1.3c0,0.4,0.1,0.8,0.2,1C309.7,32.4,310,32.5,310.3,32.5z M318.2,33.7 c-0.5,0-0.8-0.1-1.1-0.3c-0.3-0.2-0.5-0.5-0.7-0.8l-0.3,1H315V21.3h1.7v4.3c0.2-0.3,0.4-0.6,0.7-0.8c0.3-0.2,0.7-0.4,1.1-0.4 c0.4,0,0.7,0.1,1,0.2c0.3,0.2,0.5,0.4,0.7,0.8c0.2,0.4,0.3,0.8,0.5,1.4c0.1,0.6,0.2,1.3,0.2,2.1c0,1.6-0.2,2.8-0.7,3.6 C319.6,33.4,319,33.7,318.2,33.7z M317.8,32.6c0.5,0,0.8-0.3,0.9-0.8c0.2-0.6,0.2-1.4,0.2-2.6c0-1.2-0.1-2.1-0.2-2.6 c-0.2-0.5-0.4-0.8-0.9-0.8c-0.3,0-0.6,0.1-0.8,0.3c-0.2,0.2-0.3,0.4-0.4,0.7v4c0,0.5,0.1,1,0.3,1.3 C317.1,32.4,317.4,32.6,317.8,32.6z M322.1,23.2v-1.9h1.8v1.9H322.1z M322.1,33.7v-9.1h1.8v9.1H322.1z M325.5,33.7V21.3h1.7v12.3 H325.5z M328.8,23.2v-1.9h1.8v1.9H328.8z M328.8,33.7v-9.1h1.8v9.1H328.8z M332.1,33.7v-9.1h1.7v1.4c0.2-0.4,0.4-0.8,0.8-1.1 c0.4-0.3,0.8-0.4,1.3-0.4c0,0,0.1,0,0.1,0c0,0,0.1,0,0.1,0V26c-0.1,0-0.1,0-0.3,0c-0.1,0-0.2,0-0.4,0c-0.4,0-0.7,0.1-1,0.3 c-0.3,0.2-0.5,0.5-0.7,0.8v6.5H332.1z M340.5,33.7V21.3h2.5c0.3,1.6,0.7,3,0.9,4.2c0.1,0.5,0.2,1.1,0.3,1.6c0.1,0.5,0.2,1,0.3,1.4 c0.1,0.4,0.2,0.8,0.2,1c0.1,0.3,0.1,0.4,0.1,0.5c0,0,0-0.2,0.1-0.5c0.1-0.3,0.1-0.6,0.2-1c0.1-0.4,0.2-0.9,0.3-1.4 c0.1-0.5,0.2-1,0.4-1.6c0.3-1.3,0.6-2.7,0.9-4.2h2.5v12.3h-1.8v-4.5c0-0.6,0-1.1,0-1.7s0-1.1,0-1.5c0-0.4,0-0.8,0-1.1 c0-0.3,0-0.5,0-0.6c0,0.1,0,0.3-0.1,0.6c-0.1,0.3-0.1,0.7-0.2,1.1c-0.1,0.4-0.2,1-0.3,1.5c-0.1,0.6-0.3,1.1-0.4,1.7 c-0.3,1.3-0.7,2.8-1.1,4.4h-1.3c-0.4-1.6-0.7-3.1-1-4.4c-0.1-0.6-0.3-1.1-0.4-1.7c-0.1-0.5-0.2-1-0.3-1.5c-0.1-0.5-0.2-0.8-0.2-1.2 c-0.1-0.3-0.1-0.5-0.1-0.6c0,0.2,0,0.4,0,0.8c0,0.4,0,0.8,0,1.2c0,0.5,0,1,0,1.5c0,0.5,0,1.1,0,1.6v4.2H340.5z M353.9,33.8 c-1,0-1.7-0.4-2.2-1.2c-0.5-0.8-0.8-2-0.8-3.5c0-1.5,0.3-2.6,0.8-3.5c0.5-0.8,1.3-1.2,2.2-1.2c1,0,1.7,0.4,2.3,1.2 c0.5,0.8,0.8,2,0.8,3.5c0,1.5-0.3,2.7-0.8,3.5C355.5,33.4,354.8,33.8,353.9,33.8z M353.9,32.5c0.2,0,0.4-0.1,0.5-0.2 c0.2-0.1,0.3-0.3,0.4-0.6c0.1-0.3,0.2-0.6,0.2-1.1c0-0.4,0.1-1,0.1-1.6c0-1.3-0.1-2.1-0.3-2.6c-0.2-0.5-0.5-0.7-0.9-0.7 c-0.4,0-0.7,0.3-0.9,0.8c-0.2,0.5-0.3,1.4-0.3,2.6c0,1.2,0.1,2.1,0.3,2.6C353.1,32.3,353.5,32.5,353.9,32.5z M360.3,33.7 c-0.7,0-1.3-0.4-1.7-1.1c-0.4-0.7-0.6-1.9-0.6-3.6c0-1.6,0.2-2.7,0.7-3.5c0.4-0.8,1.1-1.2,1.9-1.2c0.4,0,0.7,0.1,0.9,0.3 c0.3,0.2,0.5,0.4,0.6,0.6v-3.9h1.7v12.3h-1.6v-1c-0.2,0.4-0.5,0.6-0.8,0.8C361.1,33.7,360.7,33.7,360.3,33.7z M360.9,32.5 c0.3,0,0.6-0.1,0.7-0.3c0.2-0.2,0.3-0.4,0.4-0.7v-4.9c-0.1-0.2-0.2-0.5-0.4-0.6c-0.2-0.2-0.4-0.3-0.7-0.3c-0.4,0-0.7,0.3-0.9,0.8 c-0.2,0.5-0.3,1.4-0.3,2.6c0,0.7,0,1.2,0.1,1.7c0,0.4,0.1,0.8,0.2,1c0.1,0.3,0.2,0.4,0.4,0.5C360.5,32.5,360.7,32.5,360.9,32.5z M369.2,32.7c-0.5,0.7-1.1,1.1-2.1,1.1c-0.5,0-1-0.2-1.3-0.5c-0.4-0.3-0.5-0.9-0.5-1.6v-7.1h1.8v7c0,0.3,0.1,0.6,0.2,0.8 c0.1,0.2,0.3,0.2,0.7,0.2c0.3,0,0.5-0.1,0.7-0.3c0.2-0.2,0.4-0.4,0.5-0.6v-7h1.8v9.1h-1.7L369.2,32.7L369.2,32.7z M366.8,23.8 c-0.3,0-0.5-0.1-0.7-0.3c-0.2-0.2-0.3-0.4-0.3-0.7c0-0.2,0.1-0.5,0.3-0.6c0.2-0.2,0.4-0.3,0.7-0.3c0.3,0,0.5,0.1,0.7,0.3 c0.2,0.2,0.3,0.4,0.3,0.6c0,0.3-0.1,0.5-0.3,0.7C367.3,23.7,367.1,23.8,366.8,23.8z M369.4,23.8c-0.3,0-0.5-0.1-0.7-0.3 c-0.2-0.2-0.3-0.4-0.3-0.7c0-0.2,0.1-0.5,0.3-0.6c0.2-0.2,0.4-0.3,0.7-0.3s0.5,0.1,0.7,0.3c0.2,0.2,0.3,0.4,0.3,0.6 c0,0.3-0.1,0.5-0.3,0.7C369.9,23.7,369.7,23.8,369.4,23.8z M372.5,33.7V21.3h1.7v12.3H372.5z M375.8,33.7V21.3h1.7v12.3H375.8z M382,33.8c-1,0-1.8-0.4-2.3-1.2c-0.5-0.8-0.8-1.9-0.8-3.5c0-1.5,0.3-2.7,0.8-3.5c0.6-0.8,1.3-1.2,2.3-1.2c1,0,1.7,0.4,2.2,1.2 c0.5,0.8,0.7,2,0.7,3.5v0.4h-4.2c0,1.1,0.1,1.8,0.4,2.3c0.2,0.4,0.6,0.7,1,0.7c0.3,0,0.6-0.1,0.8-0.4c0.2-0.2,0.4-0.6,0.5-1.2 l1.4,0.2c-0.1,0.4-0.2,0.7-0.3,1.1c-0.2,0.3-0.3,0.6-0.6,0.8c-0.2,0.2-0.5,0.4-0.8,0.6C382.7,33.7,382.3,33.8,382,33.8z M383.2,28.4c0-0.9-0.1-1.6-0.3-2.1c-0.2-0.4-0.5-0.7-0.9-0.7c-0.4,0-0.7,0.2-0.9,0.7c-0.2,0.4-0.3,1.1-0.4,2.1H383.2z M386,33.7 v-9.1h1.7v1.4c0.2-0.4,0.4-0.8,0.8-1.1c0.4-0.3,0.8-0.4,1.3-0.4c0,0,0.1,0,0.1,0c0,0,0.1,0,0.1,0V26c-0.1,0-0.1,0-0.3,0 c-0.1,0-0.2,0-0.4,0c-0.4,0-0.7,0.1-1,0.3c-0.3,0.2-0.5,0.5-0.7,0.8v6.5H386z"></path> <g> <path class="st1" d="M39.5,73.5V61.2h1.9V72h3.5v1.5H39.5z"></path> <path class="st1" d="M45.2,69.1c0-3,1.2-4.8,3.1-4.8c2,0,2.9,1.7,2.9,4.8c0,0.1,0,0.3,0,0.4H47c0,2.1,0.5,2.9,1.4,2.9 c0.6,0,1-0.5,1.3-1.6l1.4,0.2c-0.3,1.5-1.2,2.7-2.8,2.7C46.3,73.7,45.2,72.1,45.2,69.1z M49.5,68.3c-0.1-1.9-0.4-2.7-1.2-2.7 c-0.8,0-1.3,0.8-1.3,2.7H49.5z"></path> <path class="st1" d="M52.4,73.5v-9.1h1.7v1.2c0.4-0.7,1.1-1.3,2.1-1.3c1.2,0,1.8,0.8,1.8,2v7.2h-1.7v-7c0-0.5-0.2-0.8-0.8-0.8 c-0.5,0-1,0.4-1.3,0.9v6.9H52.4z"></path> <path class="st1" d="M58.9,74.6c0-0.9,0.8-1.5,1.7-1.8c-1.1-0.3-1.4-0.8-1.4-1.5c0-0.7,0.4-1.2,1.3-1.5c-0.8-0.5-1.1-1.3-1.1-2.5 c0-1.9,1.2-3,2.7-3c0.4,0,0.9,0.1,1.3,0.3c0.1-0.8,0.8-1.4,1.7-1.3c0.1,0,0.3,0,0.3,0l0,1.4c-0.1,0-0.3-0.1-0.4-0.1 c-0.5,0-0.8,0.1-0.9,0.6c0.5,0.4,0.8,1.2,0.8,2.2c0,1.8-1,3-2.7,3c-0.3,0-0.7-0.1-0.9-0.1c-0.3,0-0.6,0.3-0.6,0.6 c0,0.5,0.7,0.7,2.2,0.9c2.1,0.3,3,0.9,3,2.2c0,1.5-1.2,2.5-3.6,2.5C60.1,76.5,58.9,75.8,58.9,74.6z M64.2,74.3 c0-0.6-0.6-0.9-2.7-1.1c-0.8,0.3-1.2,0.6-1.2,1.2c0,0.6,0.5,1,1.9,1C63.6,75.4,64.2,75,64.2,74.3z M63.2,67.4 c0-1.2-0.3-1.9-1.1-1.9c-0.7,0-1.1,0.7-1.1,1.9c0,1.3,0.4,1.9,1.1,1.9C62.9,69.3,63.2,68.7,63.2,67.4z"></path> <path class="st1" d="M66.7,71.3v-5.6h-1v-1.3h1l0.1-2.5h1.6v2.5h1.3v1.3h-1.3v5.5c0,0.7,0.2,1,0.9,1c0.2,0,0.5,0,0.6,0v1.3 c-0.3,0-0.7,0.1-1.1,0.1C67.4,73.6,66.7,72.9,66.7,71.3z"></path> <path class="st1" d="M70.9,73.5V61.2h1.7v4.3c0.4-0.7,1.1-1.3,2.1-1.3c1.2,0,1.8,0.8,1.8,2v7.2h-1.8v-7c0-0.6-0.3-0.9-0.8-0.9 c-0.6,0-1,0.5-1.3,1v6.9H70.9z"></path> <path class="st1" d="M81.3,68.4c0-2.7,0.7-5.2,2-7.6h1.3c-1,2.7-1.5,5.4-1.5,7.6c0,2.5,0.6,5.3,1.6,7.7h-1.3 C82.2,74.2,81.3,71.4,81.3,68.4z"></path> <path class="st1" d="M85.9,73.5v-9.1h1.7v1.2c0.3-0.7,1.1-1.3,2-1.3c0.8,0,1.4,0.5,1.6,1.4c0.4-0.7,1.1-1.4,2-1.4 c0.7,0,1.2,0.3,1.5,0.8c0.2,0.3,0.3,0.8,0.3,1.3v7.2h-1.7v-6.9c0-0.6-0.2-0.9-0.7-0.9c-0.6,0-0.9,0.5-1.2,0.9v6.9h-1.7v-6.9 c0-0.6-0.2-0.9-0.7-0.9c-0.6,0-0.9,0.4-1.2,0.9v6.9H85.9z"></path> <path class="st1" d="M96.4,73.5v-9.1h1.7v1.2c0.4-0.7,1.1-1.3,2-1.3c0.8,0,1.4,0.5,1.6,1.4c0.4-0.7,1.1-1.4,2-1.4 c0.7,0,1.2,0.3,1.5,0.8c0.2,0.3,0.3,0.8,0.3,1.3v7.2h-1.7v-6.9c0-0.6-0.2-0.9-0.7-0.9c-0.6,0-0.9,0.5-1.2,0.9v6.9H100v-6.9 c0-0.6-0.2-0.9-0.7-0.9c-0.6,0-0.9,0.4-1.2,0.9v6.9H96.4z"></path> <path class="st1" d="M108.1,68.5c0-2.5-0.6-5.4-1.6-7.7h1.3c1.3,2.3,2,4.9,2,7.7c0,2.9-0.8,5.6-2,7.7h-1.3 C107.7,73.5,108.1,70.7,108.1,68.5z"></path> </g> <g> <path class="st1" d="M36.2,92.4v-9h1.9v9.1c0,1.2,0.4,1.8,1.3,1.8c1,0,1.4-0.6,1.4-1.8v-9.1h1.6v8.9c0,2.3-1.2,3.5-3.2,3.5 C37.4,95.8,36.2,94.7,36.2,92.4z"></path> <path class="st1" d="M43.6,95.7v-1l3.2-6.8l-2.9,0v-1.3h4.9v1l-3.2,6.8h3.2v1.3H43.6z"></path> <path class="st1" d="M49.7,93.7v-7.1h1.8v7c0,0.7,0.2,1,0.8,1c0.6,0,1-0.4,1.2-0.9v-7h1.8v9.1h-1.7l0-1c-0.4,0.7-1.1,1.1-2.1,1.1 C50.5,95.8,49.7,95.2,49.7,93.7z"></path> <path class="st1" d="M56.9,95.7v-9.1h1.7v1.2c0.4-0.7,1.1-1.3,2.1-1.3c1.2,0,1.8,0.8,1.8,2v7.2h-1.7v-7c0-0.5-0.2-0.8-0.8-0.8 c-0.5,0-1,0.4-1.3,0.9v6.9H56.9z"></path> <path class="st1" d="M64,95.7V83.4h1.7v12.3H64z"></path> <path class="st1" d="M67.3,93.7v-7.1h1.8v7c0,0.7,0.2,1,0.8,1c0.6,0,1-0.4,1.2-0.9v-7h1.8v9.1h-1.7l0-1c-0.4,0.7-1.1,1.1-2.1,1.1 C68.1,95.8,67.3,95.2,67.3,93.7z"></path> <path class="st1" d="M74.5,95.7V83.4h1.7v6.4v0.6l0.3-0.6l2-3.2h1.7l-2,3.3l2.3,5.8h-1.8L77,91.3l-0.8,1.1v3.2H74.5z"></path> <path class="st1" d="M84.6,90.6c0-2.7,0.7-5.2,2-7.6h1.3c-1,2.7-1.5,5.4-1.5,7.6c0,2.5,0.6,5.3,1.6,7.7h-1.3 C85.4,96.3,84.6,93.6,84.6,90.6z"></path> <path class="st1" d="M89.1,95.7v-9.1h1.7v1.2c0.4-0.7,1.1-1.3,2-1.3c0.8,0,1.4,0.5,1.6,1.4c0.4-0.7,1.1-1.4,2-1.4 c0.7,0,1.2,0.3,1.5,0.8c0.2,0.3,0.3,0.8,0.3,1.3v7.2h-1.7v-6.9c0-0.6-0.2-0.9-0.7-0.9c-0.6,0-0.9,0.5-1.2,0.9v6.9h-1.7v-6.9 c0-0.6-0.2-0.9-0.7-0.9c-0.6,0-0.9,0.4-1.2,0.9v6.9H89.1z"></path> <path class="st1" d="M99.6,95.7v-9.1h1.7v1.2c0.3-0.7,1.1-1.3,2-1.3c0.8,0,1.4,0.5,1.6,1.4c0.4-0.7,1.1-1.4,2-1.4 c0.7,0,1.2,0.3,1.5,0.8c0.2,0.3,0.3,0.8,0.3,1.3v7.2h-1.7v-6.9c0-0.6-0.2-0.9-0.7-0.9c-0.6,0-0.9,0.5-1.2,0.9v6.9h-1.7v-6.9 c0-0.6-0.2-0.9-0.7-0.9c-0.6,0-0.9,0.4-1.2,0.9v6.9H99.6z"></path> <path class="st1" d="M111.4,90.6c0-2.5-0.6-5.4-1.6-7.7h1.3c1.3,2.3,2,4.9,2,7.7c0,2.9-0.8,5.6-2,7.7h-1.3 C110.9,95.6,111.4,92.8,111.4,90.6z"></path> </g> <g> <path class="st1" d="M189.9,73.5v-1.3c3.2-3.9,4.4-5.7,4.4-7.9c0-1.1-0.4-1.8-1.3-1.8c-0.8,0-1.4,0.7-1.5,2.3l-1.7-0.3 c0.2-2.3,1.5-3.5,3.3-3.5c1.9,0,3,1.2,3,3.1c0,2.4-1.8,4.9-4.4,7.8h4.3v1.5H189.9z"></path> <path class="st1" d="M197.7,61.2h2.7c1.1,0,2.1,0.3,2.7,1c1,1,1.5,2.6,1.5,5.1c0,4.1-1.6,6.2-4.2,6.2h-2.8V61.2z M199.6,72.1h0.8 c1.4,0,2.3-1.2,2.3-4.7c0-3.5-0.9-4.7-2.3-4.7h-0.8V72.1z"></path> </g> <g> <path class="st1" d="M183.7,95.7v-1.5h1.9v-8.7c-0.2,0.2-1.4,0.5-1.9,0.8v-1.4c1-0.4,1.9-1,2.4-1.7l1.2,0v10.9h1.8v1.5H183.7z"></path> <path class="st1" d="M189.9,93.1l1.6-0.4c0.2,1.2,0.6,1.8,1.5,1.8c0.9,0,1.5-0.9,1.5-2.9c0-1.8-0.4-2.7-1.4-2.7 c-0.8,0-1.2,0.5-1.5,1.5l-1.4-0.2l0.3-6.7h5.2l-0.1,1.5h-3.7l-0.2,3.5c0.3-0.6,1.1-1,1.9-1c1.7,0,2.7,1.4,2.7,4.1 c0,2.9-1.4,4.4-3.2,4.4C191.3,95.8,190.2,94.8,189.9,93.1z"></path> <path class="st1" d="M197.3,90c0-0.1,0-0.4,0-0.6c0-3.8,1-6.2,3.5-6.2c1.6,0,2.5,1,2.8,2.8l-1.6,0.3c-0.2-1.1-0.5-1.7-1.3-1.7 c-1,0-1.6,1.2-1.6,3.8c0,0.1,0,0.5,0,0.7c0.4-0.9,1.2-1.4,2.1-1.4c1.8,0,2.7,1.6,2.7,3.9c0,2.6-1.2,4.3-3.2,4.3 C198.6,95.8,197.3,93.8,197.3,90z M202.1,91.8c0-0.1,0-0.1,0-0.2c0-1.8-0.5-2.5-1.4-2.5c-0.8,0-1.4,0.8-1.5,2.4c0,0.1,0,0.1,0,0.2 c0.1,2,0.6,2.7,1.5,2.7C201.6,94.4,202.1,93.7,202.1,91.8z"></path> <path class="st1" d="M204.7,95.7v-1.3c3.2-3.9,4.4-5.7,4.4-7.9c0-1.1-0.4-1.8-1.3-1.8c-0.8,0-1.4,0.7-1.5,2.3l-1.7-0.3 c0.2-2.3,1.5-3.5,3.3-3.5c1.9,0,3,1.2,3,3.1c0,2.4-1.8,4.9-4.4,7.8h4.3v1.5H204.7z"></path> </g> <g> <path class="st1" d="M287.1,70.7l1.6-0.4c0.2,1.3,0.7,1.9,1.7,1.9c1.1,0,1.6-0.8,1.6-2.3c0-1.5-0.7-2.1-1.9-2.1h-0.8v-1.5h0.8 c1.1,0,1.6-0.6,1.6-2.1c0-1.3-0.4-1.9-1.3-1.9c-0.8,0-1.3,0.6-1.5,1.7l-1.6-0.3c0.4-1.9,1.6-2.8,3.1-2.8c1.9,0,3,1.2,3,3 c0,1.6-0.6,2.6-1.8,3c1.2,0.3,2.1,1.3,2.1,3.1c0,2.2-1.2,3.6-3.3,3.6C288.5,73.7,287.3,72.8,287.1,70.7z"></path> <path class="st1" d="M295.2,61.2h2.7c1.1,0,2.1,0.3,2.7,1c1,1,1.5,2.6,1.5,5.1c0,4.1-1.6,6.2-4.2,6.2h-2.8V61.2z M297.1,72.1h0.8 c1.4,0,2.3-1.2,2.3-4.7c0-3.5-0.9-4.7-2.3-4.7h-0.8V72.1z"></path> </g> <g> <path class="st1" d="M280.5,95.7v-1.3c3.2-3.9,4.4-5.7,4.4-7.9c0-1.1-0.4-1.8-1.3-1.8c-0.8,0-1.4,0.7-1.5,2.3l-1.7-0.3 c0.2-2.3,1.5-3.5,3.3-3.5c1.9,0,3,1.2,3,3.1c0,2.4-1.8,4.9-4.4,7.8h4.3v1.5H280.5z"></path> <path class="st1" d="M287.6,92.9l1.6-0.4c0.2,1.3,0.7,1.9,1.7,1.9c1.1,0,1.6-0.8,1.6-2.3c0-1.5-0.7-2.1-1.9-2.1h-0.8v-1.5h0.8 c1.1,0,1.6-0.6,1.6-2.1c0-1.3-0.4-1.9-1.3-1.9c-0.8,0-1.3,0.6-1.5,1.7l-1.6-0.3c0.4-1.9,1.6-2.8,3.1-2.8c1.9,0,3,1.2,3,3 c0,1.6-0.6,2.6-1.8,3c1.2,0.3,2.1,1.3,2.1,3.1c0,2.2-1.2,3.6-3.3,3.6C289,95.8,287.8,94.9,287.6,92.9z"></path> <path class="st1" d="M298.9,95.7v-2.8h-3.8v-1.4l3.8-8.2h1.8v8.1h1.2v1.5h-1.2v2.8H298.9z M296.5,91.3h2.4v-5.3L296.5,91.3z"></path> <path class="st1" d="M302.4,92.9l1.6-0.4c0.2,1.3,0.7,1.9,1.7,1.9c1.1,0,1.6-0.8,1.6-2.3c0-1.5-0.7-2.1-1.9-2.1h-0.8v-1.5h0.8 c1.1,0,1.6-0.6,1.6-2.1c0-1.3-0.4-1.9-1.3-1.9c-0.8,0-1.3,0.6-1.5,1.7l-1.6-0.3c0.4-1.9,1.6-2.8,3.1-2.8c1.9,0,3,1.2,3,3 c0,1.6-0.6,2.6-1.8,3c1.2,0.3,2.1,1.3,2.1,3.1c0,2.2-1.2,3.6-3.3,3.6C303.8,95.8,302.6,94.9,302.4,92.9z"></path> </g> <g> <path class="st1" d="M388.4,73.5v-2.8h-3.8v-1.4l3.8-8.2h1.8v8.1h1.2v1.5h-1.2v2.8H388.4z M386,69.2h2.4v-5.3L386,69.2z"></path> <path class="st1" d="M392.7,61.2h2.7c1.1,0,2.1,0.3,2.7,1c1,1,1.5,2.6,1.5,5.1c0,4.1-1.6,6.2-4.2,6.2h-2.8V61.2z M394.5,72.1h0.8 c1.4,0,2.3-1.2,2.3-4.7c0-3.5-0.9-4.7-2.3-4.7h-0.8V72.1z"></path> </g> <g> <path class="st1" d="M378.4,92.9l1.6-0.4c0.2,1.3,0.7,1.9,1.7,1.9c1.1,0,1.6-0.8,1.6-2.3c0-1.5-0.7-2.1-1.9-2.1h-0.8v-1.5h0.8 c1.1,0,1.6-0.6,1.6-2.1c0-1.3-0.4-1.9-1.3-1.9c-0.8,0-1.3,0.6-1.5,1.7l-1.6-0.3c0.4-1.9,1.6-2.8,3.1-2.8c1.9,0,3,1.2,3,3 c0,1.6-0.6,2.6-1.8,3c1.2,0.3,2.1,1.3,2.1,3.1c0,2.2-1.2,3.6-3.3,3.6C379.8,95.8,378.6,94.9,378.4,92.9z"></path> <path class="st1" d="M386,95.7v-1.5h1.9v-8.7c-0.2,0.2-1.4,0.5-1.9,0.8v-1.4c1-0.4,1.9-1,2.4-1.7l1.2,0v10.9h1.8v1.5H386z"></path> <path class="st1" d="M392.3,95.7v-1.3c3.2-3.9,4.4-5.7,4.4-7.9c0-1.1-0.4-1.8-1.3-1.8c-0.8,0-1.4,0.7-1.5,2.3l-1.7-0.3 c0.2-2.3,1.5-3.5,3.3-3.5c1.9,0,3,1.2,3,3.1c0,2.4-1.8,4.9-4.4,7.8h4.3v1.5H392.3z"></path> <path class="st1" d="M403.1,95.7v-2.8h-3.8v-1.4l3.8-8.2h1.8v8.1h1.2v1.5h-1.2v2.8H403.1z M400.7,91.3h2.4v-5.3L400.7,91.3z"></path> </g> <g> <path class="st1" d="M482.2,70.9l1.6-0.4c0.2,1.2,0.6,1.8,1.5,1.8c0.9,0,1.5-0.9,1.5-2.9c0-1.8-0.4-2.7-1.4-2.7 c-0.8,0-1.2,0.5-1.5,1.5l-1.4-0.2l0.3-6.7h5.2l-0.1,1.5h-3.7l-0.2,3.5c0.3-0.6,1.1-1,1.9-1c1.7,0,2.7,1.4,2.7,4.1 c0,2.9-1.4,4.4-3.2,4.4C483.6,73.7,482.5,72.6,482.2,70.9z"></path> <path class="st1" d="M490.1,61.2h2.7c1.1,0,2.1,0.3,2.7,1c1,1,1.5,2.6,1.5,5.1c0,4.1-1.6,6.2-4.2,6.2h-2.8V61.2z M491.9,72.1h0.8 c1.4,0,2.3-1.2,2.3-4.7c0-3.5-0.9-4.7-2.3-4.7h-0.8V72.1z"></path> </g> <g> <path class="st1" d="M475.1,92.9l1.6-0.4c0.2,1.3,0.7,1.9,1.7,1.9c1.1,0,1.6-0.8,1.6-2.3c0-1.5-0.7-2.1-1.9-2.1h-0.8v-1.5h0.8 c1.1,0,1.6-0.6,1.6-2.1c0-1.3-0.4-1.9-1.3-1.9c-0.8,0-1.3,0.6-1.5,1.7l-1.6-0.3c0.4-1.9,1.6-2.8,3.1-2.8c1.9,0,3,1.2,3,3 c0,1.6-0.6,2.6-1.8,3c1.2,0.3,2.1,1.3,2.1,3.1c0,2.2-1.2,3.6-3.3,3.6C476.5,95.8,475.3,94.9,475.1,92.9z"></path> <path class="st1" d="M482.6,87.5c0-2.4,1.1-4.2,3.2-4.2c2.3,0,3.3,2,3.3,5.6c0,0.2,0,0.6,0,0.7c0,3.9-1,6.3-3.4,6.3 c-1.7,0-2.6-0.9-2.8-2.6l1.6-0.3c0.1,1,0.5,1.5,1.3,1.5c0.9,0,1.4-1,1.5-3.5c0-0.2,0-0.5,0-0.7c-0.3,0.7-1.1,1.2-2,1.2 C483.6,91.4,482.6,90,482.6,87.5z M487.2,88.9c0-0.2,0-1,0-1.3c0-2.1-0.5-3-1.5-3c-1,0-1.4,0.9-1.4,2.7c0,0.1,0,0.1,0,0.2 c0,2,0.6,2.5,1.4,2.5C486.4,90,486.9,89.5,487.2,88.9z"></path> <path class="st1" d="M490.1,89.5c0-4.2,1-6.3,3.3-6.3c2.2,0,3.3,2.1,3.3,6.3c0,4.1-1.1,6.3-3.3,6.3 C491.3,95.8,490.1,93.6,490.1,89.5z M494.9,89.5c0-3.5-0.4-4.8-1.4-4.8c-1.1,0-1.4,1.3-1.4,4.8c0,3.7,0.4,5,1.4,5 C494.5,94.4,494.9,93.2,494.9,89.5z"></path> <path class="st1" d="M497.6,93.1l1.6-0.4c0.2,1.2,0.6,1.8,1.5,1.8c0.9,0,1.5-0.9,1.5-2.9c0-1.8-0.4-2.7-1.4-2.7 c-0.8,0-1.2,0.5-1.5,1.5l-1.4-0.2l0.3-6.7h5.2l-0.1,1.5h-3.7l-0.2,3.5c0.3-0.6,1.1-1,1.9-1c1.7,0,2.7,1.4,2.7,4.1 c0,2.9-1.4,4.4-3.2,4.4C499,95.8,498,94.8,497.6,93.1z"></path> </g> <g> <path class="st1" d="M30.9,122.9l1.6-0.4c0.2,1.4,0.8,2,1.9,2c1,0,1.6-0.6,1.6-1.7c0-1.2-0.8-1.8-2.1-2.6 c-1.5-0.9-2.7-1.8-2.7-3.8c0-1.8,1.2-3.1,3.1-3.1c1.8,0,2.9,1.1,3.2,2.8l-1.7,0.4c-0.2-1.2-0.6-1.8-1.5-1.8 c-0.8,0-1.3,0.5-1.3,1.4c0,1.3,0.6,1.6,2.1,2.6c1.6,1,2.6,2,2.6,3.8c0,2.1-1.2,3.4-3.3,3.4C32.3,126,31.2,124.9,30.9,122.9z"></path> <path class="st1" d="M38.5,115.4v-1.9h1.8v1.9H38.5z M38.5,125.8v-9.1h1.8v9.1H38.5z"></path> <path class="st1" d="M41.2,121.3c0-3.1,1-4.7,2.6-4.7c0.7,0,1.2,0.4,1.6,0.8v-3.9h1.7v12.3h-1.6v-1c-0.5,0.7-1,1.1-1.8,1.1 C42.1,125.9,41.2,124.6,41.2,121.3z M45.3,123.7v-4.9c-0.2-0.5-0.5-0.9-1.1-0.9c-0.9,0-1.2,0.9-1.2,3.4c0,2.7,0.4,3.4,1.1,3.4 C44.8,124.7,45.2,124.2,45.3,123.7z"></path> <path class="st1" d="M48,121.4c0-3,1.2-4.8,3.1-4.8c2,0,2.9,1.7,2.9,4.8c0,0.1,0,0.3,0,0.4h-4.2c0,2.1,0.5,2.9,1.4,2.9 c0.6,0,1-0.5,1.3-1.6l1.4,0.2c-0.3,1.5-1.2,2.7-2.8,2.7C49.1,126,48,124.4,48,121.4z M52.3,120.6c-0.1-1.9-0.4-2.7-1.2-2.7 c-0.8,0-1.3,0.8-1.3,2.7H52.3z"></path> <path class="st1" d="M59.5,125.2v3.9h-1.7v-12.3h1.6v1.1c0.3-0.6,0.9-1.3,1.9-1.3c1.5,0,2.3,1.2,2.3,4.7c0,3.4-1.1,4.6-2.4,4.6 C60.3,126,59.8,125.5,59.5,125.2z M61.7,121.4c0-2.6-0.3-3.3-1.1-3.3c-0.6,0-1,0.4-1.2,1v4.9c0.2,0.3,0.6,0.8,1.1,0.8 C61.4,124.7,61.7,124.1,61.7,121.4z"></path> <path class="st1" d="M64.1,123.6c0-1.8,1-2.8,2.8-3.3c0.4-0.1,0.9-0.3,1.3-0.3c0-0.1,0-0.9,0-0.9c0-0.8-0.3-1.2-1.1-1.2 c-0.8,0-1.1,0.4-1.3,1.3l-1.6-0.2c0.3-1.5,1.3-2.4,3-2.4c1.9,0,2.6,1,2.6,2.6v4.9c0,0.7,0,1.4,0.2,1.7h-1.7 c-0.1-0.2-0.1-0.6-0.1-0.9c-0.5,0.6-1.1,1-2.1,1C65,125.9,64.1,125.2,64.1,123.6z M68.2,123.7v-2.6c-0.3,0-0.6,0.1-0.9,0.2 c-0.9,0.4-1.5,1.1-1.5,2.1c0,0.9,0.3,1.3,1,1.3C67.5,124.7,68,124.3,68.2,123.7z"></path> <path class="st1" d="M71.1,125.8v-9.1h1.7v1.2c0.4-0.7,1.1-1.3,2.1-1.3c1.2,0,1.8,0.8,1.8,2v7.2H75v-7c0-0.5-0.2-0.8-0.8-0.8 c-0.5,0-1,0.4-1.3,0.9v6.9H71.1z"></path> <path class="st1" d="M77.6,121.4c0-3,1.2-4.8,3.1-4.8c2,0,2.9,1.7,2.9,4.8c0,0.1,0,0.3,0,0.4h-4.2c0,2.1,0.5,2.9,1.4,2.9 c0.6,0,1-0.5,1.3-1.6l1.4,0.2c-0.3,1.5-1.2,2.7-2.8,2.7C78.7,126,77.6,124.4,77.6,121.4z M81.9,120.6c-0.1-1.9-0.4-2.7-1.2-2.7 c-0.8,0-1.3,0.8-1.3,2.7H81.9z"></path> <path class="st1" d="M84.5,125.8v-12.3h1.7v12.3H84.5z"></path> <path class="st1" d="M90.4,120.7c0-2.7,0.7-5.2,2-7.6h1.3c-1,2.7-1.5,5.4-1.5,7.6c0,2.5,0.6,5.3,1.6,7.7h-1.3 C91.3,126.5,90.4,123.7,90.4,120.7z"></path> <path class="st1" d="M94.6,125.8v-9.1h1.7v1.2c0.4-0.7,1.1-1.3,2-1.3c0.8,0,1.4,0.5,1.6,1.4c0.4-0.7,1.1-1.4,2-1.4 c0.7,0,1.2,0.3,1.5,0.8c0.2,0.3,0.3,0.8,0.3,1.3v7.2h-1.7v-6.9c0-0.6-0.2-0.9-0.7-0.9c-0.6,0-0.9,0.5-1.2,0.9v6.9h-1.7v-6.9 c0-0.6-0.2-0.9-0.7-0.9c-0.6,0-0.9,0.4-1.2,0.9v6.9H94.6z"></path> <path class="st1" d="M104.8,125.8v-9.1h1.7v1.2c0.3-0.7,1.1-1.3,2-1.3c0.8,0,1.4,0.5,1.6,1.4c0.4-0.7,1.1-1.4,2-1.4 c0.7,0,1.2,0.3,1.5,0.8c0.2,0.3,0.3,0.8,0.3,1.3v7.2H112v-6.9c0-0.6-0.2-0.9-0.7-0.9c-0.6,0-0.9,0.5-1.2,0.9v6.9h-1.7v-6.9 c0-0.6-0.2-0.9-0.7-0.9c-0.6,0-0.9,0.4-1.2,0.9v6.9H104.8z"></path> <path class="st1" d="M116.2,120.8c0-2.5-0.6-5.4-1.6-7.7h1.3c1.3,2.3,2,4.9,2,7.7c0,2.9-0.8,5.6-2,7.7h-1.3 C115.7,125.8,116.2,123,116.2,120.8z"></path> </g> <g> <path class="st1" d="M33.7,148v-5l-2.7-7.3h2l1.3,3.6c0.1,0.4,0.4,1.3,0.5,1.7c0.1-0.4,0.3-1.2,0.5-1.6l1.3-3.6h1.8l-2.7,7.3v5 H33.7z"></path> <path class="st1" d="M37.5,145.7c0-1.8,1-2.8,2.8-3.3c0.4-0.1,0.9-0.3,1.3-0.3c0-0.1,0-0.9,0-0.9c0-0.8-0.3-1.2-1.1-1.2 c-0.8,0-1.1,0.4-1.3,1.3l-1.6-0.2c0.3-1.5,1.3-2.4,3-2.4c1.9,0,2.6,1,2.6,2.6v4.9c0,0.7,0,1.4,0.2,1.7h-1.7 c-0.1-0.2-0.1-0.6-0.1-0.9c-0.5,0.6-1.1,1-2.1,1C38.4,148.1,37.5,147.3,37.5,145.7z M41.6,145.8v-2.6c-0.3,0-0.6,0.1-0.9,0.2 c-0.9,0.4-1.5,1.1-1.5,2.1c0,0.9,0.3,1.3,1,1.3C40.9,146.8,41.4,146.4,41.6,145.8z"></path> <path class="st1" d="M44.5,148v-9.1h1.7v1.2c0.4-0.7,1.1-1.3,2.1-1.3c1.2,0,1.8,0.8,1.8,2v7.2h-1.7v-7c0-0.5-0.2-0.8-0.8-0.8 c-0.5,0-1,0.4-1.3,0.9v6.9H44.5z"></path> <path class="st1" d="M54.2,148v-12.3H56v6.4v0.6l0.3-0.6l2-3.2h1.7l-2,3.3l2.3,5.8h-1.8l-1.6-4.3l-0.8,1.1v3.2H54.2z"></path> <path class="st1" d="M60.2,145.7c0-1.8,1-2.8,2.8-3.3c0.4-0.1,0.9-0.3,1.3-0.3c0-0.1,0-0.9,0-0.9c0-0.8-0.3-1.2-1.1-1.2 c-0.8,0-1.1,0.4-1.3,1.3l-1.6-0.2c0.3-1.5,1.3-2.4,3-2.4c1.9,0,2.6,1,2.6,2.6v4.9c0,0.7,0,1.4,0.2,1.7h-1.7 c-0.1-0.2-0.1-0.6-0.1-0.9c-0.5,0.6-1.1,1-2.1,1C61.1,148.1,60.2,147.3,60.2,145.7z M64.3,145.8v-2.6c-0.3,0-0.6,0.1-0.9,0.2 c-0.9,0.4-1.5,1.1-1.5,2.1c0,0.9,0.3,1.3,1,1.3C63.6,146.8,64.1,146.4,64.3,145.8z"></path> <path class="st1" d="M68.9,147.3v3.9h-1.7v-12.3h1.6v1.1c0.3-0.6,0.9-1.3,1.9-1.3c1.5,0,2.3,1.2,2.3,4.7c0,3.4-1.1,4.6-2.4,4.6 C69.8,148.1,69.3,147.7,68.9,147.3z M71.2,143.5c0-2.6-0.3-3.3-1.1-3.3c-0.6,0-1,0.4-1.2,1v4.9c0.2,0.3,0.6,0.8,1.1,0.8 C70.9,146.9,71.2,146.2,71.2,143.5z"></path> <path class="st1" d="M73.6,145.7c0-1.8,1-2.8,2.8-3.3c0.4-0.1,0.9-0.3,1.3-0.3c0-0.1,0-0.9,0-0.9c0-0.8-0.3-1.2-1.1-1.2 c-0.8,0-1.1,0.4-1.3,1.3l-1.6-0.2c0.3-1.5,1.3-2.4,3-2.4c1.9,0,2.6,1,2.6,2.6v4.9c0,0.7,0,1.4,0.2,1.7h-1.7 c-0.1-0.2-0.1-0.6-0.1-0.9c-0.5,0.6-1.1,1-2.1,1C74.5,148.1,73.6,147.3,73.6,145.7z M77.7,145.8v-2.6c-0.3,0-0.6,0.1-0.9,0.2 c-0.9,0.4-1.5,1.1-1.5,2.1c0,0.9,0.3,1.3,1,1.3C77,146.8,77.5,146.4,77.7,145.8z"></path> <path class="st1" d="M80.6,148v-12.3h1.7v6.4v0.6l0.3-0.6l2-3.2h1.7l-2,3.3l2.3,5.8h-1.8l-1.6-4.3l-0.8,1.1v3.2H80.6z"></path> <path class="st1" d="M90,142.9c0-2.7,0.7-5.2,2-7.6h1.3c-1,2.7-1.5,5.4-1.5,7.6c0,2.5,0.6,5.3,1.6,7.7H92 C90.9,148.7,90,145.9,90,142.9z"></path> <path class="st1" d="M94.2,148v-9.1h1.7v1.2c0.4-0.7,1.1-1.3,2-1.3c0.8,0,1.4,0.5,1.6,1.4c0.4-0.7,1.1-1.4,2-1.4 c0.7,0,1.2,0.3,1.5,0.8c0.2,0.3,0.3,0.8,0.3,1.3v7.2h-1.7v-6.9c0-0.6-0.2-0.9-0.7-0.9c-0.6,0-0.9,0.5-1.2,0.9v6.9h-1.7v-6.9 c0-0.6-0.2-0.9-0.7-0.9c-0.6,0-0.9,0.4-1.2,0.9v6.9H94.2z"></path> <path class="st1" d="M104.4,148v-9.1h1.7v1.2c0.3-0.7,1.1-1.3,2-1.3c0.8,0,1.4,0.5,1.6,1.4c0.4-0.7,1.1-1.4,2-1.4 c0.7,0,1.2,0.3,1.5,0.8c0.2,0.3,0.3,0.8,0.3,1.3v7.2h-1.7v-6.9c0-0.6-0.2-0.9-0.7-0.9c-0.6,0-0.9,0.5-1.2,0.9v6.9H108v-6.9 c0-0.6-0.2-0.9-0.7-0.9c-0.6,0-0.9,0.4-1.2,0.9v6.9H104.4z"></path> <path class="st1" d="M115.8,142.9c0-2.5-0.6-5.4-1.6-7.7h1.3c1.3,2.3,2,4.9,2,7.7c0,2.9-0.8,5.6-2,7.7h-1.3 C115.3,147.9,115.8,145.1,115.8,142.9z"></path> </g> <g> <path class="st1" d="M190.3,134.3l1.6-0.4c0.2,1.2,0.6,1.8,1.5,1.8c0.9,0,1.5-0.9,1.5-2.9c0-1.8-0.4-2.7-1.4-2.7 c-0.8,0-1.2,0.5-1.5,1.5l-1.4-0.2l0.3-6.7h5.2l-0.1,1.5h-3.7l-0.2,3.5c0.3-0.6,1.1-1,1.9-1c1.7,0,2.7,1.4,2.7,4.1 c0,2.9-1.4,4.4-3.2,4.4C191.7,137.1,190.6,136,190.3,134.3z"></path> <path class="st1" d="M197.7,130.8c0-4.2,1-6.3,3.3-6.3c2.2,0,3.3,2.1,3.3,6.3c0,4.1-1.1,6.3-3.3,6.3 C198.8,137.1,197.7,134.9,197.7,130.8z M202.4,130.7c0-3.5-0.4-4.8-1.4-4.8c-1.1,0-1.4,1.3-1.4,4.8c0,3.7,0.4,5,1.4,5 C202.1,135.7,202.4,134.4,202.4,130.7z"></path> </g> <g> <path class="st1" d="M287.7,134.3l1.6-0.4c0.2,1.2,0.6,1.8,1.5,1.8c0.9,0,1.5-0.9,1.5-2.9c0-1.8-0.4-2.7-1.4-2.7 c-0.8,0-1.2,0.5-1.5,1.5l-1.4-0.2l0.3-6.7h5.2l-0.1,1.5h-3.7l-0.2,3.5c0.3-0.6,1.1-1,1.9-1c1.7,0,2.7,1.4,2.7,4.1 c0,2.9-1.4,4.4-3.2,4.4C289.1,137.1,288,136,287.7,134.3z"></path> <path class="st1" d="M295.1,130.8c0-4.2,1-6.3,3.3-6.3c2.2,0,3.3,2.1,3.3,6.3c0,4.1-1.1,6.3-3.3,6.3 C296.2,137.1,295.1,134.9,295.1,130.8z M299.8,130.7c0-3.5-0.4-4.8-1.4-4.8c-1.1,0-1.4,1.3-1.4,4.8c0,3.7,0.4,5,1.4,5 C299.5,135.7,299.8,134.4,299.8,130.7z"></path> </g> <g> <path class="st1" d="M385.2,134.3l1.6-0.4c0.2,1.2,0.6,1.8,1.5,1.8c0.9,0,1.5-0.9,1.5-2.9c0-1.8-0.4-2.7-1.4-2.7 c-0.8,0-1.2,0.5-1.5,1.5l-1.4-0.2l0.3-6.7h5.2l-0.1,1.5h-3.7l-0.2,3.5c0.3-0.6,1.1-1,1.9-1c1.7,0,2.7,1.4,2.7,4.1 c0,2.9-1.4,4.4-3.2,4.4C386.6,137.1,385.5,136,385.2,134.3z"></path> <path class="st1" d="M392.6,130.8c0-4.2,1-6.3,3.3-6.3c2.2,0,3.3,2.1,3.3,6.3c0,4.1-1.1,6.3-3.3,6.3 C393.7,137.1,392.6,134.9,392.6,130.8z M397.3,130.7c0-3.5-0.4-4.8-1.4-4.8c-1.1,0-1.4,1.3-1.4,4.8c0,3.7,0.4,5,1.4,5 C397,135.7,397.3,134.4,397.3,130.7z"></path> </g> <g> <path class="st1" d="M482.6,134.3l1.6-0.4c0.2,1.2,0.6,1.8,1.5,1.8c0.9,0,1.5-0.9,1.5-2.9c0-1.8-0.4-2.7-1.4-2.7 c-0.8,0-1.2,0.5-1.5,1.5l-1.4-0.2l0.3-6.7h5.2l-0.1,1.5h-3.7l-0.2,3.5c0.3-0.6,1.1-1,1.9-1c1.7,0,2.7,1.4,2.7,4.1 c0,2.9-1.4,4.4-3.2,4.4C484,137.1,482.9,136,482.6,134.3z"></path> <path class="st1" d="M490,130.8c0-4.2,1-6.3,3.3-6.3c2.2,0,3.3,2.1,3.3,6.3c0,4.1-1.1,6.3-3.3,6.3 C491.2,137.1,490,134.9,490,130.8z M494.8,130.7c0-3.5-0.4-4.8-1.4-4.8c-1.1,0-1.4,1.3-1.4,4.8c0,3.7,0.4,5,1.4,5 S494.8,134.4,494.8,130.7z"></path> </g> </g> <g> </g> <g> </g> <g> </g> <g> </g> <g> </g> <g> </g> </svg> 